{"glyphs":{"0":{"ha":763,"x_min":88,"x_max":671,"o":"m 644 256 l 644 708 q 578 897 644 828 q 379 965 511 965 q 181 895 247 965 q 114 706 114 825 l 114 256 q 192 73 114 135 q 381 11 269 11 q 568 69 492 11 q 644 256 644 128 m 671 703 l 671 257 q 585 51 671 117 q 381 -15 500 -15 q 174 51 261 -15 q 88 257 88 117 l 88 704 q 166 921 88 847 q 382 994 244 994 q 595 917 519 994 q 671 703 671 839 z "},"1":{"ha":296,"x_min":42,"x_max":253,"o":"m 253 0 l 226 0 l 226 919 q 149 856 193 881 q 76 826 104 832 l 49 821 l 42 846 q 78 854 56 849 q 149 892 100 860 q 226 972 199 925 l 253 972 l 253 0 z "},"2":{"ha":574,"x_min":42,"x_max":531,"o":"m 529 0 l 42 0 l 42 28 l 446 589 q 504 760 504 678 q 446 901 504 843 q 299 960 388 960 q 157 917 210 960 q 85 810 104 874 l 60 819 q 307 986 118 986 q 458 926 393 986 q 531 765 531 858 q 465 574 531 672 l 74 28 l 529 28 l 529 0 z "},"3":{"ha":626,"x_min":42,"x_max":583,"o":"m 42 115 l 67 131 q 280 10 149 10 q 484 93 411 10 q 557 288 557 176 q 476 472 557 400 q 296 547 394 543 l 176 547 l 472 944 l 107 944 l 107 972 l 506 972 l 506 944 l 228 574 l 288 574 q 497 488 411 574 q 583 278 583 401 q 497 69 583 156 q 288 -17 411 -17 q 147 19 213 -17 q 42 115 82 54 z "},"4":{"ha":672,"x_min":42,"x_max":629,"o":"m 528 0 l 501 0 l 500 547 l 42 547 l 281 972 l 308 972 l 88 574 l 501 574 l 501 972 l 528 972 l 528 574 l 629 574 l 621 547 l 528 547 l 528 0 z "},"5":{"ha":626,"x_min":42,"x_max":583,"o":"m 42 115 l 64 129 q 158 42 96 75 q 288 10 221 10 q 481 91 406 10 q 557 278 557 172 q 483 466 557 385 q 290 547 408 547 l 93 547 l 138 972 l 506 972 l 506 944 l 163 944 l 122 574 l 288 574 q 497 488 411 574 q 583 278 583 401 q 497 69 583 156 q 288 -17 411 -17 q 147 19 213 -17 q 42 115 82 54 z "},"6":{"ha":675,"x_min":42,"x_max":632,"o":"m 68 290 l 68 279 q 146 88 68 167 q 336 10 224 10 q 527 88 449 10 q 606 279 606 167 q 527 469 606 392 q 338 547 449 547 q 149 473 226 547 q 68 290 72 399 m 42 279 l 42 640 q 111 856 42 756 q 218 940 149 907 q 381 972 288 972 l 429 972 l 429 944 l 375 944 q 169 878 260 944 q 96 778 124 843 q 68 624 68 713 l 68 399 q 183 533 110 492 q 336 574 256 574 q 546 488 460 574 q 632 278 632 401 q 545 69 632 156 q 336 -17 458 -17 q 128 69 214 -17 q 42 279 42 156 z "},"7":{"ha":632,"x_min":42,"x_max":589,"o":"m 89 0 l 60 0 l 557 944 l 42 944 l 42 972 l 589 972 l 589 944 l 89 0 z "},"8":{"ha":660,"x_min":42,"x_max":617,"o":"m 332 544 q 372 544 332 544 q 475 602 413 544 q 538 749 538 660 q 479 898 538 838 q 331 958 421 958 q 183 898 242 958 q 125 749 125 838 q 188 603 125 661 q 332 544 251 544 m 407 536 q 559 432 501 511 q 617 267 617 353 q 535 64 617 144 q 331 -17 454 -17 q 124 64 207 -17 q 42 267 42 144 q 97 432 42 356 q 250 536 153 508 q 141 619 183 558 q 99 746 99 681 q 165 917 99 849 q 331 985 231 985 q 498 917 432 985 q 564 746 564 849 q 523 620 564 679 q 407 536 482 561 m 330 10 q 386 10 330 10 q 516 83 442 10 q 590 265 590 156 q 513 447 590 374 q 328 521 435 521 q 144 448 221 521 q 68 265 68 375 q 143 83 68 156 q 330 10 218 10 z "},"9":{"ha":675,"x_min":42,"x_max":632,"o":"m 606 678 l 606 689 q 528 880 606 801 q 338 958 450 958 q 147 880 225 958 q 68 689 68 801 q 147 499 68 576 q 336 421 225 421 q 524 495 447 421 q 606 678 601 569 m 293 0 l 244 0 l 244 28 l 299 28 q 503 92 415 28 q 578 191 550 126 q 606 344 606 256 l 606 569 q 491 435 564 476 q 338 394 418 394 q 128 481 214 394 q 42 689 42 567 q 128 898 42 811 q 337 985 214 985 q 546 899 460 985 q 632 689 632 813 l 632 328 q 561 115 632 214 q 456 32 525 64 q 293 0 386 0 z "}," ":{"ha":386,"x_min":0,"x_max":0,"o":""},"!":{"ha":264,"x_min":108,"x_max":153,"o":"m 145 6 q 142 3 145 6 q 131 0 139 0 q 116 6 122 0 q 110 21 110 13 q 116 35 110 29 q 131 42 122 42 q 145 35 139 42 q 151 21 151 29 q 145 6 151 13 m 142 167 l 121 167 l 108 961 q 116 980 108 974 q 132 986 124 986 q 153 961 153 986 l 142 167 z "},"\"":{"ha":592,"x_min":192,"x_max":397,"o":"m 224 711 l 201 711 l 192 997 q 199 1018 192 1013 q 212 1024 207 1024 q 224 1019 217 1024 q 232 997 232 1014 l 224 711 m 389 711 l 367 711 l 357 997 q 365 1018 357 1013 q 378 1024 372 1024 q 390 1019 383 1024 q 397 997 397 1014 l 389 711 z "},"#":{"ha":851,"x_min":47,"x_max":808,"o":"m 524 340 l 579 574 l 314 574 l 258 340 l 524 340 m 808 314 l 544 314 l 471 0 l 444 0 l 518 314 l 253 314 l 179 0 l 153 0 l 226 314 l 47 314 l 47 340 l 232 340 l 288 574 l 47 574 l 47 600 l 294 600 l 381 972 l 407 972 l 321 600 l 585 600 l 672 972 l 699 972 l 611 600 l 808 600 l 808 574 l 606 574 l 550 340 l 808 340 l 808 314 z "},"$":{"ha":750,"x_min":47,"x_max":707,"o":"m 361 536 l 361 958 q 175 897 249 953 q 101 743 101 840 q 211 596 101 651 q 361 536 268 567 m 386 500 l 386 10 q 597 72 517 13 q 678 260 678 132 q 619 392 678 338 q 475 469 571 435 q 386 500 442 482 m 386 -158 l 361 -158 l 361 -15 q 133 68 217 -11 q 47 247 50 147 l 78 247 q 151 88 78 163 q 361 10 225 14 l 361 508 q 131 617 181 567 q 72 756 72 672 q 147 910 72 840 q 361 985 221 979 l 361 1135 l 386 1135 l 386 986 q 588 944 500 986 l 576 917 q 388 960 493 960 l 386 960 l 386 529 q 606 436 556 472 q 694 331 676 385 q 707 260 707 299 q 628 61 707 135 q 386 -15 550 -12 l 386 -158 z "},"%":{"ha":922,"x_min":47,"x_max":879,"o":"m 372 690 q 396 716 372 690 q 419 810 419 742 q 372 930 419 878 q 247 982 325 982 q 122 930 169 982 q 75 810 75 878 q 122 690 75 742 q 247 638 169 638 q 372 690 325 638 m 389 668 q 360 639 389 668 q 247 610 331 610 q 106 668 164 610 q 47 810 47 726 q 106 951 47 893 q 247 1010 164 1010 q 389 951 331 1010 q 447 810 447 893 q 389 668 447 726 m 679 11 q 718 11 679 11 q 805 63 757 11 q 853 184 853 115 q 805 306 853 253 q 679 358 757 358 q 553 306 601 358 q 506 184 506 253 q 553 63 506 115 q 679 11 601 11 m 821 43 q 792 14 821 43 q 679 -15 763 -15 q 538 43 596 -15 q 479 185 479 101 q 538 326 479 268 q 679 385 596 385 q 821 326 763 385 q 879 185 879 268 q 821 43 879 101 m 88 1 l 69 24 l 826 1028 l 847 1010 l 88 1 z "},"&":{"ha":750,"x_min":49,"x_max":707,"o":"m 574 283 l 574 639 q 337 572 394 599 q 231 515 279 544 q 154 453 183 486 q 75 261 75 363 q 130 85 75 160 q 303 10 185 10 q 497 97 421 10 q 574 283 574 185 m 678 10 l 669 -15 q 574 157 574 15 q 448 24 514 63 q 296 -15 382 -15 q 106 72 171 -15 q 49 249 49 149 q 82 399 49 336 q 165 501 115 463 q 253 562 214 540 q 350 608 293 583 q 260 658 297 615 q 215 782 215 710 q 257 908 215 854 q 432 986 317 986 q 529 971 478 986 l 515 947 q 422 961 474 961 q 317 924 371 961 q 243 792 243 872 q 246 763 243 778 q 317 647 260 676 q 386 631 354 631 q 443 636 418 631 l 574 667 l 574 846 l 600 846 l 600 672 l 701 694 l 707 668 l 600 644 l 600 169 q 678 10 600 36 z "},"'":{"ha":228,"x_min":64,"x_max":104,"o":"m 94 818 l 72 818 l 64 990 q 71 1015 64 1010 q 83 1021 78 1021 q 97 1015 89 1021 q 104 990 104 1010 l 94 818 z "},"(":{"ha":376,"x_min":108,"x_max":265,"o":"m 265 -140 l 254 -165 q 142 -65 175 -119 q 108 99 108 -10 l 108 871 q 142 1034 108 979 q 254 1135 175 1089 l 264 1111 q 146 976 168 1058 q 135 883 135 936 l 135 90 q 200 -94 135 -36 q 231 -120 224 -115 q 265 -140 239 -125 z "},")":{"ha":376,"x_min":108,"x_max":265,"o":"m 119 -165 l 108 -140 q 142 -120 135 -125 q 174 -94 150 -115 q 208 -53 199 -72 q 239 90 239 11 l 239 883 q 194 1042 239 992 q 110 1111 158 1085 l 119 1135 q 232 1034 199 1089 q 265 871 265 979 l 265 99 q 232 -65 265 -10 q 119 -165 199 -119 z "},"*":{"ha":489,"x_min":42,"x_max":446,"o":"m 379 613 l 356 594 l 243 746 l 136 594 l 114 610 l 219 760 l 42 825 l 51 851 l 228 782 l 226 972 l 257 972 l 256 782 l 436 851 l 446 825 l 264 760 l 379 613 z "},"+":{"ha":535,"x_min":47,"x_max":492,"o":"m 492 549 l 283 549 l 283 354 l 257 354 l 257 549 l 47 549 l 47 574 l 257 574 l 257 757 l 283 757 l 283 574 l 492 574 l 492 549 z "},",":{"ha":247,"x_min":42,"x_max":149,"o":"m 64 -117 l 42 -101 q 98 -57 76 -82 q 124 -17 119 -32 l 128 -1 l 125 -1 q 107 22 107 3 q 128 40 107 40 q 149 19 149 40 q 64 -117 149 -47 z "},"-":{"ha":569,"x_min":63,"x_max":507,"o":"m 507 547 l 63 547 l 63 574 l 507 574 l 507 547 z "},".":{"ha":182,"x_min":42,"x_max":83,"o":"m 77 6 q 74 3 77 6 q 63 0 71 0 q 48 6 54 0 q 42 21 42 13 q 48 35 42 29 q 63 42 54 42 q 77 35 71 42 q 83 21 83 29 q 77 6 83 13 z "},"/":{"ha":563,"x_min":42,"x_max":519,"o":"m 69 -158 l 42 -158 l 492 1135 l 519 1135 l 69 -158 z "},":":{"ha":126,"x_min":42,"x_max":83,"o":"m 77 545 q 74 542 77 545 q 63 539 71 539 q 48 545 54 539 q 42 560 42 551 q 48 574 42 568 q 63 581 54 581 q 77 574 71 581 q 83 560 83 568 q 77 545 83 551 m 77 159 q 74 156 77 159 q 63 153 71 153 q 48 159 54 153 q 42 174 42 165 q 48 188 42 182 q 63 194 54 194 q 77 188 71 194 q 83 174 83 182 q 77 159 83 165 z "},";":{"ha":192,"x_min":42,"x_max":149,"o":"m 64 -114 l 42 -99 q 98 -54 76 -79 q 124 -14 119 -29 l 128 1 l 125 1 q 107 24 107 6 q 128 43 107 43 q 149 22 149 43 q 64 -114 149 -44 m 141 378 q 138 375 141 378 q 126 372 135 372 q 112 378 118 372 q 106 393 106 385 q 112 408 106 401 q 126 414 118 414 q 141 408 135 414 q 147 393 147 401 q 141 378 147 385 z "},"<":{"ha":490,"x_min":42,"x_max":447,"o":"m 428 111 l 42 497 l 42 499 l 428 885 l 447 867 l 75 497 l 447 131 l 428 111 z "},"=":{"ha":529,"x_min":42,"x_max":486,"o":"m 486 401 l 42 401 l 42 428 l 486 428 l 486 401 m 486 547 l 42 547 l 42 574 l 486 574 l 486 547 z "},">":{"ha":490,"x_min":42,"x_max":447,"o":"m 447 497 l 61 111 l 42 131 l 414 497 l 42 867 l 61 885 l 447 499 l 447 497 z "},"?":{"ha":578,"x_min":42,"x_max":533,"o":"m 287 6 q 284 3 287 6 q 272 0 281 0 q 258 6 264 0 q 251 21 251 13 q 258 35 251 29 q 272 42 264 42 q 287 35 281 42 q 293 21 293 29 q 287 6 293 13 m 285 165 l 258 165 l 258 257 q 281 372 258 319 q 332 455 304 425 q 400 526 360 485 q 469 608 440 567 q 507 728 507 663 q 487 840 507 793 q 414 923 467 888 q 277 958 361 958 q 131 900 193 958 q 68 739 68 842 l 42 739 q 106 914 42 843 q 289 985 171 985 q 419 947 361 985 q 533 746 533 876 q 482 585 533 660 q 415 503 456 546 q 349 435 374 461 q 304 360 324 410 q 285 246 285 311 l 285 165 z "},"@":{"ha":1000,"x_min":42,"x_max":957,"o":"m 719 150 l 719 532 q 428 608 565 608 q 364 603 394 608 q 275 546 311 592 q 239 419 239 500 l 239 288 q 281 163 239 208 q 454 103 333 103 q 719 150 575 103 m 453 75 q 213 283 228 75 l 213 424 q 335 624 213 578 q 426 639 375 639 q 719 560 544 639 q 654 717 721 657 q 428 779 585 779 q 170 702 272 779 q 68 475 68 625 l 68 264 q 173 24 68 115 q 453 -67 278 -67 q 767 17 649 -67 q 885 225 885 101 l 885 517 q 895 622 885 592 q 946 681 906 653 l 957 657 q 911 560 911 636 l 911 238 q 869 83 911 150 q 757 -19 826 17 q 449 -92 618 -92 q 161 0 281 -92 q 42 267 42 92 l 42 471 q 165 731 42 642 q 438 806 271 806 q 703 703 626 806 q 747 550 747 643 l 799 528 l 799 499 l 747 521 l 747 126 q 453 75 558 75 z "},"A":{"ha":732,"x_min":17,"x_max":718,"o":"m 543 417 l 367 917 l 190 417 l 543 417 m 718 0 l 689 0 l 553 390 l 181 390 l 43 0 l 17 0 l 357 972 l 376 972 l 718 0 z "},"B":{"ha":764,"x_min":108,"x_max":710,"o":"m 135 26 l 425 26 q 617 96 550 26 q 683 285 683 165 q 616 476 683 404 q 429 547 549 547 l 135 547 l 135 26 m 135 574 l 465 574 q 578 619 528 574 q 633 754 633 668 q 578 893 633 840 q 404 946 522 946 l 135 946 l 135 574 m 428 0 l 108 0 l 108 972 l 415 972 q 594 915 529 972 q 660 750 660 857 q 626 635 660 689 q 539 561 593 582 q 538 558 538 560 l 538 557 q 710 290 710 489 q 653 97 710 179 q 566 26 624 53 q 428 0 508 0 z "},"C":{"ha":597,"x_min":92,"x_max":593,"o":"m 361 10 q 585 57 463 10 l 593 32 q 368 -14 475 -14 q 301 -10 346 -14 q 205 22 256 -6 q 123 108 154 49 q 92 254 92 167 l 92 700 q 122 860 92 806 q 213 951 151 914 q 361 986 274 986 q 558 940 474 986 l 547 917 q 365 960 450 960 q 256 941 303 960 q 182 897 208 922 q 137 824 156 871 q 118 713 118 776 l 118 257 q 155 108 118 167 q 247 29 192 49 q 361 10 303 10 z "},"D":{"ha":800,"x_min":108,"x_max":692,"o":"m 665 297 l 665 650 q 584 872 665 799 q 383 944 503 944 l 135 944 l 135 28 l 383 28 q 453 31 424 28 q 526 48 482 33 q 597 90 569 63 q 644 170 624 117 q 665 297 665 224 m 397 0 l 108 0 l 108 974 l 369 974 q 609 888 526 974 q 692 658 692 801 l 692 278 q 397 0 692 0 z "},"E":{"ha":646,"x_min":108,"x_max":572,"o":"m 569 0 l 108 0 l 108 972 l 572 972 l 572 946 l 135 946 l 135 574 l 451 574 l 442 547 l 135 547 l 135 26 l 569 26 l 569 0 z "},"F":{"ha":626,"x_min":108,"x_max":572,"o":"m 136 0 l 108 0 l 108 972 l 572 972 l 572 944 l 136 944 l 136 574 l 424 574 l 413 547 l 136 547 l 136 0 z "},"G":{"ha":746,"x_min":90,"x_max":661,"o":"m 547 915 q 364 960 444 960 q 185 897 250 960 q 137 816 157 869 q 117 690 117 763 l 117 260 q 189 82 117 151 q 390 13 261 13 q 576 82 518 13 q 635 253 635 151 l 635 390 l 481 390 l 469 417 l 661 417 l 661 0 l 635 0 l 635 122 q 383 -14 571 -14 q 176 56 261 -14 q 90 263 90 125 l 90 699 q 211 950 90 876 q 360 985 274 985 q 557 939 467 985 l 547 915 z "},"H":{"ha":817,"x_min":108,"x_max":706,"o":"m 706 0 l 679 0 l 679 547 l 135 547 l 135 0 l 108 0 l 108 972 l 135 972 l 135 574 l 679 574 l 679 972 l 706 972 l 706 0 z "},"I":{"ha":268,"x_min":42,"x_max":188,"o":"m 188 0 l 161 0 l 161 943 l 42 946 l 42 972 l 188 972 l 188 0 z "},"J":{"ha":246,"x_min":4,"x_max":157,"o":"m 13 -51 l 4 -26 q 132 164 132 -8 l 132 943 l 15 946 l 15 972 l 157 972 l 157 169 q 124 14 157 65 q 13 -51 90 -37 z "},"K":{"ha":665,"x_min":110,"x_max":661,"o":"m 661 0 l 632 0 l 271 560 l 136 389 l 136 0 l 110 0 l 110 974 l 136 974 l 136 428 l 558 974 l 589 974 l 288 581 l 661 0 z "},"L":{"ha":611,"x_min":108,"x_max":610,"o":"m 610 0 l 108 0 l 108 972 l 135 972 l 135 28 l 610 28 l 610 0 z "},"M":{"ha":964,"x_min":108,"x_max":853,"o":"m 853 0 l 828 0 l 828 900 l 492 0 l 467 0 l 133 900 l 133 0 l 108 0 l 108 972 l 133 972 l 481 42 l 828 972 l 853 972 l 853 0 z "},"N":{"ha":903,"x_min":108,"x_max":792,"o":"m 792 0 l 768 0 l 133 931 l 133 0 l 108 0 l 108 972 l 133 972 l 768 44 l 768 972 l 792 972 l 792 0 z "},"O":{"ha":763,"x_min":88,"x_max":671,"o":"m 644 256 l 644 708 q 578 897 644 828 q 379 965 511 965 q 181 895 247 965 q 114 706 114 825 l 114 256 q 192 73 114 135 q 381 11 269 11 q 568 69 492 11 q 644 256 644 128 m 671 703 l 671 257 q 585 51 671 117 q 381 -15 500 -15 q 174 51 261 -15 q 88 257 88 117 l 88 704 q 166 921 88 847 q 382 994 244 994 q 595 917 519 994 q 671 703 671 839 z "},"P":{"ha":765,"x_min":108,"x_max":711,"o":"m 135 0 l 108 0 l 108 972 l 450 972 q 647 892 582 972 q 711 675 711 811 q 432 390 711 390 l 135 390 l 135 0 m 135 417 l 429 417 q 685 675 685 417 q 628 872 685 799 q 451 944 572 944 l 135 944 l 135 417 z "},"Q":{"ha":763,"x_min":88,"x_max":671,"o":"m 643 258 l 643 717 q 569 903 643 840 q 381 967 494 967 q 192 907 268 967 q 117 717 117 847 l 117 256 q 142 139 117 189 q 292 22 183 53 q 354 11 332 11 q 381 11 376 11 q 375 113 375 44 l 375 242 l 403 242 l 404 113 q 411 13 404 51 q 582 87 521 18 q 643 258 643 156 m 594 -104 l 594 -131 q 385 -15 422 -131 q 174 51 260 -15 q 88 257 88 118 l 88 704 q 166 921 88 847 q 382 994 244 994 q 595 917 519 994 q 671 703 671 839 l 671 257 q 602 66 671 133 q 417 -15 533 -1 q 594 -104 436 -103 z "},"R":{"ha":783,"x_min":108,"x_max":713,"o":"m 136 417 l 439 417 q 624 493 565 417 q 683 686 683 569 q 622 874 683 803 q 439 944 560 944 l 136 944 l 136 417 m 713 0 l 683 0 l 496 393 q 461 390 471 390 l 136 390 l 136 0 l 108 0 l 108 972 l 440 972 q 644 892 578 972 q 711 675 711 811 q 678 525 711 603 q 619 449 660 482 q 522 399 579 415 l 713 0 z "},"S":{"ha":779,"x_min":51,"x_max":711,"o":"m 51 247 l 82 247 q 159 85 82 161 q 375 10 236 10 q 598 69 514 10 q 682 260 682 129 q 637 377 682 328 q 525 451 592 426 q 379 504 458 476 q 233 557 300 532 q 122 631 167 582 q 76 747 76 679 q 157 915 76 844 q 389 986 238 986 q 592 944 504 986 l 581 917 q 383 960 497 960 q 188 903 269 960 q 106 743 106 846 q 168 626 106 674 q 319 551 231 579 q 497 492 408 524 q 649 403 586 461 q 711 260 711 346 q 631 59 711 133 q 389 -15 550 -15 q 141 65 228 -15 q 51 247 54 144 z "},"T":{"ha":558,"x_min":0,"x_max":558,"o":"m 289 0 l 264 0 l 263 944 l 0 944 l 0 972 l 558 972 l 558 944 l 289 944 l 289 0 z "},"U":{"ha":786,"x_min":103,"x_max":688,"o":"m 661 256 l 661 974 l 688 974 l 688 258 q 662 131 688 185 q 592 47 636 76 q 500 4 549 18 q 396 -10 451 -10 q 291 4 340 -10 q 198 47 242 18 q 128 131 154 76 q 103 258 103 185 l 103 974 l 129 974 l 129 256 q 154 140 129 189 q 221 66 179 92 q 307 28 263 40 q 399 17 351 17 q 489 28 446 17 q 572 66 532 40 q 637 141 613 92 q 661 256 661 190 z "},"V":{"ha":826,"x_min":108,"x_max":772,"o":"m 457 0 l 426 0 l 108 972 l 135 972 l 440 38 l 746 972 l 772 972 l 457 0 z "},"W":{"ha":1129,"x_min":108,"x_max":1075,"o":"m 824 0 l 794 0 l 593 907 l 392 0 l 363 0 l 108 972 l 138 972 l 376 50 l 579 972 l 607 972 l 810 49 l 1044 972 l 1075 972 l 824 0 z "},"X":{"ha":807,"x_min":49,"x_max":753,"o":"m 753 4 l 722 0 l 401 481 l 83 0 l 49 0 l 386 506 l 75 972 l 106 972 l 401 531 l 697 972 l 731 972 l 419 506 l 753 4 z "},"Y":{"ha":761,"x_min":83,"x_max":699,"o":"m 554 -10 l 546 15 q 570 22 558 15 q 594 35 582 29 q 614 48 607 42 q 631 65 621 54 q 648 90 642 76 q 661 119 654 103 q 672 211 672 153 l 672 475 q 551 371 631 401 q 401 340 472 340 q 169 413 254 340 q 83 629 83 486 l 83 972 l 110 972 l 110 636 q 182 437 110 507 q 401 367 254 367 q 586 423 513 367 q 672 563 660 479 l 672 972 l 699 972 l 699 203 q 554 -10 699 26 z "},"Z":{"ha":764,"x_min":43,"x_max":719,"o":"m 719 0 l 43 0 l 43 26 l 678 946 l 63 946 l 61 972 l 711 972 l 711 946 l 76 26 l 719 26 l 719 0 z "},"[":{"ha":443,"x_min":108,"x_max":332,"o":"m 332 -158 l 108 -158 l 108 1135 l 332 1135 l 332 1111 l 135 1110 l 135 -132 l 332 -133 l 332 -158 z "},"\\":{"ha":640,"x_min":108,"x_max":586,"o":"m 586 -158 l 558 -158 l 108 1135 l 136 1135 l 586 -158 z "},"]":{"ha":443,"x_min":108,"x_max":332,"o":"m 332 -158 l 108 -158 l 108 -133 l 306 -132 l 306 1110 l 108 1111 l 108 1135 l 332 1135 l 332 -158 z "},"^":{"ha":565,"x_min":108,"x_max":511,"o":"m 490 1031 l 313 1208 l 128 1032 l 108 1053 l 314 1249 l 511 1053 l 490 1031 z "},"_":{"ha":714,"x_min":106,"x_max":550,"o":"m 550 -26 l 106 -26 l 106 0 l 550 0 l 550 -26 z "},"`":{"ha":308,"x_min":64,"x_max":185,"o":"m 185 817 l 158 817 l 71 974 q 64 994 64 985 q 73 1008 64 1004 q 88 1013 82 1013 q 108 994 101 1013 l 185 817 z "},"a":{"ha":636,"x_min":51,"x_max":586,"o":"m 108 109 q 123 86 108 109 q 182 41 138 63 q 283 15 226 19 q 394 10 339 10 q 560 25 449 10 l 560 449 q 336 529 471 513 q 274 533 306 533 q 211 528 243 533 q 116 470 154 517 q 78 346 78 424 l 78 225 q 108 109 78 156 m 278 558 q 560 481 439 558 q 311 681 560 681 q 294 681 303 681 l 297 707 q 464 681 410 707 q 515 650 493 665 q 550 610 538 635 q 571 566 563 585 q 582 515 579 547 q 586 414 586 467 l 586 0 q 356 -14 442 -14 q 51 235 51 -14 l 51 350 q 153 533 51 483 q 278 558 204 558 z "},"b":{"ha":675,"x_min":108,"x_max":621,"o":"m 306 10 q 594 217 594 10 l 594 476 q 542 621 594 569 q 411 679 489 672 q 357 682 385 682 q 135 635 229 682 l 135 29 q 306 10 224 10 m 135 663 q 336 707 228 707 q 503 681 444 707 q 621 481 621 626 l 621 218 q 513 25 621 81 q 329 -17 431 -17 q 108 0 228 -17 l 108 972 l 135 972 l 135 663 z "},"c":{"ha":532,"x_min":50,"x_max":497,"o":"m 76 235 q 113 99 75 151 q 209 28 150 46 q 338 11 268 11 q 490 35 407 11 l 497 8 q 336 -15 408 -15 q 194 7 264 -15 q 50 250 50 54 l 50 428 q 89 593 50 526 q 308 708 156 708 q 494 664 400 708 l 485 636 q 310 681 400 681 q 206 662 258 681 q 115 583 153 643 q 76 436 76 524 l 76 235 z "},"d":{"ha":642,"x_min":75,"x_max":588,"o":"m 390 10 q 561 29 472 10 l 561 635 q 339 682 467 682 q 283 679 311 682 q 154 621 207 672 q 101 476 101 569 l 101 217 q 390 10 101 10 m 193 681 q 360 707 251 707 q 561 663 468 707 l 561 972 l 588 972 l 588 0 q 367 -17 468 -17 q 183 25 265 -17 q 75 218 75 81 l 75 481 q 193 681 75 626 z "},"e":{"ha":603,"x_min":49,"x_max":549,"o":"m 522 369 l 522 476 q 458 634 522 586 q 301 682 393 682 q 142 631 210 682 q 75 472 75 581 l 75 344 l 522 369 m 274 6 q 501 72 383 6 l 514 49 q 290 -17 407 -17 q 49 186 49 -17 l 49 471 q 119 646 49 583 q 304 708 189 708 q 484 647 419 708 q 549 475 549 585 l 549 343 l 75 319 l 75 183 q 135 49 75 92 q 274 6 194 6 z "},"f":{"ha":417,"x_min":108,"x_max":363,"o":"m 135 0 l 108 0 l 108 763 q 132 882 108 832 q 192 953 156 932 q 314 988 251 988 q 363 982 339 988 l 358 958 q 321 961 339 961 q 200 922 251 961 q 135 763 135 874 l 135 696 l 344 696 l 333 669 l 135 669 l 135 0 z "},"g":{"ha":622,"x_min":51,"x_max":575,"o":"m 549 222 l 549 551 q 319 682 497 682 q 139 615 207 682 q 95 546 113 590 q 78 444 78 501 l 78 232 q 137 70 78 132 q 310 8 196 8 q 508 97 436 8 q 549 222 549 147 m 426 -292 l 418 -267 q 466 -246 450 -254 q 506 -218 482 -237 q 549 -87 549 -181 l 549 104 q 310 -17 468 -17 q 119 50 188 -17 q 51 244 51 117 l 51 451 q 125 641 51 574 q 319 708 199 708 q 549 607 476 708 l 549 696 l 575 696 l 575 -89 q 540 -219 575 -172 q 426 -292 506 -267 z "},"h":{"ha":685,"x_min":89,"x_max":601,"o":"m 115 660 q 318 708 210 708 q 483 679 426 708 q 601 481 601 625 l 601 0 l 575 0 l 575 482 q 526 617 575 567 q 404 678 476 668 q 340 682 372 682 q 115 631 214 682 l 115 0 l 89 0 l 89 972 l 115 972 l 115 660 z "},"i":{"ha":257,"x_min":108,"x_max":146,"o":"m 146 967 q 146 958 146 967 q 127 949 146 949 q 108 967 108 949 q 127 986 108 986 q 146 967 146 986 m 140 0 l 114 0 l 114 696 l 140 696 l 140 0 z "},"j":{"ha":272,"x_min":-4,"x_max":151,"o":"m 151 967 q 151 958 151 967 q 133 949 151 949 q 114 967 114 949 q 133 986 114 986 q 151 967 151 986 m 119 -114 l 119 669 l 15 669 l 0 696 l 146 696 l 146 -115 q 0 -290 146 -268 l -4 -265 q 35 -255 11 -265 q 76 -230 60 -244 q 106 -185 93 -215 q 119 -114 119 -154 z "},"k":{"ha":608,"x_min":93,"x_max":603,"o":"m 603 0 l 571 0 l 257 508 l 119 385 l 119 0 l 93 0 l 93 972 l 119 972 l 119 418 l 449 722 l 468 704 l 276 528 q 603 0 424 283 z "},"l":{"ha":246,"x_min":108,"x_max":135,"o":"m 135 0 l 108 0 l 108 972 l 135 972 l 135 0 z "},"m":{"ha":1029,"x_min":108,"x_max":975,"o":"m 975 0 l 949 0 l 949 478 q 919 600 949 551 q 847 664 889 649 q 776 679 804 679 q 619 646 690 679 l 544 608 q 560 463 560 583 l 560 0 l 533 0 l 533 522 q 489 636 533 596 q 346 681 438 681 l 247 669 q 135 631 182 657 l 135 0 l 108 0 l 108 696 l 135 696 l 135 661 q 338 707 236 707 l 371 706 q 533 631 489 697 q 627 678 563 647 q 754 710 692 710 q 865 686 817 710 q 975 481 975 632 l 975 0 z "},"n":{"ha":694,"x_min":89,"x_max":601,"o":"m 115 660 q 318 708 210 708 q 483 679 426 708 q 601 481 601 625 l 601 0 l 575 0 l 575 482 q 525 615 575 565 q 336 682 460 682 q 115 631 213 682 l 115 0 l 89 0 l 89 696 l 115 696 l 115 660 z "},"o":{"ha":640,"x_min":68,"x_max":586,"o":"m 560 256 l 560 444 q 494 624 560 564 q 328 685 428 685 q 161 624 228 685 q 94 444 94 564 l 94 256 q 151 83 94 154 q 327 11 208 11 q 503 81 446 11 q 560 256 560 151 m 586 439 l 586 256 q 522 63 586 139 q 329 -14 458 -14 q 134 63 200 -14 q 68 256 68 140 l 68 439 q 135 641 68 571 q 326 711 203 711 q 518 638 450 711 q 586 439 586 565 z "},"p":{"ha":686,"x_min":108,"x_max":632,"o":"m 606 231 l 606 442 q 581 561 606 511 q 517 636 557 611 q 351 681 442 681 q 175 617 240 681 q 135 551 147 590 l 135 217 q 199 65 135 121 q 374 10 264 10 q 567 100 497 10 q 606 231 606 151 m 135 -292 l 108 -282 l 108 696 l 135 696 l 135 613 q 231 685 171 663 q 350 707 292 707 q 562 632 492 707 q 632 436 632 557 l 632 244 q 559 51 632 118 q 369 -17 486 -17 q 135 107 197 -17 l 135 -292 z "},"q":{"ha":622,"x_min":51,"x_max":575,"o":"m 549 217 l 549 551 q 508 617 536 590 q 447 658 481 644 q 340 681 389 681 q 249 669 290 681 q 168 633 208 658 q 103 558 128 607 q 78 442 78 508 l 78 231 q 117 100 78 151 q 303 10 186 10 q 484 65 419 10 q 549 217 549 121 m 575 -292 l 549 -282 l 549 107 q 314 -17 486 -17 q 124 51 197 -17 q 51 244 51 118 l 51 436 q 122 632 51 557 q 333 707 192 707 q 452 685 392 707 q 549 613 513 663 l 549 696 l 575 696 l 575 -292 z "},"r":{"ha":461,"x_min":85,"x_max":432,"o":"m 111 0 l 85 0 l 85 696 l 111 696 l 111 622 q 326 707 192 707 q 432 696 375 707 l 424 667 q 319 682 372 682 q 211 658 265 682 q 111 554 111 618 l 111 0 z "},"s":{"ha":599,"x_min":50,"x_max":550,"o":"m 447 647 q 299 685 381 685 q 158 645 217 685 q 100 535 100 606 q 151 441 100 472 q 267 391 201 410 q 397 350 332 372 q 506 284 461 328 q 550 166 550 240 q 488 35 550 92 q 308 -21 426 -21 q 121 36 189 -21 q 50 176 53 93 l 76 176 q 140 56 82 106 q 301 6 199 6 q 464 53 404 6 q 524 165 524 100 q 480 269 524 231 q 373 328 436 308 q 244 368 310 349 q 75 507 88 415 q 74 532 74 519 q 126 653 74 594 q 304 713 178 713 q 386 702 347 713 q 442 681 425 692 l 460 671 l 447 647 z "},"t":{"ha":338,"x_min":61,"x_max":306,"o":"m 217 7 l 208 -18 q 96 53 131 4 q 61 183 61 101 l 61 972 l 88 972 l 88 696 l 306 696 l 293 669 l 88 669 l 88 183 q 117 68 88 107 q 217 7 147 29 z "},"u":{"ha":621,"x_min":50,"x_max":568,"o":"m 568 0 l 542 0 l 542 108 q 311 -15 472 -15 q 50 244 50 -15 l 50 696 l 76 696 l 76 244 q 131 72 76 132 q 298 13 185 13 q 476 69 411 13 q 542 222 542 126 l 542 696 l 568 696 l 568 0 z "},"v":{"ha":597,"x_min":25,"x_max":560,"o":"m 301 0 l 283 0 l 25 696 l 51 696 l 292 51 l 533 696 l 560 696 l 301 0 z "},"w":{"ha":968,"x_min":25,"x_max":899,"o":"m 665 0 l 647 0 l 461 632 l 276 0 l 260 0 l 25 696 l 53 696 l 265 51 l 453 696 l 468 696 l 657 53 l 871 696 l 899 696 l 665 0 z "},"x":{"ha":615,"x_min":76,"x_max":540,"o":"m 536 0 l 507 0 l 311 325 l 107 0 l 76 0 l 296 349 l 85 696 l 117 696 l 311 369 l 510 696 l 540 696 l 328 347 l 536 0 z "},"y":{"ha":657,"x_min":51,"x_max":610,"o":"m 426 -292 l 418 -267 q 547 -87 547 -233 l 547 121 q 442 15 510 46 q 306 -17 374 -17 q 117 49 183 -17 q 51 244 51 115 l 51 696 l 78 696 l 78 231 q 133 70 78 131 q 300 10 188 10 q 479 72 413 10 q 546 231 546 135 l 546 518 q 555 646 546 603 q 599 708 564 689 l 610 686 q 572 561 572 658 l 572 -85 q 539 -218 572 -169 q 426 -292 506 -267 z "},"z":{"ha":672,"x_min":108,"x_max":618,"o":"m 618 0 l 108 0 l 108 26 l 557 669 l 121 669 l 121 696 l 589 696 l 589 669 l 140 26 l 618 26 l 618 0 z "},"{":{"ha":424,"x_min":108,"x_max":369,"o":"m 369 -137 l 358 -161 q 240 -51 268 -110 q 211 140 211 8 l 211 343 q 189 403 211 369 q 152 451 167 438 q 108 492 138 465 q 175 561 142 518 q 208 642 208 604 l 208 861 q 238 1033 208 976 q 356 1142 267 1090 l 365 1118 q 324 1092 338 1104 q 294 1066 311 1081 q 269 1037 276 1051 q 253 1000 263 1022 q 235 890 235 961 l 235 633 q 144 492 235 582 q 174 463 161 475 q 199 435 186 450 q 219 408 213 419 q 238 351 238 376 l 238 106 q 266 -44 238 8 q 369 -137 294 -97 z "},"|":{"ha":244,"x_min":108,"x_max":133,"o":"m 133 -158 l 108 -158 l 108 1135 l 133 1135 l 133 -158 z "},"}":{"ha":424,"x_min":108,"x_max":369,"o":"m 119 -161 l 108 -137 q 212 -44 183 -97 q 240 106 240 8 l 240 351 q 299 457 240 399 l 333 492 q 243 633 243 582 l 243 890 q 229 992 243 961 q 208 1037 215 1022 q 184 1066 201 1051 q 161 1086 167 1081 q 113 1118 140 1104 l 122 1142 q 240 1033 211 1090 q 269 861 269 976 l 269 642 q 303 561 269 604 q 369 492 336 518 q 326 451 340 465 q 289 403 311 438 q 267 343 267 369 l 267 140 q 238 -51 267 8 q 119 -161 210 -110 z "},"~":{"ha":706,"x_min":108,"x_max":651,"o":"m 263 521 q 342 507 297 521 q 435 476 386 493 q 540 458 485 458 q 638 503 596 458 l 651 478 q 528 431 600 431 q 433 447 482 431 q 342 478 385 464 q 264 492 299 492 q 125 428 182 492 l 108 451 q 263 521 171 521 z "},"¡":{"ha":264,"x_min":108,"x_max":153,"o":"m 145 951 q 142 948 145 951 q 131 944 139 944 q 116 951 122 944 q 110 965 110 957 q 116 980 110 974 q 131 986 122 986 q 145 980 139 986 q 151 965 151 974 q 145 951 151 957 m 108 25 l 121 819 l 142 819 l 153 25 q 132 0 153 0 q 116 6 124 0 q 108 25 108 13 z "},"¢":{"ha":610,"x_min":108,"x_max":556,"o":"m 356 11 l 356 681 q 197 615 258 676 q 135 436 135 553 l 135 235 q 194 72 133 125 q 356 11 254 18 m 379 -158 l 356 -158 l 356 -12 q 264 3 308 -11 q 145 88 182 31 q 108 250 108 146 l 108 428 q 177 633 108 561 q 356 708 246 706 l 356 865 l 379 865 l 379 708 q 553 664 464 704 l 543 636 q 379 681 463 678 l 379 11 q 388 11 383 11 q 549 35 461 11 l 556 8 q 389 -14 468 -14 q 379 -14 383 -14 l 379 -158 z "},"£":{"ha":663,"x_min":108,"x_max":608,"o":"m 608 0 l 108 0 l 108 21 q 222 131 178 56 q 268 285 267 206 q 251 413 268 360 q 232 471 233 467 l 140 471 l 140 497 l 222 497 q 174 715 174 646 q 249 910 174 836 q 431 985 325 985 q 593 950 538 985 l 583 924 q 442 958 521 958 q 265 886 331 958 q 200 713 200 814 q 250 497 200 650 l 585 497 l 585 471 l 261 471 q 296 294 296 376 q 258 139 296 211 q 165 28 219 67 l 608 28 l 608 0 z "},"¤":{"ha":650,"x_min":108,"x_max":596,"o":"m 351 235 q 397 235 351 235 q 504 297 442 235 q 567 448 567 358 q 503 601 567 538 q 351 664 440 664 q 198 600 261 664 q 135 447 135 536 q 198 297 135 358 q 351 235 261 235 m 558 221 l 513 267 q 352 206 451 206 q 188 267 253 206 l 146 219 l 125 240 l 168 286 q 108 448 108 353 q 168 611 108 543 l 128 654 l 147 674 l 188 631 q 263 676 218 658 q 351 693 308 693 q 515 631 453 693 l 557 674 l 575 653 l 535 610 q 596 449 596 544 q 533 288 596 353 l 579 242 l 558 221 z "},"¥":{"ha":776,"x_min":67,"x_max":722,"o":"m 406 0 l 381 0 l 381 383 l 174 383 l 174 410 l 381 410 l 381 472 l 174 472 l 174 499 l 365 499 l 67 972 l 99 972 l 393 503 l 690 972 l 722 972 l 421 499 l 618 499 l 618 472 l 406 472 l 406 410 l 618 410 l 618 383 l 406 383 l 406 0 z "},"§":{"ha":822,"x_min":108,"x_max":768,"o":"m 715 144 q 725 167 717 150 q 694 340 768 261 q 589 414 654 385 q 456 467 524 443 q 197 600 272 532 q 163 502 158 561 q 213 403 168 443 q 324 339 257 364 q 463 292 392 314 q 715 144 646 232 m 108 -11 l 135 -11 q 222 -180 140 -112 q 442 -247 304 -247 q 661 -181 579 -247 q 743 0 743 -114 q 683 145 743 86 q 536 236 624 204 q 361 297 449 268 q 208 375 274 326 q 136 508 136 428 q 178 618 136 567 q 133 760 133 674 q 214 918 133 847 q 446 989 294 989 q 649 947 561 989 l 639 924 q 444 965 558 965 q 244 912 329 965 q 158 744 158 858 q 220 615 158 669 q 371 526 282 560 q 549 459 460 493 q 701 370 639 425 q 765 238 764 315 q 732 126 765 189 q 768 8 768 71 q 683 -196 768 -118 q 442 -274 599 -274 q 198 -194 285 -274 q 108 -11 111 -114 z "},"¨":{"ha":308,"x_min":24,"x_max":286,"o":"m 280 978 q 277 975 280 978 q 265 972 274 972 q 251 978 257 972 q 244 993 244 985 q 251 1008 244 1001 q 265 1014 257 1014 q 280 1008 274 1014 q 286 993 286 1001 q 280 978 286 985 m 59 977 q 56 974 59 977 q 44 971 53 971 q 30 977 36 971 q 24 992 24 983 q 30 1006 24 1000 q 44 1013 36 1013 q 59 1006 53 1013 q 65 992 65 1000 q 59 977 65 983 z "},"©":{"ha":1111,"x_min":35,"x_max":1075,"o":"m 806 243 l 832 243 q 735 83 810 143 q 563 22 660 22 q 345 113 425 22 q 265 340 265 203 q 344 570 265 476 q 560 664 424 664 q 738 604 661 664 q 831 449 814 544 l 806 449 q 730 578 792 518 q 561 638 668 638 q 362 549 432 638 q 292 346 292 460 q 315 210 292 274 q 403 97 339 146 q 565 49 467 49 q 728 110 663 49 q 806 243 794 172 m 63 344 q 63 238 63 344 q 211 -10 63 131 q 555 -150 360 -150 q 899 -8 750 -150 q 1049 342 1049 133 q 904 694 1049 551 q 558 838 760 838 q 210 698 357 838 q 63 344 63 558 m 1075 344 q 1075 234 1075 344 q 924 -26 1075 124 q 556 -176 772 -176 q 188 -26 340 -176 q 35 344 35 124 q 186 714 35 565 q 556 863 338 863 q 925 714 775 863 q 1075 344 1075 565 z "},"ª":{"ha":536,"x_min":108,"x_max":482,"o":"m 456 761 q 247 851 336 851 q 175 828 204 851 q 135 713 135 792 q 149 634 135 667 q 200 576 163 601 q 305 549 239 549 q 456 563 371 549 l 456 761 m 244 875 q 456 790 339 875 q 407 923 456 886 q 249 963 358 960 l 251 985 q 435 933 388 985 q 482 771 482 881 l 482 543 q 343 528 386 528 q 258 532 300 528 q 183 556 215 536 q 130 617 151 575 q 108 717 108 658 q 133 815 108 776 q 244 875 172 875 z "},"«":{"ha":726,"x_min":58,"x_max":643,"o":"m 624 111 l 364 371 l 364 372 l 624 632 l 642 613 l 400 372 l 643 133 l 624 111 m 318 111 l 58 371 l 58 372 l 318 632 l 338 613 l 97 372 l 338 133 l 318 111 z "},"­":{"ha":569,"x_min":63,"x_max":507,"o":"m 507 547 l 63 547 l 63 574 l 507 574 l 507 547 z "},"®":{"ha":1111,"x_min":35,"x_max":1075,"o":"m 61 344 q 61 238 61 344 q 208 -10 61 131 q 558 -150 356 -150 q 905 -9 761 -150 q 1049 345 1049 132 q 905 697 1049 558 q 556 836 761 836 q 206 697 351 836 q 61 344 61 558 m 1075 344 q 1075 234 1075 344 q 924 -26 1075 124 q 556 -176 772 -176 q 188 -26 340 -176 q 35 344 35 124 q 186 714 35 565 q 556 863 338 863 q 925 714 775 863 q 1075 344 1075 565 m 393 344 l 613 344 q 703 364 663 344 q 776 483 776 399 q 724 601 776 567 q 604 635 671 635 l 393 635 l 393 344 m 815 54 l 783 54 l 614 318 l 393 318 l 393 54 l 367 54 l 367 661 l 607 661 q 747 613 693 661 q 801 490 801 564 q 758 372 801 415 q 644 321 714 329 l 815 54 z "},"¯":{"ha":469,"x_min":108,"x_max":415,"o":"m 415 914 l 108 914 l 108 940 l 415 940 l 415 914 z "},"°":{"ha":563,"x_min":108,"x_max":508,"o":"m 434 664 q 458 690 434 664 q 482 785 482 717 q 434 906 482 853 q 308 958 386 958 q 183 906 231 958 q 135 785 135 853 q 183 664 135 717 q 308 611 231 611 q 434 664 386 611 m 450 643 q 421 614 450 643 q 308 585 392 585 q 167 643 225 585 q 108 785 108 701 q 167 926 108 868 q 308 985 225 985 q 450 926 392 985 q 508 785 508 868 q 450 643 508 701 z "},"±":{"ha":613,"x_min":108,"x_max":558,"o":"m 553 329 l 108 329 l 108 357 l 325 357 l 325 547 l 114 547 l 114 574 l 325 574 l 325 757 l 351 757 l 351 574 l 558 574 l 558 547 l 351 547 l 351 357 l 553 357 l 553 329 z "},"´":{"ha":308,"x_min":64,"x_max":185,"o":"m 90 817 l 64 817 l 140 994 q 161 1013 147 1013 q 185 993 185 1013 q 178 974 185 985 l 90 817 z "},"µ":{"ha":661,"x_min":51,"x_max":614,"o":"m 614 18 l 596 -3 q 579 7 589 -3 q 561 38 569 17 q 553 83 553 60 q 339 -15 486 -15 q 78 90 192 -15 l 78 -282 l 51 -279 l 51 696 l 78 696 l 78 126 q 136 72 92 106 q 322 8 224 8 q 487 50 421 8 q 553 189 553 92 l 553 703 l 579 708 l 579 88 q 614 18 579 28 z "},"¶":{"ha":938,"x_min":108,"x_max":883,"o":"m 883 -276 l 858 -276 l 858 1013 l 711 1013 l 711 -275 l 686 -275 l 686 342 l 354 342 q 213 378 261 342 q 169 417 188 397 q 140 471 150 438 q 122 529 129 504 q 113 596 115 554 q 108 728 108 658 q 172 954 108 867 q 367 1042 236 1042 l 883 1042 l 883 -276 z "},"¸":{"ha":569,"x_min":106,"x_max":406,"o":"m 210 -78 q 281 -64 236 -64 q 366 -86 326 -64 q 406 -172 406 -108 q 354 -263 406 -235 q 240 -292 303 -292 q 106 -265 178 -292 l 119 -236 q 232 -268 169 -268 q 337 -242 294 -268 q 379 -167 379 -217 q 331 -97 379 -117 q 281 -89 308 -89 q 221 -101 254 -89 l 164 -122 l 156 -108 l 240 0 l 268 0 l 210 -78 z "},"»":{"ha":721,"x_min":29,"x_max":614,"o":"m 308 371 l 49 111 l 29 133 l 272 372 l 31 613 l 49 632 l 308 372 l 308 371 m 614 371 l 354 111 l 335 133 l 575 372 l 335 613 l 354 632 l 614 372 l 614 371 z "},"¿":{"ha":656,"x_min":110,"x_max":601,"o":"m 385 949 q 382 946 385 949 q 371 943 379 943 q 356 949 363 943 q 350 964 350 956 q 356 978 350 972 q 371 985 363 985 q 385 978 379 985 q 392 964 392 972 q 385 949 392 956 m 575 246 l 601 246 q 537 71 601 142 q 354 0 472 0 q 224 36 282 0 q 110 239 110 108 q 161 400 110 325 q 228 481 188 439 q 294 549 269 524 q 339 624 319 575 q 358 739 358 674 l 358 819 l 385 819 l 385 728 q 362 613 385 665 q 311 530 339 560 q 243 459 283 500 q 172 375 203 418 q 136 257 136 322 q 156 144 136 192 q 229 62 176 97 q 366 26 282 26 q 513 85 450 26 q 575 246 575 143 z "},"À":{"ha":732,"x_min":17,"x_max":718,"o":"m 383 1015 l 357 1015 l 269 1172 q 275 1208 253 1199 q 286 1211 281 1211 q 307 1193 300 1211 l 383 1015 m 543 417 l 367 917 l 190 417 l 543 417 m 718 0 l 689 0 l 553 390 l 181 390 l 43 0 l 17 0 l 357 972 l 376 972 l 718 0 z "},"Á":{"ha":732,"x_min":17,"x_max":718,"o":"m 363 1015 l 336 1015 l 413 1193 q 433 1211 419 1211 q 444 1208 439 1211 q 450 1172 467 1199 l 363 1015 m 543 417 l 367 917 l 190 417 l 543 417 m 718 0 l 689 0 l 553 390 l 181 390 l 43 0 l 17 0 l 357 972 l 376 972 l 718 0 z "},"Â":{"ha":732,"x_min":17,"x_max":718,"o":"m 567 1072 l 543 1050 l 368 1226 l 186 1050 l 164 1072 l 369 1268 l 567 1072 m 543 417 l 367 917 l 190 417 l 543 417 m 718 0 l 689 0 l 553 390 l 181 390 l 43 0 l 17 0 l 357 972 l 376 972 l 718 0 z "},"Ã":{"ha":732,"x_min":17,"x_max":718,"o":"m 271 1146 q 399 1101 308 1146 q 478 1085 433 1085 q 565 1129 522 1085 l 579 1106 q 465 1057 526 1057 q 394 1073 429 1057 q 327 1103 360 1089 q 265 1117 294 1117 q 149 1056 201 1117 l 133 1078 q 271 1146 199 1146 m 543 417 l 367 917 l 190 417 l 543 417 m 718 0 l 689 0 l 553 390 l 181 390 l 43 0 l 17 0 l 357 972 l 376 972 l 718 0 z "},"Ä":{"ha":732,"x_min":17,"x_max":718,"o":"m 543 417 l 367 917 l 190 417 l 543 417 m 718 0 l 689 0 l 553 390 l 181 390 l 43 0 l 17 0 l 357 972 l 376 972 l 718 0 z "},"Å":{"ha":732,"x_min":17,"x_max":718,"o":"m 376 972 l 376 969 q 451 1008 421 975 q 481 1090 481 1042 q 447 1172 481 1138 q 363 1206 413 1206 q 279 1172 314 1206 q 244 1089 244 1138 q 276 1006 244 1040 q 356 969 308 972 l 357 972 l 376 972 m 543 417 l 367 917 l 190 417 l 543 417 m 718 0 l 689 0 l 553 390 l 181 390 l 43 0 l 17 0 l 346 943 q 254 991 292 950 q 217 1090 217 1032 q 260 1190 217 1147 q 363 1233 303 1233 q 465 1190 422 1233 q 508 1090 508 1147 q 474 993 508 1033 q 386 943 439 953 l 718 0 z "},"Æ":{"ha":1136,"x_min":108,"x_max":1082,"o":"m 618 417 l 618 922 l 356 417 l 618 417 m 1079 0 l 617 0 l 618 390 l 343 390 l 139 0 l 108 0 l 617 972 l 1082 972 l 1082 946 l 644 946 l 644 574 l 961 574 l 951 547 l 644 547 l 644 28 l 1079 28 l 1079 0 z "},"Ç":{"ha":597,"x_min":92,"x_max":593,"o":"m 361 10 q 585 57 463 10 l 593 32 q 363 -14 472 -14 q 339 -14 350 -14 l 292 -78 q 363 -64 318 -64 q 448 -86 408 -64 q 488 -172 488 -108 q 436 -263 488 -235 q 322 -292 385 -292 q 188 -265 260 -292 l 201 -236 q 314 -268 251 -268 q 419 -242 376 -268 q 461 -167 461 -217 q 413 -97 461 -117 q 363 -89 390 -89 q 303 -101 336 -89 l 246 -122 l 238 -108 l 313 -11 q 152 64 213 0 q 92 254 92 128 l 92 700 q 122 860 92 806 q 213 951 151 914 q 361 986 274 986 q 558 940 474 986 l 547 917 q 365 960 450 960 q 256 941 303 960 q 182 897 208 922 q 137 824 156 871 q 118 713 118 776 l 118 257 q 155 108 118 167 q 247 29 192 49 q 361 10 303 10 z "},"È":{"ha":646,"x_min":108,"x_max":572,"o":"m 375 1014 l 349 1014 l 261 1171 q 267 1207 244 1197 q 278 1210 272 1210 q 299 1192 292 1210 l 375 1014 m 569 0 l 108 0 l 108 972 l 572 972 l 572 946 l 135 946 l 135 574 l 451 574 l 442 547 l 135 547 l 135 26 l 569 26 l 569 0 z "},"É":{"ha":646,"x_min":108,"x_max":572,"o":"m 356 1014 l 329 1014 l 406 1192 q 426 1210 413 1210 q 438 1207 432 1210 q 443 1171 460 1197 l 356 1014 m 569 0 l 108 0 l 108 972 l 572 972 l 572 946 l 135 946 l 135 574 l 451 574 l 442 547 l 135 547 l 135 26 l 569 26 l 569 0 z "},"Ê":{"ha":646,"x_min":108,"x_max":572,"o":"m 533 1072 l 510 1050 l 335 1226 l 153 1050 l 131 1072 l 336 1268 l 533 1072 m 569 0 l 108 0 l 108 972 l 572 972 l 572 946 l 135 946 l 135 574 l 451 574 l 442 547 l 135 547 l 135 26 l 569 26 l 569 0 z "},"Ë":{"ha":646,"x_min":108,"x_max":572,"o":"m 569 0 l 108 0 l 108 972 l 572 972 l 572 946 l 135 946 l 135 574 l 451 574 l 442 547 l 135 547 l 135 26 l 569 26 l 569 0 z "},"Ì":{"ha":365,"x_min":108,"x_max":254,"o":"m 253 1014 l 226 1014 l 139 1171 q 144 1207 122 1197 q 156 1210 150 1210 q 176 1192 169 1210 l 253 1014 m 254 0 l 228 0 l 228 943 l 108 946 l 108 972 l 254 972 l 254 0 z "},"Í":{"ha":460,"x_min":108,"x_max":349,"o":"m 254 1014 l 228 1014 l 304 1192 q 325 1210 311 1210 q 349 1190 349 1210 q 342 1171 349 1182 l 254 1014 m 254 0 l 228 0 l 228 943 l 108 946 l 108 972 l 254 972 l 254 0 z "},"Î":{"ha":622,"x_min":108,"x_max":511,"o":"m 511 1072 l 488 1050 l 313 1226 l 131 1050 l 108 1072 l 314 1268 l 511 1072 m 350 0 l 324 0 l 324 943 l 204 946 l 204 972 l 350 972 l 350 0 z "},"Ï":{"ha":365,"x_min":108,"x_max":254,"o":"m 254 0 l 228 0 l 228 943 l 108 946 l 108 972 l 254 972 l 254 0 z "},"Ð":{"ha":894,"x_min":108,"x_max":840,"o":"m 451 944 l 203 944 l 203 747 l 722 747 q 623 896 697 847 q 451 944 549 944 m 733 297 l 733 650 q 728 721 733 676 l 203 721 l 203 28 l 451 28 q 521 31 492 28 q 594 48 550 33 q 665 90 638 63 q 713 170 692 117 q 733 297 733 224 m 465 0 l 176 0 l 176 721 l 108 721 l 108 747 l 176 747 l 176 974 l 438 974 q 647 913 567 974 q 750 747 726 851 l 840 747 l 840 721 l 756 721 q 760 658 760 689 l 760 278 q 465 0 760 0 z "},"Ñ":{"ha":903,"x_min":108,"x_max":792,"o":"m 357 1146 q 485 1101 394 1146 q 564 1085 519 1085 q 651 1129 608 1085 l 665 1106 q 551 1057 613 1057 q 481 1073 515 1057 q 413 1103 446 1089 q 351 1117 381 1117 q 235 1056 288 1117 l 219 1078 q 357 1146 285 1146 m 792 0 l 768 0 l 133 931 l 133 0 l 108 0 l 108 972 l 133 972 l 768 44 l 768 972 l 792 972 l 792 0 z "},"Ò":{"ha":763,"x_min":88,"x_max":671,"o":"m 406 1014 l 379 1014 l 292 1171 q 297 1207 275 1197 q 308 1210 303 1210 q 329 1192 322 1210 l 406 1014 m 644 256 l 644 708 q 578 897 644 828 q 379 965 511 965 q 181 895 247 965 q 114 706 114 825 l 114 256 q 192 73 114 135 q 381 11 269 11 q 568 69 492 11 q 644 256 644 128 m 671 703 l 671 257 q 585 51 671 117 q 381 -15 500 -15 q 174 51 261 -15 q 88 257 88 117 l 88 704 q 166 921 88 847 q 382 994 244 994 q 595 917 519 994 q 671 703 671 839 z "},"Ó":{"ha":763,"x_min":88,"x_max":671,"o":"m 383 1014 l 357 1014 l 433 1192 q 454 1210 440 1210 q 465 1207 460 1210 q 471 1171 488 1197 l 383 1014 m 644 256 l 644 708 q 578 897 644 828 q 379 965 511 965 q 181 895 247 965 q 114 706 114 825 l 114 256 q 192 73 114 135 q 381 11 269 11 q 568 69 492 11 q 644 256 644 128 m 671 703 l 671 257 q 585 51 671 117 q 381 -15 500 -15 q 174 51 261 -15 q 88 257 88 117 l 88 704 q 166 921 88 847 q 382 994 244 994 q 595 917 519 994 q 671 703 671 839 z "},"Ô":{"ha":763,"x_min":88,"x_max":671,"o":"m 578 1072 l 554 1050 l 379 1226 l 197 1050 l 175 1072 l 381 1268 l 578 1072 m 644 256 l 644 708 q 578 897 644 828 q 379 965 511 965 q 181 895 247 965 q 114 706 114 825 l 114 256 q 192 73 114 135 q 381 11 269 11 q 568 69 492 11 q 644 256 644 128 m 671 703 l 671 257 q 585 51 671 117 q 381 -15 500 -15 q 174 51 261 -15 q 88 257 88 117 l 88 704 q 166 921 88 847 q 382 994 244 994 q 595 917 519 994 q 671 703 671 839 z "},"Õ":{"ha":763,"x_min":88,"x_max":671,"o":"m 292 1146 q 419 1101 329 1146 q 499 1085 454 1085 q 586 1129 543 1085 l 600 1106 q 486 1057 547 1057 q 415 1073 450 1057 q 347 1103 381 1089 q 286 1117 314 1117 q 169 1056 222 1117 l 154 1078 q 292 1146 219 1146 m 644 256 l 644 708 q 578 897 644 828 q 379 965 511 965 q 181 895 247 965 q 114 706 114 825 l 114 256 q 192 73 114 135 q 381 11 269 11 q 568 69 492 11 q 644 256 644 128 m 671 703 l 671 257 q 585 51 671 117 q 381 -15 500 -15 q 174 51 261 -15 q 88 257 88 117 l 88 704 q 166 921 88 847 q 382 994 244 994 q 595 917 519 994 q 671 703 671 839 z "},"Ö":{"ha":763,"x_min":88,"x_max":671,"o":"m 644 256 l 644 708 q 578 897 644 828 q 379 965 511 965 q 181 895 247 965 q 114 706 114 825 l 114 256 q 192 73 114 135 q 381 11 269 11 q 568 69 492 11 q 644 256 644 128 m 671 703 l 671 257 q 585 51 671 117 q 381 -15 500 -15 q 174 51 261 -15 q 88 257 88 117 l 88 704 q 166 921 88 847 q 382 994 244 994 q 595 917 519 994 q 671 703 671 839 z "},"×":{"ha":524,"x_min":108,"x_max":469,"o":"m 467 268 l 444 250 l 289 438 l 131 249 l 111 265 l 272 457 l 108 657 l 126 674 l 290 478 l 450 672 l 469 654 l 307 460 l 467 268 z "},"Ø":{"ha":746,"x_min":108,"x_max":692,"o":"m 218 68 l 522 944 q 400 965 464 965 q 201 895 268 965 q 135 706 135 825 l 135 256 q 218 68 135 135 m 665 256 l 665 708 q 546 933 665 872 l 239 53 q 410 11 307 11 q 589 69 513 11 q 665 256 665 128 m 167 -158 l 139 -158 l 208 40 q 108 257 108 114 l 108 704 q 187 921 108 847 q 403 994 265 994 q 532 972 472 994 l 589 1135 l 617 1135 l 556 961 q 692 703 692 890 l 692 257 q 606 51 692 117 q 413 -15 521 -15 q 231 26 304 -15 l 167 -158 z "},"Ù":{"ha":786,"x_min":103,"x_max":688,"o":"m 418 1014 l 392 1014 l 304 1171 q 310 1207 288 1197 q 321 1210 315 1210 q 342 1192 335 1210 l 418 1014 m 661 256 l 661 974 l 688 974 l 688 258 q 662 131 688 185 q 592 47 636 76 q 500 4 549 18 q 396 -10 451 -10 q 291 4 340 -10 q 198 47 242 18 q 128 131 154 76 q 103 258 103 185 l 103 974 l 129 974 l 129 256 q 154 140 129 189 q 221 66 179 92 q 307 28 263 40 q 399 17 351 17 q 489 28 446 17 q 572 66 532 40 q 637 141 613 92 q 661 256 661 190 z "},"Ú":{"ha":786,"x_min":103,"x_max":688,"o":"m 390 1015 l 364 1015 l 440 1193 q 461 1211 447 1211 q 472 1208 467 1211 q 478 1172 494 1199 l 390 1015 m 661 256 l 661 974 l 688 974 l 688 258 q 662 131 688 185 q 592 47 636 76 q 500 4 549 18 q 396 -10 451 -10 q 291 4 340 -10 q 198 47 242 18 q 128 131 154 76 q 103 258 103 185 l 103 974 l 129 974 l 129 256 q 154 140 129 189 q 221 66 179 92 q 307 28 263 40 q 399 17 351 17 q 489 28 446 17 q 572 66 532 40 q 637 141 613 92 q 661 256 661 190 z "},"Û":{"ha":786,"x_min":103,"x_max":688,"o":"m 601 1072 l 578 1050 l 403 1226 l 221 1050 l 199 1072 l 404 1268 l 601 1072 m 661 256 l 661 974 l 688 974 l 688 258 q 662 131 688 185 q 592 47 636 76 q 500 4 549 18 q 396 -10 451 -10 q 291 4 340 -10 q 198 47 242 18 q 128 131 154 76 q 103 258 103 185 l 103 974 l 129 974 l 129 256 q 154 140 129 189 q 221 66 179 92 q 307 28 263 40 q 399 17 351 17 q 489 28 446 17 q 572 66 532 40 q 637 141 613 92 q 661 256 661 190 z "},"Ü":{"ha":786,"x_min":103,"x_max":688,"o":"m 661 256 l 661 974 l 688 974 l 688 258 q 662 131 688 185 q 592 47 636 76 q 500 4 549 18 q 396 -10 451 -10 q 291 4 340 -10 q 198 47 242 18 q 128 131 154 76 q 103 258 103 185 l 103 974 l 129 974 l 129 256 q 154 140 129 189 q 221 66 179 92 q 307 28 263 40 q 399 17 351 17 q 489 28 446 17 q 572 66 532 40 q 637 141 613 92 q 661 256 661 190 z "},"Ý":{"ha":761,"x_min":83,"x_max":699,"o":"m 390 1015 l 364 1015 l 440 1193 q 461 1211 447 1211 q 472 1208 467 1211 q 478 1172 494 1199 l 390 1015 m 554 -10 l 546 15 q 570 22 558 15 q 594 35 582 29 q 614 48 607 42 q 631 65 621 54 q 648 90 642 76 q 661 119 654 103 q 672 211 672 153 l 672 475 q 551 371 631 401 q 401 340 472 340 q 169 413 254 340 q 83 629 83 486 l 83 972 l 110 972 l 110 636 q 182 437 110 507 q 401 367 254 367 q 586 423 513 367 q 672 563 660 479 l 672 972 l 699 972 l 699 203 q 554 -10 699 26 z "},"Þ":{"ha":688,"x_min":108,"x_max":633,"o":"m 138 445 q 138 387 138 445 q 204 258 138 329 q 370 186 271 186 q 538 251 469 186 q 607 438 607 317 q 535 622 607 558 q 374 686 464 686 q 211 624 285 686 q 138 445 138 561 m 135 0 l 108 0 l 108 972 l 135 972 l 135 569 q 369 708 218 708 q 565 631 497 708 q 633 431 633 553 q 557 235 633 308 q 372 161 481 161 q 289 173 329 161 q 204 224 249 185 q 135 326 160 264 l 135 0 z "},"ß":{"ha":715,"x_min":108,"x_max":663,"o":"m 239 51 l 256 78 q 369 21 296 39 q 436 13 403 13 l 517 25 q 618 114 590 46 q 633 192 633 154 q 542 360 633 282 q 477 408 518 379 q 408 458 436 438 q 351 508 381 478 q 308 565 321 538 q 294 628 294 592 q 317 704 294 665 q 324 704 321 704 q 417 768 396 704 q 424 820 424 789 q 396 892 424 851 q 285 947 357 947 q 135 751 135 947 l 135 0 l 108 0 l 108 746 q 288 974 108 974 q 378 946 339 974 q 449 800 449 897 q 422 724 449 757 q 350 683 394 690 l 335 683 q 319 627 319 653 q 331 579 319 601 q 358 537 342 557 q 401 496 374 517 q 450 458 428 475 q 563 378 528 406 q 658 217 640 315 q 663 173 663 201 q 643 101 663 144 q 536 3 614 31 q 446 -15 486 -15 q 239 51 318 -15 z "},"à":{"ha":697,"x_min":108,"x_max":643,"o":"m 406 747 l 379 747 l 292 904 q 297 940 275 931 q 308 943 303 943 q 329 925 322 943 l 406 747 m 165 109 q 180 86 165 109 q 239 41 194 63 q 340 15 283 19 q 451 10 396 10 q 617 25 506 10 l 617 449 q 392 529 528 513 q 331 533 363 533 q 268 528 300 533 q 173 470 211 517 q 135 346 135 424 l 135 225 q 165 109 135 156 m 335 558 q 617 481 496 558 q 368 681 617 681 q 351 681 360 681 l 354 707 q 521 681 467 707 q 572 650 550 665 q 607 610 594 635 q 628 566 619 585 q 639 515 636 547 q 643 414 643 467 l 643 0 q 413 -14 499 -14 q 108 235 108 -14 l 108 350 q 210 533 108 483 q 335 558 261 558 z "},"á":{"ha":697,"x_min":108,"x_max":643,"o":"m 385 747 l 358 747 l 435 925 q 456 943 442 943 q 467 940 461 943 q 472 904 489 931 l 385 747 m 165 109 q 180 86 165 109 q 239 41 194 63 q 340 15 283 19 q 451 10 396 10 q 617 25 506 10 l 617 449 q 392 529 528 513 q 331 533 363 533 q 268 528 300 533 q 173 470 211 517 q 135 346 135 424 l 135 225 q 165 109 135 156 m 335 558 q 617 481 496 558 q 368 681 617 681 q 351 681 360 681 l 354 707 q 521 681 467 707 q 572 650 550 665 q 607 610 594 635 q 628 566 619 585 q 639 515 636 547 q 643 414 643 467 l 643 0 q 413 -14 499 -14 q 108 235 108 -14 l 108 350 q 210 533 108 483 q 335 558 261 558 z "},"â":{"ha":697,"x_min":108,"x_max":643,"o":"m 582 804 l 558 782 l 383 958 l 201 782 l 179 804 l 385 1000 l 582 804 m 165 109 q 180 86 165 109 q 239 41 194 63 q 340 15 283 19 q 451 10 396 10 q 617 25 506 10 l 617 449 q 392 529 528 513 q 331 533 363 533 q 268 528 300 533 q 173 470 211 517 q 135 346 135 424 l 135 225 q 165 109 135 156 m 335 558 q 617 481 496 558 q 368 681 617 681 q 351 681 360 681 l 354 707 q 521 681 467 707 q 572 650 550 665 q 607 610 594 635 q 628 566 619 585 q 639 515 636 547 q 643 414 643 467 l 643 0 q 413 -14 499 -14 q 108 235 108 -14 l 108 350 q 210 533 108 483 q 335 558 261 558 z "},"ã":{"ha":697,"x_min":108,"x_max":643,"o":"m 294 885 q 422 840 332 885 q 501 824 457 824 q 589 868 546 824 l 603 844 q 489 796 550 796 q 418 812 453 796 q 350 842 383 828 q 289 856 317 856 q 172 794 225 856 l 157 817 q 294 885 222 885 m 165 109 q 180 86 165 109 q 239 41 194 63 q 340 15 283 19 q 451 10 396 10 q 617 25 506 10 l 617 449 q 392 529 528 513 q 331 533 363 533 q 268 528 300 533 q 173 470 211 517 q 135 346 135 424 l 135 225 q 165 109 135 156 m 335 558 q 617 481 496 558 q 368 681 617 681 q 351 681 360 681 l 354 707 q 521 681 467 707 q 572 650 550 665 q 607 610 594 635 q 628 566 619 585 q 639 515 636 547 q 643 414 643 467 l 643 0 q 413 -14 499 -14 q 108 235 108 -14 l 108 350 q 210 533 108 483 q 335 558 261 558 z "},"ä":{"ha":697,"x_min":108,"x_max":643,"o":"m 165 109 q 180 86 165 109 q 239 41 194 63 q 340 15 283 19 q 451 10 396 10 q 617 25 506 10 l 617 449 q 392 529 528 513 q 331 533 363 533 q 268 528 300 533 q 173 470 211 517 q 135 346 135 424 l 135 225 q 165 109 135 156 m 335 558 q 617 481 496 558 q 368 681 617 681 q 351 681 360 681 l 354 707 q 521 681 467 707 q 572 650 550 665 q 607 610 594 635 q 628 566 619 585 q 639 515 636 547 q 643 414 643 467 l 643 0 q 413 -14 499 -14 q 108 235 108 -14 l 108 350 q 210 533 108 483 q 335 558 261 558 z "},"å":{"ha":697,"x_min":108,"x_max":643,"o":"m 272 747 q 291 728 272 747 q 363 710 310 710 q 452 747 415 710 q 489 838 489 785 q 452 927 489 890 q 363 964 415 964 q 272 927 310 964 q 235 838 235 890 q 272 747 235 785 m 165 109 q 180 86 165 109 q 239 41 194 63 q 340 15 283 19 q 451 10 396 10 q 617 25 506 10 l 617 449 q 392 529 528 513 q 331 533 363 533 q 268 528 300 533 q 173 470 211 517 q 135 346 135 424 l 135 225 q 165 109 135 156 m 363 681 l 351 681 q 248 731 290 686 q 206 840 206 776 q 251 949 206 903 q 363 994 297 994 q 474 949 428 994 q 519 838 519 903 q 440 701 519 746 q 539 670 499 693 q 599 623 579 647 q 630 556 619 599 q 642 488 640 514 q 643 414 643 463 l 643 0 q 413 -14 499 -14 q 108 235 108 -14 l 108 350 q 210 533 108 483 q 335 558 261 558 q 617 481 496 558 q 568 617 617 560 q 363 681 513 681 z "},"æ":{"ha":1174,"x_min":108,"x_max":1119,"o":"m 1093 369 l 1093 476 q 1028 634 1093 586 q 872 682 964 682 q 713 631 781 682 q 646 472 646 581 l 646 344 l 1093 369 m 165 109 q 180 86 165 109 q 239 41 194 63 q 340 15 283 19 q 451 10 396 10 q 617 25 506 10 l 617 449 q 392 529 528 513 q 331 533 363 533 q 268 528 300 533 q 173 470 211 517 q 135 346 135 424 l 135 225 q 165 109 135 156 m 844 6 q 1072 72 954 6 l 1085 49 q 836 -17 978 -17 q 643 81 694 -17 l 643 0 q 413 -14 499 -14 q 108 235 108 -14 l 108 350 q 210 533 108 483 q 335 558 261 558 q 617 481 496 558 q 368 681 617 681 q 351 681 360 681 l 354 707 q 631 553 590 707 q 719 668 654 628 q 887 708 783 708 q 1055 647 990 708 q 1119 475 1119 585 l 1119 343 l 646 319 l 646 183 q 706 49 646 92 q 844 6 765 6 z "},"ç":{"ha":532,"x_min":50,"x_max":497,"o":"m 76 235 q 113 99 75 151 q 209 28 150 46 q 338 11 268 11 q 490 35 407 11 l 497 8 q 354 -15 410 -15 q 269 -11 299 -15 l 219 -78 q 291 -64 246 -64 q 376 -86 336 -64 q 415 -172 415 -108 q 364 -263 415 -235 q 250 -292 313 -292 q 115 -265 188 -292 l 129 -236 q 242 -268 179 -268 q 347 -242 304 -268 q 389 -167 389 -217 q 340 -97 389 -117 q 291 -89 318 -89 q 231 -101 264 -89 l 174 -122 l 165 -108 l 244 -7 q 206 3 219 -3 q 87 88 124 31 q 50 250 50 146 l 50 428 q 89 593 50 526 q 308 708 156 708 q 494 664 400 708 l 485 636 q 310 681 400 681 q 206 662 258 681 q 115 583 153 643 q 76 436 76 524 l 76 235 z "},"è":{"ha":663,"x_min":108,"x_max":608,"o":"m 394 747 l 368 747 l 281 904 q 286 940 264 931 q 297 943 292 943 q 318 925 311 943 l 394 747 m 582 369 l 582 476 q 517 634 582 586 q 361 682 453 682 q 202 631 269 682 q 135 472 135 581 l 135 344 l 582 369 m 333 6 q 561 72 443 6 l 574 49 q 350 -17 467 -17 q 108 186 108 -17 l 108 471 q 178 646 108 583 q 364 708 249 708 q 544 647 479 708 q 608 475 608 585 l 608 343 l 135 319 l 135 183 q 194 49 135 92 q 333 6 254 6 z "},"é":{"ha":663,"x_min":108,"x_max":608,"o":"m 360 747 l 333 747 l 410 925 q 431 943 417 943 q 442 940 436 943 q 447 904 464 931 l 360 747 m 582 369 l 582 476 q 517 634 582 586 q 361 682 453 682 q 202 631 269 682 q 135 472 135 581 l 135 344 l 582 369 m 333 6 q 561 72 443 6 l 574 49 q 350 -17 467 -17 q 108 186 108 -17 l 108 471 q 178 646 108 583 q 364 708 249 708 q 544 647 479 708 q 608 475 608 585 l 608 343 l 135 319 l 135 183 q 194 49 135 92 q 333 6 254 6 z "},"ê":{"ha":675,"x_min":108,"x_max":608,"o":"m 551 804 l 528 782 l 353 958 l 171 782 l 149 804 l 354 1000 l 551 804 m 582 369 l 582 476 q 517 634 582 586 q 361 682 453 682 q 202 631 269 682 q 135 472 135 581 l 135 344 l 582 369 m 333 6 q 561 72 443 6 l 574 49 q 350 -17 467 -17 q 108 186 108 -17 l 108 471 q 178 646 108 583 q 364 708 249 708 q 544 647 479 708 q 608 475 608 585 l 608 343 l 135 319 l 135 183 q 194 49 135 92 q 333 6 254 6 z "},"ë":{"ha":625,"x_min":49,"x_max":549,"o":"m 522 369 l 522 476 q 458 634 522 586 q 301 682 393 682 q 142 631 210 682 q 75 472 75 581 l 75 344 l 522 369 m 274 6 q 501 72 383 6 l 514 49 q 290 -17 407 -17 q 49 186 49 -17 l 49 471 q 119 646 49 583 q 304 708 189 708 q 484 647 419 708 q 549 475 549 585 l 549 343 l 75 319 l 75 183 q 135 49 75 92 q 274 6 194 6 z "},"ì":{"ha":283,"x_min":108,"x_max":229,"o":"m 224 0 l 197 0 l 197 696 l 224 696 l 224 0 m 229 747 l 203 747 l 115 904 q 108 925 108 915 q 117 939 108 935 q 132 943 126 943 q 153 925 146 943 l 229 747 z "},"í":{"ha":283,"x_min":108,"x_max":229,"o":"m 150 0 l 124 0 l 124 696 l 150 696 l 150 0 m 135 747 l 108 747 l 185 925 q 206 943 192 943 q 229 924 229 943 q 222 904 229 915 l 135 747 z "},"î":{"ha":244,"x_min":-60,"x_max":343,"o":"m 156 0 l 129 0 l 129 696 l 156 696 l 156 0 m 343 804 l 319 782 l 144 958 l -37 782 l -60 804 l 146 1000 l 343 804 z "},"ï":{"ha":189,"x_min":-31,"x_max":232,"o":"m 226 805 q 223 802 226 805 q 211 799 219 799 q 197 805 203 799 q 190 819 190 811 q 197 834 190 828 q 211 840 203 840 q 226 834 219 840 q 232 819 232 828 q 226 805 232 811 m 5 803 q 2 800 5 803 q -10 797 -1 797 q -24 803 -18 797 q -31 818 -31 810 q -24 833 -31 826 q -10 839 -18 839 q 5 833 -1 839 q 11 818 11 826 q 5 803 11 810 m 114 0 l 88 0 l 88 696 l 114 696 l 114 0 z "},"ñ":{"ha":675,"x_min":108,"x_max":621,"o":"m 265 885 q 393 840 303 885 q 472 824 428 824 q 560 868 517 824 l 574 844 q 460 796 521 796 q 389 812 424 796 q 322 842 354 828 q 260 856 289 856 q 143 794 196 856 l 128 817 q 265 885 193 885 m 135 660 q 338 708 229 708 q 503 679 446 708 q 621 481 621 625 l 621 0 l 594 0 l 594 482 q 544 615 594 565 q 356 682 479 682 q 135 631 232 682 l 135 0 l 108 0 l 108 696 l 135 696 l 135 660 z "},"ò":{"ha":681,"x_min":108,"x_max":626,"o":"m 393 747 l 367 747 l 279 904 q 285 940 263 931 q 296 943 290 943 q 317 925 310 943 l 393 747 m 600 256 l 600 444 q 534 624 600 564 q 368 685 468 685 q 201 624 268 685 q 135 444 135 564 l 135 256 q 192 83 135 154 q 367 11 249 11 q 543 81 486 11 q 600 256 600 151 m 626 439 l 626 256 q 563 63 626 139 q 369 -14 499 -14 q 174 63 240 -14 q 108 256 108 140 l 108 439 q 176 641 108 571 q 367 711 243 711 q 558 638 490 711 q 626 439 626 565 z "},"ó":{"ha":681,"x_min":108,"x_max":626,"o":"m 358 747 l 332 747 l 408 925 q 429 943 415 943 q 440 940 435 943 q 446 904 463 931 l 358 747 m 600 256 l 600 444 q 534 624 600 564 q 368 685 468 685 q 201 624 268 685 q 135 444 135 564 l 135 256 q 192 83 135 154 q 367 11 249 11 q 543 81 486 11 q 600 256 600 151 m 626 439 l 626 256 q 563 63 626 139 q 369 -14 499 -14 q 174 63 240 -14 q 108 256 108 140 l 108 439 q 176 641 108 571 q 367 711 243 711 q 558 638 490 711 q 626 439 626 565 z "},"ô":{"ha":681,"x_min":108,"x_max":626,"o":"m 568 804 l 544 782 l 369 958 l 188 782 l 165 804 l 371 1000 l 568 804 m 600 256 l 600 444 q 534 624 600 564 q 368 685 468 685 q 201 624 268 685 q 135 444 135 564 l 135 256 q 192 83 135 154 q 367 11 249 11 q 543 81 486 11 q 600 256 600 151 m 626 439 l 626 256 q 563 63 626 139 q 369 -14 499 -14 q 174 63 240 -14 q 108 256 108 140 l 108 439 q 176 641 108 571 q 367 711 243 711 q 558 638 490 711 q 626 439 626 565 z "},"õ":{"ha":681,"x_min":108,"x_max":626,"o":"m 278 885 q 406 840 315 885 q 485 824 440 824 q 572 868 529 824 l 586 844 q 472 796 533 796 q 401 812 436 796 q 333 842 367 828 q 272 856 300 856 q 156 794 208 856 l 140 817 q 278 885 206 885 m 600 256 l 600 444 q 534 624 600 564 q 368 685 468 685 q 201 624 268 685 q 135 444 135 564 l 135 256 q 192 83 135 154 q 367 11 249 11 q 543 81 486 11 q 600 256 600 151 m 626 439 l 626 256 q 563 63 626 139 q 369 -14 499 -14 q 174 63 240 -14 q 108 256 108 140 l 108 439 q 176 641 108 571 q 367 711 243 711 q 558 638 490 711 q 626 439 626 565 z "},"ö":{"ha":681,"x_min":108,"x_max":626,"o":"m 600 256 l 600 444 q 534 624 600 564 q 368 685 468 685 q 201 624 268 685 q 135 444 135 564 l 135 256 q 192 83 135 154 q 367 11 249 11 q 543 81 486 11 q 600 256 600 151 m 626 439 l 626 256 q 563 63 626 139 q 369 -14 499 -14 q 174 63 240 -14 q 108 256 108 140 l 108 439 q 176 641 108 571 q 367 711 243 711 q 558 638 490 711 q 626 439 626 565 z "},"÷":{"ha":607,"x_min":108,"x_max":553,"o":"m 348 672 q 345 668 348 672 q 333 665 342 665 q 319 672 325 665 q 313 686 313 678 q 319 701 313 694 q 333 707 325 707 q 348 701 342 707 q 354 686 354 694 q 348 672 354 678 m 348 365 q 345 361 348 365 q 333 358 342 358 q 319 365 325 358 q 313 379 313 371 q 319 394 313 388 q 333 400 325 400 q 348 394 342 400 q 354 379 354 388 q 348 365 354 371 m 553 525 l 108 525 l 108 551 l 553 551 l 553 525 z "},"ø":{"ha":692,"x_min":108,"x_max":638,"o":"m 600 256 l 600 444 q 522 633 600 569 l 256 33 q 369 11 304 11 q 543 81 486 11 q 600 256 600 151 m 232 47 l 500 650 q 356 685 444 685 q 201 624 268 685 q 135 444 135 564 l 135 256 q 232 47 135 110 m 171 -158 l 142 -158 l 222 24 q 108 256 108 92 l 108 439 q 176 641 108 571 q 369 711 243 711 q 511 675 451 711 l 608 893 l 638 893 l 533 660 q 626 439 626 586 l 626 256 q 563 63 626 139 q 369 -14 499 -14 q 246 11 300 -14 l 171 -158 z "},"ù":{"ha":681,"x_min":108,"x_max":626,"o":"m 403 747 l 376 747 l 289 904 q 294 940 272 931 q 306 943 300 943 q 326 925 319 943 l 403 747 m 626 0 l 600 0 l 600 108 q 369 -15 531 -15 q 108 244 108 -15 l 108 696 l 135 696 l 135 244 q 189 72 135 132 q 356 13 243 13 q 535 69 469 13 q 600 222 600 126 l 600 696 l 626 696 l 626 0 z "},"ú":{"ha":681,"x_min":108,"x_max":626,"o":"m 358 747 l 332 747 l 408 925 q 429 943 415 943 q 440 940 435 943 q 446 904 463 931 l 358 747 m 626 0 l 600 0 l 600 108 q 369 -15 531 -15 q 108 244 108 -15 l 108 696 l 135 696 l 135 244 q 189 72 135 132 q 356 13 243 13 q 535 69 469 13 q 600 222 600 126 l 600 696 l 626 696 l 626 0 z "},"û":{"ha":681,"x_min":108,"x_max":626,"o":"m 564 804 l 540 782 l 365 958 l 183 782 l 161 804 l 367 1000 l 564 804 m 626 0 l 600 0 l 600 108 q 369 -15 531 -15 q 108 244 108 -15 l 108 696 l 135 696 l 135 244 q 189 72 135 132 q 356 13 243 13 q 535 69 469 13 q 600 222 600 126 l 600 696 l 626 696 l 626 0 z "},"ü":{"ha":681,"x_min":108,"x_max":626,"o":"m 626 0 l 600 0 l 600 108 q 369 -15 531 -15 q 108 244 108 -15 l 108 696 l 135 696 l 135 244 q 189 72 135 132 q 356 13 243 13 q 535 69 469 13 q 600 222 600 126 l 600 696 l 626 696 l 626 0 z "},"ý":{"ha":721,"x_min":108,"x_max":667,"o":"m 354 747 l 328 747 l 404 925 q 425 943 411 943 q 436 940 431 943 q 442 904 458 931 l 354 747 m 483 -292 l 475 -267 q 604 -87 604 -233 l 604 121 q 499 15 567 46 q 363 -17 431 -17 q 174 49 240 -17 q 108 244 108 115 l 108 696 l 135 696 l 135 231 q 190 70 135 131 q 357 10 244 10 q 536 72 469 10 q 603 231 603 135 l 603 518 q 612 646 603 603 q 656 708 621 689 l 667 686 q 629 561 629 658 l 629 -85 q 596 -218 629 -169 q 483 -292 563 -267 z "},"þ":{"ha":688,"x_min":108,"x_max":633,"o":"m 138 445 q 138 387 138 445 q 204 258 138 329 q 370 186 271 186 q 538 251 469 186 q 607 438 607 317 q 535 622 607 558 q 374 686 464 686 q 211 624 285 686 q 138 445 138 561 m 135 0 l 108 0 l 108 711 l 135 711 l 135 569 q 369 708 218 708 q 565 631 497 708 q 633 431 633 553 q 557 235 633 308 q 372 161 481 161 q 289 173 329 161 q 204 224 249 185 q 135 326 160 264 l 135 0 z "},"ÿ":{"ha":721,"x_min":108,"x_max":667,"o":"m 494 805 q 491 802 494 805 q 479 799 488 799 q 465 805 471 799 q 458 819 458 811 q 465 834 458 828 q 479 840 471 840 q 494 834 488 840 q 500 819 500 828 q 494 805 500 811 m 273 803 q 270 800 273 803 q 258 797 267 797 q 244 803 250 797 q 238 818 238 810 q 244 833 238 826 q 258 839 250 839 q 273 833 267 839 q 279 818 279 826 q 273 803 279 810 m 483 -292 l 475 -267 q 604 -87 604 -233 l 604 121 q 499 15 567 46 q 363 -17 431 -17 q 174 49 240 -17 q 108 244 108 115 l 108 696 l 135 696 l 135 231 q 190 70 135 131 q 357 10 244 10 q 536 72 469 10 q 603 231 603 135 l 603 518 q 612 646 603 603 q 656 708 621 689 l 667 686 q 629 561 629 658 l 629 -85 q 596 -218 629 -169 q 483 -292 563 -267 z "},"Ā":{"ha":732,"x_min":17,"x_max":718,"o":"m 511 1068 l 210 1068 l 210 1094 l 511 1094 l 511 1068 m 543 417 l 367 917 l 190 417 l 543 417 m 718 0 l 689 0 l 553 390 l 181 390 l 43 0 l 17 0 l 357 972 l 376 972 l 718 0 z "},"ā":{"ha":697,"x_min":108,"x_max":643,"o":"m 536 801 l 235 801 l 235 828 l 536 828 l 536 801 m 165 109 q 180 86 165 109 q 239 41 194 63 q 340 15 283 19 q 451 10 396 10 q 617 25 506 10 l 617 449 q 392 529 528 513 q 331 533 363 533 q 268 528 300 533 q 173 470 211 517 q 135 346 135 424 l 135 225 q 165 109 135 156 m 335 558 q 617 481 496 558 q 368 681 617 681 q 351 681 360 681 l 354 707 q 521 681 467 707 q 572 650 550 665 q 607 610 594 635 q 628 566 619 585 q 639 515 636 547 q 643 414 643 467 l 643 0 q 413 -14 499 -14 q 108 235 108 -14 l 108 350 q 210 533 108 483 q 335 558 261 558 z "},"Ă":{"ha":732,"x_min":17,"x_max":718,"o":"m 525 1178 l 525 1171 q 479 1060 525 1106 q 368 1014 433 1014 q 257 1060 303 1014 q 211 1171 211 1106 l 211 1178 l 240 1178 l 240 1171 q 275 1083 240 1125 q 367 1042 310 1042 q 460 1084 424 1042 q 496 1171 496 1126 l 496 1178 l 525 1178 m 543 417 l 367 917 l 190 417 l 543 417 m 718 0 l 689 0 l 553 390 l 181 390 l 43 0 l 17 0 l 357 972 l 376 972 l 718 0 z "},"ă":{"ha":697,"x_min":108,"x_max":643,"o":"m 586 911 l 586 904 q 540 793 586 839 q 429 747 494 747 q 318 793 364 747 q 272 904 272 839 l 272 911 l 301 911 l 301 904 q 336 817 301 858 q 428 775 371 775 q 521 817 485 775 q 557 904 557 860 l 557 911 l 586 911 m 165 109 q 180 86 165 109 q 239 41 194 63 q 340 15 283 19 q 451 10 396 10 q 617 25 506 10 l 617 449 q 392 529 528 513 q 331 533 363 533 q 268 528 300 533 q 173 470 211 517 q 135 346 135 424 l 135 225 q 165 109 135 156 m 335 558 q 617 481 496 558 q 368 681 617 681 q 351 681 360 681 l 354 707 q 521 681 467 707 q 572 650 550 665 q 607 610 594 635 q 628 566 619 585 q 639 515 636 547 q 643 414 643 467 l 643 0 q 413 -14 499 -14 q 108 235 108 -14 l 108 350 q 210 533 108 483 q 335 558 261 558 z "},"Ą":{"ha":958,"x_min":108,"x_max":904,"o":"m 635 417 l 458 917 l 282 417 l 635 417 m 882 -204 l 904 -226 q 771 -296 860 -296 q 703 -281 736 -296 q 642 -178 642 -251 q 775 0 642 -90 l 781 0 l 644 390 l 272 390 l 135 0 l 108 0 l 449 972 l 468 972 l 810 0 l 808 0 q 669 -181 669 -94 q 699 -243 669 -218 q 771 -268 729 -268 q 882 -204 842 -268 z "},"ą":{"ha":729,"x_min":51,"x_max":679,"o":"m 108 109 q 123 86 108 109 q 182 41 138 63 q 283 15 226 19 q 394 10 339 10 q 560 25 449 10 l 560 449 q 336 529 471 513 q 274 533 306 533 q 211 528 243 533 q 116 470 154 517 q 78 346 78 424 l 78 225 q 108 109 78 156 m 278 558 q 560 481 439 558 q 311 681 560 681 q 294 681 303 681 l 297 707 q 464 681 410 707 q 515 650 493 665 q 550 610 538 635 q 571 566 563 585 q 582 515 579 547 q 586 414 586 467 l 586 0 l 583 0 q 444 -181 444 -94 q 474 -243 444 -218 q 546 -268 504 -268 q 657 -204 617 -268 l 679 -226 q 546 -296 635 -296 q 478 -281 511 -296 q 417 -172 417 -251 q 543 -4 417 -92 q 258 -7 346 -24 q 110 61 156 11 q 51 235 51 125 l 51 350 q 153 533 51 483 q 278 558 204 558 z "},"Ć":{"ha":597,"x_min":92,"x_max":593,"o":"m 351 1019 l 325 1019 l 401 1197 q 422 1215 408 1215 q 433 1213 428 1215 q 439 1176 456 1203 l 351 1019 m 361 10 q 585 57 463 10 l 593 32 q 368 -14 475 -14 q 301 -10 346 -14 q 205 22 256 -6 q 123 108 154 49 q 92 254 92 167 l 92 700 q 122 860 92 806 q 213 951 151 914 q 361 986 274 986 q 558 940 474 986 l 547 917 q 365 960 450 960 q 256 941 303 960 q 182 897 208 922 q 137 824 156 871 q 118 713 118 776 l 118 257 q 155 108 118 167 q 247 29 192 49 q 361 10 303 10 z "},"ć":{"ha":610,"x_min":108,"x_max":556,"o":"m 317 747 l 290 747 l 367 925 q 388 943 374 943 q 399 940 393 943 q 404 904 421 931 l 317 747 m 135 235 q 171 99 133 151 q 267 28 208 46 q 396 11 326 11 q 549 35 465 11 l 556 8 q 394 -15 467 -15 q 253 7 322 -15 q 108 250 108 54 l 108 428 q 147 593 108 526 q 367 708 214 708 q 553 664 458 708 l 543 636 q 368 681 458 681 q 264 662 317 681 q 173 583 211 643 q 135 436 135 524 l 135 235 z "},"Ĉ":{"ha":597,"x_min":92,"x_max":593,"o":"m 361 10 q 585 57 463 10 l 593 32 q 368 -14 475 -14 q 301 -10 346 -14 q 205 22 256 -6 q 123 108 154 49 q 92 254 92 167 l 92 700 q 122 860 92 806 q 213 951 151 914 q 361 986 274 986 q 558 940 474 986 l 547 917 q 365 960 450 960 q 256 941 303 960 q 182 897 208 922 q 137 824 156 871 q 118 713 118 776 l 118 257 q 155 108 118 167 q 247 29 192 49 q 361 10 303 10 m 585 1072 l 561 1050 l 386 1226 l 204 1050 l 182 1072 l 388 1268 l 585 1072 z "},"ĉ":{"ha":654,"x_min":108,"x_max":569,"o":"m 569 806 l 546 783 l 371 960 l 189 783 l 167 806 l 372 1001 l 569 806 m 135 235 q 171 99 133 151 q 267 28 208 46 q 396 11 326 11 q 549 35 465 11 l 556 8 q 394 -15 467 -15 q 253 7 322 -15 q 108 250 108 54 l 108 428 q 147 593 108 526 q 367 708 214 708 q 553 664 458 708 l 543 636 q 368 681 458 681 q 264 662 317 681 q 173 583 211 643 q 135 436 135 524 l 135 235 z "},"Ċ":{"ha":597,"x_min":92,"x_max":593,"o":"m 388 1088 q 388 1079 388 1088 q 369 1069 388 1069 q 350 1088 350 1069 q 369 1107 350 1107 q 388 1088 388 1107 m 361 10 q 585 57 463 10 l 593 32 q 368 -14 475 -14 q 301 -10 346 -14 q 205 22 256 -6 q 123 108 154 49 q 92 254 92 167 l 92 700 q 122 860 92 806 q 213 951 151 914 q 361 986 274 986 q 558 940 474 986 l 547 917 q 365 960 450 960 q 256 941 303 960 q 182 897 208 922 q 137 824 156 871 q 118 713 118 776 l 118 257 q 155 108 118 167 q 247 29 192 49 q 361 10 303 10 z "},"ċ":{"ha":610,"x_min":108,"x_max":556,"o":"m 386 822 q 386 812 386 822 q 367 803 386 803 q 349 822 349 803 q 367 840 349 840 q 386 822 386 840 m 135 235 q 171 99 133 151 q 267 28 208 46 q 396 11 326 11 q 549 35 465 11 l 556 8 q 394 -15 467 -15 q 253 7 322 -15 q 108 250 108 54 l 108 428 q 147 593 108 526 q 367 708 214 708 q 553 664 458 708 l 543 636 q 368 681 458 681 q 264 662 317 681 q 173 583 211 643 q 135 436 135 524 l 135 235 z "},"Č":{"ha":597,"x_min":92,"x_max":593,"o":"m 553 1214 l 356 1018 l 150 1214 l 171 1235 l 354 1060 l 532 1235 l 553 1214 m 361 10 q 585 57 463 10 l 593 32 q 368 -14 475 -14 q 301 -10 346 -14 q 205 22 256 -6 q 123 108 154 49 q 92 254 92 167 l 92 700 q 122 860 92 806 q 213 951 151 914 q 361 986 274 986 q 558 940 474 986 l 547 917 q 365 960 450 960 q 256 941 303 960 q 182 897 208 922 q 137 824 156 871 q 118 713 118 776 l 118 257 q 155 108 118 167 q 247 29 192 49 q 361 10 303 10 z "},"č":{"ha":611,"x_min":108,"x_max":557,"o":"m 557 950 l 360 754 l 154 950 l 175 971 l 358 796 l 536 971 l 557 950 m 135 235 q 171 99 133 151 q 267 28 208 46 q 396 11 326 11 q 549 35 465 11 l 556 8 q 394 -15 467 -15 q 253 7 322 -15 q 108 250 108 54 l 108 428 q 147 593 108 526 q 367 708 214 708 q 553 664 458 708 l 543 636 q 368 681 458 681 q 264 662 317 681 q 173 583 211 643 q 135 436 135 524 l 135 235 z "},"Ď":{"ha":800,"x_min":108,"x_max":692,"o":"m 578 1215 l 381 1019 l 175 1215 l 196 1236 l 379 1061 l 557 1236 l 578 1215 m 665 297 l 665 650 q 584 872 665 799 q 383 944 503 944 l 135 944 l 135 28 l 383 28 q 453 31 424 28 q 526 48 482 33 q 597 90 569 63 q 644 170 624 117 q 665 297 665 224 m 397 0 l 108 0 l 108 974 l 369 974 q 609 888 526 974 q 692 658 692 801 l 692 278 q 397 0 692 0 z "},"ď":{"ha":842,"x_min":108,"x_max":788,"o":"m 703 778 l 681 793 q 737 838 715 813 q 763 878 758 863 l 767 893 l 764 893 q 746 916 746 897 q 767 935 746 935 q 788 914 788 935 q 703 778 788 847 m 424 10 q 594 29 506 10 l 594 635 q 372 682 500 682 q 317 679 344 682 q 188 621 240 672 q 135 476 135 569 l 135 217 q 424 10 135 10 m 226 681 q 393 707 285 707 q 594 663 501 707 l 594 972 l 621 972 l 621 0 q 400 -17 501 -17 q 217 25 299 -17 q 108 218 108 81 l 108 481 q 226 681 108 626 z "},"Đ":{"ha":800,"x_min":108,"x_max":692,"o":"m 544 1068 l 243 1068 l 243 1094 l 544 1094 l 544 1068 m 665 297 l 665 650 q 584 872 665 799 q 383 944 503 944 l 135 944 l 135 28 l 383 28 q 453 31 424 28 q 526 48 482 33 q 597 90 569 63 q 644 170 624 117 q 665 297 665 224 m 397 0 l 108 0 l 108 974 l 369 974 q 609 888 526 974 q 692 658 692 801 l 692 278 q 397 0 692 0 z "},"đ":{"ha":760,"x_min":108,"x_max":706,"o":"m 424 10 q 594 29 506 10 l 594 635 q 372 682 500 682 q 317 679 344 682 q 188 621 240 672 q 135 476 135 569 l 135 217 q 424 10 135 10 m 226 681 q 393 707 285 707 q 594 663 501 707 l 594 831 l 381 831 l 381 857 l 594 857 l 594 972 l 621 972 l 621 857 l 706 857 l 706 831 l 621 831 l 621 0 q 400 -17 501 -17 q 217 25 299 -17 q 108 218 108 81 l 108 481 q 226 681 108 626 z "},"Ē":{"ha":646,"x_min":108,"x_max":572,"o":"m 489 1068 l 188 1068 l 188 1094 l 489 1094 l 489 1068 m 569 0 l 108 0 l 108 972 l 572 972 l 572 946 l 135 946 l 135 574 l 451 574 l 442 547 l 135 547 l 135 26 l 569 26 l 569 0 z "},"ē":{"ha":625,"x_min":49,"x_max":549,"o":"m 453 801 l 151 801 l 151 828 l 453 828 l 453 801 m 522 369 l 522 476 q 458 634 522 586 q 301 682 393 682 q 142 631 210 682 q 75 472 75 581 l 75 344 l 522 369 m 274 6 q 501 72 383 6 l 514 49 q 290 -17 407 -17 q 49 186 49 -17 l 49 471 q 119 646 49 583 q 304 708 189 708 q 484 647 419 708 q 549 475 549 585 l 549 343 l 75 319 l 75 183 q 135 49 75 92 q 274 6 194 6 z "},"Ė":{"ha":646,"x_min":108,"x_max":572,"o":"m 374 1088 q 374 1079 374 1088 q 355 1069 374 1069 q 336 1088 336 1069 q 355 1107 336 1107 q 374 1088 374 1107 m 569 0 l 108 0 l 108 972 l 572 972 l 572 946 l 135 946 l 135 574 l 451 574 l 442 547 l 135 547 l 135 26 l 569 26 l 569 0 z "},"ė":{"ha":663,"x_min":108,"x_max":608,"o":"m 393 822 q 393 812 393 822 q 374 803 393 803 q 356 822 356 803 q 374 840 356 840 q 393 822 393 840 m 582 369 l 582 476 q 517 634 582 586 q 361 682 453 682 q 202 631 269 682 q 135 472 135 581 l 135 344 l 582 369 m 333 6 q 561 72 443 6 l 574 49 q 350 -17 467 -17 q 108 186 108 -17 l 108 471 q 178 646 108 583 q 364 708 249 708 q 544 647 479 708 q 608 475 608 585 l 608 343 l 135 319 l 135 183 q 194 49 135 92 q 333 6 254 6 z "},"Ę":{"ha":739,"x_min":108,"x_max":665,"o":"m 643 -204 l 665 -226 q 532 -296 621 -296 q 464 -281 497 -296 q 403 -178 403 -251 q 536 0 403 -90 l 108 0 l 108 972 l 572 972 l 572 946 l 135 946 l 135 574 l 451 574 l 442 547 l 135 547 l 135 26 l 569 26 l 569 0 q 431 -181 431 -94 q 460 -243 431 -218 q 532 -268 490 -268 q 643 -204 603 -268 z "},"ę":{"ha":603,"x_min":49,"x_max":549,"o":"m 522 369 l 522 476 q 458 634 522 586 q 301 682 393 682 q 142 631 210 682 q 75 472 75 581 l 75 344 l 522 369 m 274 6 q 501 72 383 6 l 514 49 q 308 -15 419 -8 q 192 -181 192 -101 q 222 -243 192 -218 q 293 -268 251 -268 q 404 -204 364 -268 l 426 -226 q 293 -296 382 -296 q 225 -281 258 -296 q 164 -174 164 -251 q 274 -17 164 -97 q 109 34 169 -17 q 49 186 49 85 l 49 471 q 119 646 49 583 q 304 708 189 708 q 484 647 419 708 q 549 475 549 585 l 549 343 l 75 319 l 75 183 q 135 49 75 92 q 274 6 194 6 z "},"Ě":{"ha":646,"x_min":108,"x_max":572,"o":"m 543 1215 l 346 1019 l 140 1215 l 161 1236 l 344 1061 l 522 1236 l 543 1215 m 569 0 l 108 0 l 108 972 l 572 972 l 572 946 l 135 946 l 135 574 l 451 574 l 442 547 l 135 547 l 135 26 l 569 26 l 569 0 z "},"ě":{"ha":663,"x_min":108,"x_max":608,"o":"m 565 949 l 368 753 l 163 949 l 183 969 l 367 794 l 544 969 l 565 949 m 582 369 l 582 476 q 517 634 582 586 q 361 682 453 682 q 202 631 269 682 q 135 472 135 581 l 135 344 l 582 369 m 333 6 q 561 72 443 6 l 574 49 q 350 -17 467 -17 q 108 186 108 -17 l 108 471 q 178 646 108 583 q 364 708 249 708 q 544 647 479 708 q 608 475 608 585 l 608 343 l 135 319 l 135 183 q 194 49 135 92 q 333 6 254 6 z "},"Ĝ":{"ha":746,"x_min":90,"x_max":661,"o":"m 590 1072 l 567 1050 l 392 1226 l 210 1050 l 188 1072 l 393 1268 l 590 1072 m 547 915 q 364 960 444 960 q 185 897 250 960 q 137 816 157 869 q 117 690 117 763 l 117 260 q 189 82 117 151 q 390 13 261 13 q 576 82 518 13 q 635 253 635 151 l 635 390 l 481 390 l 469 417 l 661 417 l 661 0 l 635 0 l 635 122 q 383 -14 571 -14 q 176 56 261 -14 q 90 263 90 125 l 90 699 q 211 950 90 876 q 360 985 274 985 q 557 939 467 985 l 547 915 z "},"ĝ":{"ha":688,"x_min":108,"x_max":632,"o":"m 606 222 l 606 551 q 376 682 554 682 q 194 615 264 682 q 152 546 169 590 q 135 444 135 501 l 135 232 q 194 70 135 132 q 367 8 253 8 q 564 97 493 8 q 606 222 606 147 m 483 -292 l 475 -267 q 523 -246 507 -254 q 561 -218 539 -237 q 606 -87 606 -181 l 606 104 q 367 -17 525 -17 q 176 50 244 -17 q 108 244 108 117 l 108 451 q 182 641 108 574 q 376 708 256 708 q 606 607 533 708 l 606 696 l 632 696 l 632 -89 q 597 -219 632 -172 q 483 -292 563 -267 m 579 806 l 556 783 l 381 960 l 199 783 l 176 806 l 382 1001 l 579 806 z "},"Ğ":{"ha":746,"x_min":90,"x_max":661,"o":"m 540 1175 l 540 1168 q 494 1057 540 1103 q 383 1011 447 1011 q 273 1057 319 1011 q 226 1168 226 1103 l 226 1175 l 256 1175 l 256 1168 q 290 1081 256 1122 q 382 1039 325 1039 q 475 1081 439 1039 q 511 1168 511 1124 l 511 1175 l 540 1175 m 547 915 q 364 960 444 960 q 185 897 250 960 q 137 816 157 869 q 117 690 117 763 l 117 260 q 189 82 117 151 q 390 13 261 13 q 576 82 518 13 q 635 253 635 151 l 635 390 l 481 390 l 469 417 l 661 417 l 661 0 l 635 0 l 635 122 q 383 -14 571 -14 q 176 56 261 -14 q 90 263 90 125 l 90 699 q 211 950 90 876 q 360 985 274 985 q 557 939 467 985 l 547 915 z "},"ğ":{"ha":686,"x_min":108,"x_max":632,"o":"m 606 222 l 606 551 q 376 682 554 682 q 194 615 264 682 q 152 546 169 590 q 135 444 135 501 l 135 232 q 194 70 135 132 q 367 8 253 8 q 564 97 493 8 q 606 222 606 147 m 483 -292 l 475 -267 q 523 -246 507 -254 q 561 -218 539 -237 q 606 -87 606 -181 l 606 104 q 367 -17 525 -17 q 176 50 244 -17 q 108 244 108 117 l 108 451 q 182 641 108 574 q 376 708 256 708 q 606 607 533 708 l 606 696 l 632 696 l 632 -89 q 597 -219 632 -172 q 483 -292 563 -267 m 549 903 l 549 896 q 502 785 549 831 q 392 739 456 739 q 281 785 328 739 q 235 896 235 831 l 235 903 l 264 903 l 264 896 q 299 808 264 850 q 390 767 333 767 q 483 809 447 767 q 519 896 519 851 l 519 903 l 549 903 z "},"Ġ":{"ha":786,"x_min":90,"x_max":661,"o":"m 397 1087 q 397 1077 397 1087 q 378 1068 397 1068 q 360 1087 360 1068 q 378 1106 360 1106 q 397 1087 397 1106 m 547 915 q 364 960 444 960 q 185 897 250 960 q 137 816 157 869 q 117 690 117 763 l 117 260 q 189 82 117 151 q 390 13 261 13 q 576 82 518 13 q 635 253 635 151 l 635 390 l 481 390 l 469 417 l 661 417 l 661 0 l 635 0 l 635 122 q 383 -14 571 -14 q 176 56 261 -14 q 90 263 90 125 l 90 699 q 211 950 90 876 q 360 985 274 985 q 557 939 467 985 l 547 915 z "},"ġ":{"ha":686,"x_min":108,"x_max":632,"o":"m 606 222 l 606 551 q 376 682 554 682 q 194 615 264 682 q 152 546 169 590 q 135 444 135 501 l 135 232 q 194 70 135 132 q 367 8 253 8 q 564 97 493 8 q 606 222 606 147 m 483 -292 l 475 -267 q 523 -246 507 -254 q 561 -218 539 -237 q 606 -87 606 -181 l 606 104 q 367 -17 525 -17 q 176 50 244 -17 q 108 244 108 117 l 108 451 q 182 641 108 574 q 376 708 256 708 q 606 607 533 708 l 606 696 l 632 696 l 632 -89 q 597 -219 632 -172 q 483 -292 563 -267 m 407 820 q 407 811 407 820 q 388 801 407 801 q 369 820 369 801 q 388 839 369 839 q 407 820 407 839 z "},"Ģ":{"ha":746,"x_min":90,"x_max":661,"o":"m 328 -256 l 306 -240 q 362 -196 340 -221 q 388 -156 383 -171 l 392 -140 l 389 -140 q 371 -117 371 -136 q 392 -99 371 -99 q 413 -119 413 -99 q 328 -256 413 -186 m 547 915 q 364 960 444 960 q 185 897 250 960 q 137 816 157 869 q 117 690 117 763 l 117 260 q 189 82 117 151 q 390 13 261 13 q 576 82 518 13 q 635 253 635 151 l 635 390 l 481 390 l 469 417 l 661 417 l 661 0 l 635 0 l 635 122 q 383 -14 571 -14 q 176 56 261 -14 q 90 263 90 125 l 90 699 q 211 950 90 876 q 360 985 274 985 q 557 939 467 985 l 547 915 z "},"ģ":{"ha":686,"x_min":108,"x_max":632,"o":"m 350 844 l 353 844 q 371 822 371 840 q 350 803 371 803 q 329 824 329 803 q 414 960 329 890 l 436 944 q 380 900 401 925 q 354 860 358 875 l 350 844 m 606 222 l 606 551 q 376 682 554 682 q 194 615 264 682 q 152 546 169 590 q 135 444 135 501 l 135 232 q 194 70 135 132 q 367 8 253 8 q 564 97 493 8 q 606 222 606 147 m 483 -292 l 475 -267 q 523 -246 507 -254 q 561 -218 539 -237 q 606 -87 606 -181 l 606 104 q 367 -17 525 -17 q 176 50 244 -17 q 108 244 108 117 l 108 451 q 182 641 108 574 q 376 708 256 708 q 606 607 533 708 l 606 696 l 632 696 l 632 -89 q 597 -219 632 -172 q 483 -292 563 -267 z "},"Ĥ":{"ha":817,"x_min":108,"x_max":706,"o":"m 611 1072 l 588 1050 l 413 1226 l 231 1050 l 208 1072 l 414 1268 l 611 1072 m 706 0 l 679 0 l 679 547 l 135 547 l 135 0 l 108 0 l 108 972 l 135 972 l 135 574 l 679 574 l 679 972 l 706 972 l 706 0 z "},"ĥ":{"ha":804,"x_min":25,"x_max":721,"o":"m 235 660 q 438 708 329 708 q 603 679 546 708 q 721 481 721 625 l 721 0 l 694 0 l 694 482 q 645 617 694 567 q 524 678 596 668 q 460 682 492 682 q 235 631 333 682 l 235 0 l 208 0 l 208 972 l 235 972 l 235 660 m 428 1072 l 404 1050 l 229 1226 l 47 1050 l 25 1072 l 231 1268 l 428 1072 z "},"Ħ":{"ha":951,"x_min":108,"x_max":840,"o":"m 747 574 l 747 721 l 203 721 l 203 574 l 747 574 m 774 0 l 747 0 l 747 547 l 203 547 l 203 0 l 176 0 l 176 721 l 108 721 l 108 747 l 176 747 l 176 972 l 203 972 l 203 747 l 747 747 l 747 972 l 774 972 l 774 747 l 840 747 l 840 721 l 774 721 l 774 0 z "},"ħ":{"ha":761,"x_min":108,"x_max":707,"o":"m 221 660 q 424 708 315 708 q 589 679 532 708 q 707 481 707 625 l 707 0 l 681 0 l 681 482 q 631 617 681 567 q 510 678 582 668 q 446 682 478 682 q 221 631 319 682 l 221 0 l 194 0 l 194 831 l 108 831 l 108 857 l 194 857 l 194 972 l 221 972 l 221 857 l 433 857 l 433 831 l 221 831 l 221 660 z "},"Ĩ":{"ha":665,"x_min":108,"x_max":554,"o":"m 246 1147 q 374 1103 283 1147 q 453 1086 408 1086 q 540 1131 497 1086 l 554 1107 q 440 1058 501 1058 q 369 1074 404 1058 q 302 1104 335 1090 q 240 1118 269 1118 q 124 1057 176 1118 l 108 1079 q 246 1147 174 1147 m 372 0 l 346 0 l 346 943 l 226 946 l 226 972 l 372 972 l 372 0 z "},"ĩ":{"ha":608,"x_min":108,"x_max":554,"o":"m 346 0 l 319 0 l 319 696 l 346 696 l 346 0 m 246 871 q 374 826 283 871 q 453 810 408 810 q 540 854 497 810 l 554 831 q 440 782 501 782 q 369 798 404 782 q 302 828 335 814 q 240 842 269 842 q 124 781 176 842 l 108 803 q 246 871 174 871 z "},"Ī":{"ha":519,"x_min":108,"x_max":408,"o":"m 408 1068 l 108 1068 l 108 1094 l 408 1094 l 408 1068 m 315 0 l 289 0 l 289 943 l 169 946 l 169 972 l 315 972 l 315 0 z "},"ī":{"ha":464,"x_min":108,"x_max":410,"o":"m 278 0 l 251 0 l 251 696 l 278 696 l 278 0 m 410 801 l 108 801 l 108 828 l 410 828 l 410 801 z "},"Į":{"ha":482,"x_min":108,"x_max":371,"o":"m 349 -204 l 371 -226 q 238 -296 326 -296 q 169 -281 203 -296 q 108 -178 108 -251 q 242 0 108 -90 l 246 0 l 246 943 l 126 946 l 126 972 l 272 972 l 272 0 l 275 0 q 136 -181 136 -94 q 166 -243 136 -218 q 238 -268 196 -268 q 349 -204 308 -268 z "},"į":{"ha":435,"x_min":-4,"x_max":258,"o":"m 236 -204 l 258 -226 q 125 -296 214 -296 q 57 -281 90 -296 q -4 -178 -4 -251 q 129 0 -4 -90 l 163 0 q 24 -181 24 -94 q 53 -243 24 -218 q 125 -268 83 -268 q 236 -204 196 -268 m 163 967 q 163 958 163 967 q 144 949 163 949 q 125 967 125 949 q 144 986 125 986 q 163 967 163 986 m 157 0 l 131 0 l 131 696 l 157 696 l 157 0 z "},"İ":{"ha":371,"x_min":108,"x_max":260,"o":"m 260 1088 q 260 1079 260 1088 q 241 1069 260 1069 q 222 1088 222 1069 q 241 1107 222 1107 q 260 1088 260 1107 m 254 0 l 228 0 l 228 943 l 108 946 l 108 972 l 254 972 l 254 0 z "},"ı":{"ha":176,"x_min":72,"x_max":99,"o":"m 99 0 l 72 0 l 72 696 l 99 696 l 99 0 z "},"Ĵ":{"ha":343,"x_min":4,"x_max":318,"o":"m 318 1175 l 318 1168 q 272 1057 318 1103 q 161 1011 225 1011 q 51 1057 97 1011 q 4 1168 4 1103 l 4 1175 l 33 1175 l 33 1168 q 68 1081 33 1122 q 160 1039 103 1039 q 253 1081 217 1039 q 289 1168 289 1124 l 289 1175 l 318 1175 m 33 -51 l 25 -26 q 153 164 153 -8 l 153 943 l 36 946 l 36 972 l 178 972 l 178 169 q 144 14 178 65 q 33 -51 111 -37 z "},"ĵ":{"ha":565,"x_min":107,"x_max":510,"o":"m 294 -114 l 294 669 l 190 669 l 175 696 l 321 696 l 321 -115 q 175 -290 321 -268 l 171 -265 q 210 -255 186 -265 q 251 -230 235 -244 q 281 -185 268 -215 q 294 -114 294 -154 m 510 806 l 486 783 l 311 960 l 129 783 l 107 806 l 313 1001 l 510 806 z "},"Ķ":{"ha":665,"x_min":110,"x_max":661,"o":"m 313 -256 l 290 -240 q 347 -196 325 -221 q 372 -156 368 -171 l 376 -140 l 374 -140 q 356 -117 356 -136 q 376 -99 356 -99 q 397 -119 397 -99 q 313 -256 397 -186 m 661 0 l 632 0 l 271 560 l 136 389 l 136 0 l 110 0 l 110 974 l 136 974 l 136 428 l 558 974 l 589 974 l 288 581 l 661 0 z "},"ķ":{"ha":658,"x_min":93,"x_max":603,"o":"m 279 -256 l 257 -240 q 313 -196 292 -221 q 339 -156 335 -171 l 343 -140 l 340 -140 q 322 -117 322 -136 q 343 -99 322 -99 q 364 -119 364 -99 q 279 -256 364 -186 m 603 0 l 571 0 l 257 508 l 119 385 l 119 0 l 93 0 l 93 972 l 119 972 l 119 418 l 449 722 l 468 704 l 276 528 q 603 0 424 283 z "},"ĸ":{"ha":675,"x_min":108,"x_max":621,"o":"m 621 26 l 621 -1 q 444 136 543 -1 l 265 386 l 135 249 l 135 0 l 108 0 l 108 711 l 135 704 l 135 285 l 513 696 l 550 696 l 283 406 l 460 157 q 621 26 557 26 z "},"Ĺ":{"ha":611,"x_min":108,"x_max":610,"o":"m 140 1014 l 114 1014 l 190 1192 q 211 1210 197 1210 q 222 1207 217 1210 q 228 1171 244 1197 l 140 1014 m 610 0 l 108 0 l 108 972 l 135 972 l 135 28 l 610 28 l 610 0 z "},"ĺ":{"ha":340,"x_min":119,"x_max":240,"o":"m 146 1019 l 119 1019 l 196 1197 q 217 1215 203 1215 q 240 1196 240 1215 q 233 1176 240 1188 l 146 1019 m 147 0 l 121 0 l 121 972 l 147 972 l 147 0 z "},"Ļ":{"ha":611,"x_min":108,"x_max":610,"o":"m 328 -256 l 306 -240 q 362 -196 340 -221 q 388 -156 383 -171 l 392 -140 l 389 -140 q 371 -117 371 -136 q 392 -99 371 -99 q 413 -119 413 -99 q 328 -256 413 -186 m 610 0 l 108 0 l 108 972 l 135 972 l 135 28 l 610 28 l 610 0 z "},"ļ":{"ha":326,"x_min":108,"x_max":215,"o":"m 131 -256 l 108 -240 q 165 -196 143 -221 q 190 -156 186 -171 l 194 -140 l 192 -140 q 174 -117 174 -136 q 194 -99 174 -99 q 215 -119 215 -99 q 131 -256 215 -186 m 192 0 l 165 0 l 165 972 l 192 972 l 192 0 z "},"Ľ":{"ha":608,"x_min":-86,"x_max":607,"o":"m 317 1215 l 119 1019 l -86 1215 l -65 1236 l 118 1061 l 296 1236 l 317 1215 m 607 0 l 106 0 l 106 972 l 132 972 l 132 28 l 607 28 l 607 0 z "},"ľ":{"ha":276,"x_min":-57,"x_max":346,"o":"m 346 1215 l 149 1019 l -57 1215 l -36 1236 l 147 1061 l 325 1236 l 346 1215 m 157 0 l 131 0 l 131 972 l 157 972 l 157 0 z "},"Ł":{"ha":835,"x_min":108,"x_max":781,"o":"m 781 0 l 279 0 l 279 546 l 118 474 l 108 497 l 279 574 l 279 972 l 306 972 l 306 586 l 513 679 l 524 656 l 306 557 l 306 28 l 781 28 l 781 0 z "},"ł":{"ha":578,"x_min":108,"x_max":524,"o":"m 331 0 l 304 0 l 304 557 l 118 474 l 108 497 l 304 585 l 304 943 l 185 946 l 185 972 l 331 972 l 331 597 l 513 679 l 524 656 l 331 568 l 331 0 z "},"Ń":{"ha":903,"x_min":108,"x_max":792,"o":"m 413 1014 l 386 1014 l 463 1192 q 483 1210 469 1210 q 494 1207 489 1210 q 500 1171 517 1197 l 413 1014 m 792 0 l 768 0 l 133 931 l 133 0 l 108 0 l 108 972 l 133 972 l 768 44 l 768 972 l 792 972 l 792 0 z "},"ń":{"ha":675,"x_min":108,"x_max":621,"o":"m 347 747 l 321 747 l 397 925 q 418 943 404 943 q 429 940 424 943 q 435 904 451 931 l 347 747 m 135 660 q 338 708 229 708 q 503 679 446 708 q 621 481 621 625 l 621 0 l 594 0 l 594 482 q 544 615 594 565 q 356 682 479 682 q 135 631 232 682 l 135 0 l 108 0 l 108 696 l 135 696 l 135 660 z "},"Ņ":{"ha":903,"x_min":108,"x_max":792,"o":"m 429 -256 l 407 -240 q 463 -196 442 -221 q 489 -156 485 -171 l 493 -140 l 490 -140 q 472 -117 472 -136 q 493 -99 472 -99 q 514 -119 514 -99 q 429 -256 514 -186 m 792 0 l 768 0 l 133 931 l 133 0 l 108 0 l 108 972 l 133 972 l 768 44 l 768 972 l 792 972 l 792 0 z "},"ņ":{"ha":694,"x_min":89,"x_max":601,"o":"m 296 -256 l 274 -240 q 330 -196 308 -221 q 356 -156 351 -171 l 360 -140 l 357 -140 q 339 -117 339 -136 q 360 -99 339 -99 q 381 -119 381 -99 q 296 -256 381 -186 m 115 660 q 318 708 210 708 q 483 679 426 708 q 601 481 601 625 l 601 0 l 575 0 l 575 482 q 525 615 575 565 q 336 682 460 682 q 115 631 213 682 l 115 0 l 89 0 l 89 696 l 115 696 l 115 660 z "},"Ň":{"ha":903,"x_min":108,"x_max":792,"o":"m 658 1215 l 461 1019 l 256 1215 l 276 1236 l 460 1061 l 638 1236 l 658 1215 m 792 0 l 768 0 l 133 931 l 133 0 l 108 0 l 108 972 l 133 972 l 768 44 l 768 972 l 792 972 l 792 0 z "},"ň":{"ha":675,"x_min":108,"x_max":621,"o":"m 585 1018 l 388 822 l 182 1018 l 203 1039 l 386 864 l 564 1039 l 585 1018 m 135 660 q 338 708 229 708 q 503 679 446 708 q 621 481 621 625 l 621 0 l 594 0 l 594 482 q 544 615 594 565 q 356 682 479 682 q 135 631 232 682 l 135 0 l 108 0 l 108 696 l 135 696 l 135 660 z "},"Ŋ":{"ha":903,"x_min":108,"x_max":792,"o":"m 647 -51 l 639 -26 q 740 39 708 -15 q 437 485 639 188 q 133 931 235 782 l 133 0 l 108 0 l 108 972 l 133 972 q 444 518 238 822 q 754 64 651 214 q 767 169 767 101 l 767 943 l 650 946 l 650 972 l 792 972 l 792 169 q 758 14 792 65 q 647 -51 725 -37 z "},"ŋ":{"ha":696,"x_min":89,"x_max":603,"o":"m 115 660 q 318 708 210 708 q 483 679 426 708 q 601 490 596 626 l 603 492 l 603 -115 q 457 -290 603 -268 l 453 -265 q 492 -253 467 -265 q 533 -225 517 -242 q 576 -103 576 -185 l 575 482 q 525 615 575 565 q 336 682 460 682 q 115 631 213 682 l 115 0 l 89 0 l 89 696 l 115 696 l 115 660 z "},"Ō":{"ha":763,"x_min":88,"x_max":671,"o":"m 524 1068 l 222 1068 l 222 1094 l 524 1094 l 524 1068 m 644 256 l 644 708 q 578 897 644 828 q 379 965 511 965 q 181 895 247 965 q 114 706 114 825 l 114 256 q 192 73 114 135 q 381 11 269 11 q 568 69 492 11 q 644 256 644 128 m 671 703 l 671 257 q 585 51 671 117 q 381 -15 500 -15 q 174 51 261 -15 q 88 257 88 117 l 88 704 q 166 921 88 847 q 382 994 244 994 q 595 917 519 994 q 671 703 671 839 z "},"ō":{"ha":681,"x_min":108,"x_max":626,"o":"m 517 801 l 217 801 l 217 828 l 517 828 l 517 801 m 600 256 l 600 444 q 534 624 600 564 q 368 685 468 685 q 201 624 268 685 q 135 444 135 564 l 135 256 q 192 83 135 154 q 367 11 249 11 q 543 81 486 11 q 600 256 600 151 m 626 439 l 626 256 q 563 63 626 139 q 369 -14 499 -14 q 174 63 240 -14 q 108 256 108 140 l 108 439 q 176 641 108 571 q 367 711 243 711 q 558 638 490 711 q 626 439 626 565 z "},"Ő":{"ha":763,"x_min":88,"x_max":671,"o":"m 289 1015 l 263 1015 l 339 1193 q 360 1211 346 1211 q 371 1208 365 1211 q 376 1172 393 1199 l 289 1015 m 444 1015 l 418 1015 l 494 1193 q 515 1211 501 1211 q 526 1208 521 1211 q 532 1172 549 1199 l 444 1015 m 644 256 l 644 708 q 578 897 644 828 q 379 965 511 965 q 181 895 247 965 q 114 706 114 825 l 114 256 q 192 73 114 135 q 381 11 269 11 q 568 69 492 11 q 644 256 644 128 m 671 703 l 671 257 q 585 51 671 117 q 381 -15 500 -15 q 174 51 261 -15 q 88 257 88 117 l 88 704 q 166 921 88 847 q 382 994 244 994 q 595 917 519 994 q 671 703 671 839 z "},"ő":{"ha":681,"x_min":108,"x_max":626,"o":"m 271 754 l 244 754 l 321 932 q 342 950 328 950 q 353 947 347 950 q 358 911 375 938 l 271 754 m 426 754 l 400 754 l 476 932 q 497 950 483 950 q 508 947 503 950 q 514 911 531 938 l 426 754 m 600 256 l 600 444 q 534 624 600 564 q 368 685 468 685 q 201 624 268 685 q 135 444 135 564 l 135 256 q 192 83 135 154 q 367 11 249 11 q 543 81 486 11 q 600 256 600 151 m 626 439 l 626 256 q 563 63 626 139 q 369 -14 499 -14 q 174 63 240 -14 q 108 256 108 140 l 108 439 q 176 641 108 571 q 367 711 243 711 q 558 638 490 711 q 626 439 626 565 z "},"Œ":{"ha":1186,"x_min":108,"x_max":1132,"o":"m 665 256 l 665 708 q 599 897 665 828 q 400 965 532 965 q 201 895 268 965 q 135 706 135 825 l 135 256 q 213 73 135 135 q 401 11 290 11 q 589 69 513 11 q 665 256 665 128 m 1129 0 l 668 0 l 668 133 q 562 21 635 57 q 401 -15 489 -15 q 195 51 282 -15 q 108 257 108 117 l 108 704 q 187 921 108 847 q 403 994 265 994 q 668 836 604 994 l 668 972 l 1132 972 l 1132 946 l 694 946 l 694 574 l 1011 574 l 1001 547 l 694 547 l 694 26 l 1129 26 l 1129 0 z "},"œ":{"ha":1104,"x_min":108,"x_max":1050,"o":"m 1024 365 l 1024 485 q 963 638 1024 590 q 813 685 903 685 q 662 624 724 685 q 600 469 600 563 l 600 347 l 1024 365 m 367 686 q 135 439 135 686 l 135 242 q 198 72 135 132 q 358 13 261 13 q 513 72 454 13 q 572 221 572 131 l 572 463 q 513 627 572 568 q 367 686 453 686 m 786 4 q 1004 69 890 4 l 1015 49 q 776 -17 907 -17 q 654 19 708 -17 q 582 124 600 54 q 492 23 551 60 q 358 -14 432 -14 q 169 63 231 -14 q 108 256 108 139 l 108 439 q 173 641 108 571 q 363 711 238 711 q 506 667 446 711 q 585 547 565 622 q 668 665 610 621 q 827 708 726 708 q 989 647 928 708 q 1050 475 1050 585 l 1050 342 l 600 318 l 600 188 q 657 47 600 90 q 786 4 714 4 z "},"Ŕ":{"ha":783,"x_min":108,"x_max":713,"o":"m 342 1014 l 315 1014 l 392 1192 q 413 1210 399 1210 q 424 1207 418 1210 q 429 1171 446 1197 l 342 1014 m 136 417 l 439 417 q 624 493 565 417 q 683 686 683 569 q 622 874 683 803 q 439 944 560 944 l 136 944 l 136 417 m 713 0 l 683 0 l 496 393 q 461 390 471 390 l 136 390 l 136 0 l 108 0 l 108 972 l 440 972 q 644 892 578 972 q 711 675 711 811 q 678 525 711 603 q 619 449 660 482 q 522 399 579 415 l 713 0 z "},"ŕ":{"ha":510,"x_min":108,"x_max":456,"o":"m 218 747 l 192 747 l 268 925 q 289 943 275 943 q 300 940 294 943 q 306 904 322 931 l 218 747 m 135 0 l 108 0 l 108 696 l 135 696 l 135 622 q 350 707 215 707 q 456 696 399 707 l 447 667 q 342 682 396 682 q 233 658 289 682 q 135 554 135 618 l 135 0 z "},"Ŗ":{"ha":783,"x_min":108,"x_max":713,"o":"m 342 -256 l 319 -240 q 376 -196 354 -221 q 401 -156 397 -171 l 406 -140 l 403 -140 q 385 -117 385 -136 q 406 -99 385 -99 q 426 -119 426 -99 q 342 -256 426 -186 m 136 417 l 439 417 q 624 493 565 417 q 683 686 683 569 q 622 874 683 803 q 439 944 560 944 l 136 944 l 136 417 m 713 0 l 683 0 l 496 393 q 461 390 471 390 l 136 390 l 136 0 l 108 0 l 108 972 l 440 972 q 644 892 578 972 q 711 675 711 811 q 678 525 711 603 q 619 449 660 482 q 522 399 579 415 l 713 0 z "},"ŗ":{"ha":528,"x_min":85,"x_max":432,"o":"m 147 -256 l 125 -240 q 181 -196 160 -221 q 207 -156 203 -171 l 211 -140 l 208 -140 q 190 -117 190 -136 q 211 -99 190 -99 q 232 -119 232 -99 q 147 -256 232 -186 m 111 0 l 85 0 l 85 696 l 111 696 l 111 622 q 326 707 192 707 q 432 696 375 707 l 424 667 q 319 682 372 682 q 211 658 265 682 q 111 554 111 618 l 111 0 z "},"Ř":{"ha":783,"x_min":108,"x_max":713,"o":"m 593 1215 l 396 1019 l 190 1215 l 211 1236 l 394 1061 l 572 1236 l 593 1215 m 136 417 l 439 417 q 624 493 565 417 q 683 686 683 569 q 622 874 683 803 q 439 944 560 944 l 136 944 l 136 417 m 713 0 l 683 0 l 496 393 q 461 390 471 390 l 136 390 l 136 0 l 108 0 l 108 972 l 440 972 q 644 892 578 972 q 711 675 711 811 q 678 525 711 603 q 619 449 660 482 q 522 399 579 415 l 713 0 z "},"ř":{"ha":565,"x_min":108,"x_max":511,"o":"m 511 1018 l 314 822 l 108 1018 l 129 1039 l 313 864 l 490 1039 l 511 1018 m 136 0 l 110 0 l 110 696 l 136 696 l 136 622 q 351 707 217 707 q 457 696 400 707 l 449 667 q 344 682 397 682 q 236 658 290 682 q 136 554 136 618 l 136 0 z "},"Ś":{"ha":779,"x_min":51,"x_max":711,"o":"m 360 1021 l 333 1021 l 410 1199 q 431 1217 417 1217 q 442 1214 436 1217 q 447 1178 464 1204 l 360 1021 m 51 247 l 82 247 q 159 85 82 161 q 375 10 236 10 q 598 69 514 10 q 682 260 682 129 q 637 377 682 328 q 525 451 592 426 q 379 504 458 476 q 233 557 300 532 q 122 631 167 582 q 76 747 76 679 q 157 915 76 844 q 389 986 238 986 q 592 944 504 986 l 581 917 q 383 960 497 960 q 188 903 269 960 q 106 743 106 846 q 168 626 106 674 q 319 551 231 579 q 497 492 408 524 q 649 403 586 461 q 711 260 711 346 q 631 59 711 133 q 389 -15 550 -15 q 141 65 228 -15 q 51 247 54 144 z "},"ś":{"ha":615,"x_min":61,"x_max":561,"o":"m 290 747 l 264 747 l 340 925 q 361 943 347 943 q 372 940 367 943 q 378 904 394 931 l 290 747 m 458 647 q 310 685 392 685 q 169 645 228 685 q 111 535 111 606 q 162 441 111 472 q 278 391 213 410 q 408 350 343 372 q 517 284 472 328 q 561 166 561 240 q 499 35 561 92 q 319 -21 438 -21 q 132 36 200 -21 q 61 176 64 93 l 88 176 q 151 56 93 106 q 313 6 210 6 q 475 53 415 6 q 535 165 535 100 q 491 269 535 231 q 384 328 447 308 q 256 368 321 349 q 86 507 99 415 q 85 532 85 519 q 137 653 85 594 q 315 713 189 713 q 397 702 358 713 q 453 681 436 692 l 471 671 l 458 647 z "},"Ŝ":{"ha":779,"x_min":51,"x_max":711,"o":"m 606 1072 l 582 1050 l 407 1226 l 225 1050 l 203 1072 l 408 1268 l 606 1072 m 51 247 l 82 247 q 159 85 82 161 q 375 10 236 10 q 598 69 514 10 q 682 260 682 129 q 637 377 682 328 q 525 451 592 426 q 379 504 458 476 q 233 557 300 532 q 122 631 167 582 q 76 747 76 679 q 157 915 76 844 q 389 986 238 986 q 592 944 504 986 l 581 917 q 383 960 497 960 q 188 903 269 960 q 106 743 106 846 q 168 626 106 674 q 319 551 231 579 q 497 492 408 524 q 649 403 586 461 q 711 260 711 346 q 631 59 711 133 q 389 -15 550 -15 q 141 65 228 -15 q 51 247 54 144 z "},"ŝ":{"ha":663,"x_min":108,"x_max":608,"o":"m 506 647 q 357 685 439 685 q 217 645 275 685 q 158 535 158 606 q 209 441 158 472 q 325 391 260 410 q 455 350 390 372 q 564 284 519 328 q 608 166 608 240 q 547 35 608 92 q 366 -21 485 -21 q 179 36 247 -21 q 108 176 111 93 l 135 176 q 199 56 140 106 q 360 6 257 6 q 522 53 463 6 q 582 165 582 100 q 538 269 582 231 q 431 328 494 308 q 303 368 368 349 q 133 507 146 415 q 132 532 132 519 q 184 653 132 594 q 363 713 236 713 q 444 702 406 713 q 500 681 483 692 l 518 671 l 506 647 m 564 806 l 540 783 l 365 960 l 183 783 l 161 806 l 367 1001 l 564 806 z "},"ş":{"ha":599,"x_min":50,"x_max":550,"o":"m 257 -78 q 328 -64 283 -64 q 413 -86 374 -64 q 453 -172 453 -108 q 401 -263 453 -235 q 288 -292 350 -292 q 153 -265 225 -292 l 167 -236 q 279 -268 217 -268 q 384 -242 342 -268 q 426 -167 426 -217 q 378 -97 426 -117 q 328 -89 356 -89 q 268 -101 301 -89 l 211 -122 l 203 -108 l 272 -19 q 111 44 169 -11 q 50 176 53 100 l 76 176 q 140 56 82 106 q 301 6 199 6 q 464 53 404 6 q 524 165 524 100 q 480 269 524 231 q 373 328 436 308 q 244 368 310 349 q 75 507 88 415 q 74 532 74 519 q 126 653 74 594 q 304 713 178 713 q 386 702 347 713 q 442 681 425 692 l 460 671 l 447 647 q 299 685 381 685 q 158 645 217 685 q 100 535 100 606 q 151 441 100 472 q 267 391 201 410 q 397 350 332 372 q 506 284 461 328 q 550 166 550 240 q 488 35 550 92 q 307 -21 426 -21 l 300 -21 l 257 -78 z "},"Š":{"ha":779,"x_min":51,"x_max":711,"o":"m 617 1285 l 419 1089 l 214 1285 l 235 1306 l 418 1131 l 596 1306 l 617 1285 m 51 247 l 82 247 q 159 85 82 161 q 375 10 236 10 q 598 69 514 10 q 682 260 682 129 q 637 377 682 328 q 525 451 592 426 q 379 504 458 476 q 233 557 300 532 q 122 631 167 582 q 76 747 76 679 q 157 915 76 844 q 389 986 238 986 q 592 944 504 986 l 581 917 q 383 960 497 960 q 188 903 269 960 q 106 743 106 846 q 168 626 106 674 q 319 551 231 579 q 497 492 408 524 q 649 403 586 461 q 711 260 711 346 q 631 59 711 133 q 389 -15 550 -15 q 141 65 228 -15 q 51 247 54 144 z "},"š":{"ha":663,"x_min":108,"x_max":608,"o":"m 599 1017 l 401 821 l 196 1017 l 217 1038 l 400 863 l 578 1038 l 599 1017 m 506 647 q 357 685 439 685 q 217 645 275 685 q 158 535 158 606 q 209 441 158 472 q 325 391 260 410 q 455 350 390 372 q 564 284 519 328 q 608 166 608 240 q 547 35 608 92 q 366 -21 485 -21 q 179 36 247 -21 q 108 176 111 93 l 135 176 q 199 56 140 106 q 360 6 257 6 q 522 53 463 6 q 582 165 582 100 q 538 269 582 231 q 431 328 494 308 q 303 368 368 349 q 133 507 146 415 q 132 532 132 519 q 184 653 132 594 q 363 713 236 713 q 444 702 406 713 q 500 681 483 692 l 518 671 l 506 647 z "},"Ţ":{"ha":558,"x_min":0,"x_max":558,"o":"m 231 -256 l 208 -240 q 265 -196 243 -221 q 290 -156 286 -171 l 294 -140 l 292 -140 q 274 -117 274 -136 q 294 -99 274 -99 q 315 -119 315 -99 q 231 -256 315 -186 m 289 0 l 264 0 l 263 944 l 0 944 l 0 972 l 558 972 l 558 944 l 289 944 l 289 0 z "},"ţ":{"ha":382,"x_min":61,"x_max":307,"o":"m 83 -256 l 61 -240 q 117 -196 96 -221 q 143 -156 139 -171 l 147 -140 l 144 -140 q 126 -117 126 -136 q 147 -99 126 -99 q 168 -119 168 -99 q 83 -256 168 -186 m 218 7 l 210 -18 q 97 53 132 4 q 63 183 63 101 l 63 972 l 89 972 l 89 696 l 307 696 l 294 669 l 89 669 l 89 183 q 119 68 89 107 q 218 7 149 29 z "},"Ť":{"ha":558,"x_min":0,"x_max":558,"o":"m 478 1215 l 281 1019 l 75 1215 l 96 1236 l 279 1061 l 457 1236 l 478 1215 m 289 0 l 264 0 l 263 944 l 0 944 l 0 972 l 558 972 l 558 944 l 289 944 l 289 0 z "},"ť":{"ha":539,"x_min":-47,"x_max":389,"o":"m 356 1215 l 158 1019 l -47 1215 l -26 1236 l 157 1061 l 335 1236 l 356 1215 m 300 7 l 292 -18 q 179 53 214 4 q 144 183 144 101 l 144 972 l 171 972 l 171 696 l 389 696 l 376 669 l 171 669 l 171 183 q 201 68 171 107 q 300 7 231 29 z "},"Ŧ":{"ha":558,"x_min":0,"x_max":558,"o":"m 426 1068 l 125 1068 l 125 1094 l 426 1094 l 426 1068 m 289 0 l 264 0 l 263 944 l 0 944 l 0 972 l 558 972 l 558 944 l 289 944 l 289 0 z "},"ŧ":{"ha":504,"x_min":108,"x_max":450,"o":"m 361 7 l 353 -18 q 240 53 275 4 q 206 183 206 101 l 206 471 l 108 471 l 108 497 l 206 497 l 206 972 l 232 972 l 232 696 l 450 696 l 438 669 l 232 669 l 232 497 l 433 497 l 433 471 l 232 471 l 232 183 q 262 68 232 107 q 361 7 292 29 z "},"Ũ":{"ha":786,"x_min":103,"x_max":688,"o":"m 304 1147 q 432 1103 342 1147 q 511 1086 467 1086 q 599 1131 556 1086 l 613 1107 q 499 1058 560 1058 q 428 1074 463 1058 q 360 1104 393 1090 q 299 1118 328 1118 q 182 1057 235 1118 l 167 1079 q 304 1147 232 1147 m 661 256 l 661 974 l 688 974 l 688 258 q 662 131 688 185 q 592 47 636 76 q 500 4 549 18 q 396 -10 451 -10 q 291 4 340 -10 q 198 47 242 18 q 128 131 154 76 q 103 258 103 185 l 103 974 l 129 974 l 129 256 q 154 140 129 189 q 221 66 179 92 q 307 28 263 40 q 399 17 351 17 q 489 28 446 17 q 572 66 532 40 q 637 141 613 92 q 661 256 661 190 z "},"ũ":{"ha":681,"x_min":108,"x_max":626,"o":"m 272 885 q 400 840 310 885 q 479 824 435 824 q 567 868 524 824 l 581 844 q 467 796 528 796 q 396 812 431 796 q 328 842 361 828 q 267 856 294 856 q 150 794 203 856 l 135 817 q 272 885 200 885 m 626 0 l 600 0 l 600 108 q 369 -15 531 -15 q 108 244 108 -15 l 108 696 l 135 696 l 135 244 q 189 72 135 132 q 356 13 243 13 q 535 69 469 13 q 600 222 600 126 l 600 696 l 626 696 l 626 0 z "},"Ū":{"ha":786,"x_min":103,"x_max":688,"o":"m 543 1068 l 242 1068 l 242 1094 l 543 1094 l 543 1068 m 661 256 l 661 974 l 688 974 l 688 258 q 662 131 688 185 q 592 47 636 76 q 500 4 549 18 q 396 -10 451 -10 q 291 4 340 -10 q 198 47 242 18 q 128 131 154 76 q 103 258 103 185 l 103 974 l 129 974 l 129 256 q 154 140 129 189 q 221 66 179 92 q 307 28 263 40 q 399 17 351 17 q 489 28 446 17 q 572 66 532 40 q 637 141 613 92 q 661 256 661 190 z "},"ū":{"ha":681,"x_min":108,"x_max":626,"o":"m 511 801 l 210 801 l 210 828 l 511 828 l 511 801 m 626 0 l 600 0 l 600 108 q 369 -15 531 -15 q 108 244 108 -15 l 108 696 l 135 696 l 135 244 q 189 72 135 132 q 356 13 243 13 q 535 69 469 13 q 600 222 600 126 l 600 696 l 626 696 l 626 0 z "},"Ŭ":{"ha":786,"x_min":103,"x_max":688,"o":"m 551 1169 l 551 1163 q 505 1051 551 1097 q 394 1006 458 1006 q 284 1051 331 1006 q 238 1163 238 1097 l 238 1169 l 267 1169 l 267 1163 q 301 1075 267 1117 q 393 1033 336 1033 q 486 1076 450 1033 q 522 1163 522 1118 l 522 1169 l 551 1169 m 661 256 l 661 974 l 688 974 l 688 258 q 662 131 688 185 q 592 47 636 76 q 500 4 549 18 q 396 -10 451 -10 q 291 4 340 -10 q 198 47 242 18 q 128 131 154 76 q 103 258 103 185 l 103 974 l 129 974 l 129 256 q 154 140 129 189 q 221 66 179 92 q 307 28 263 40 q 399 17 351 17 q 489 28 446 17 q 572 66 532 40 q 637 141 613 92 q 661 256 661 190 z "},"ŭ":{"ha":681,"x_min":108,"x_max":626,"o":"m 626 0 l 600 0 l 600 108 q 369 -15 531 -15 q 108 244 108 -15 l 108 696 l 135 696 l 135 244 q 189 72 135 132 q 356 13 243 13 q 535 69 469 13 q 600 222 600 126 l 600 696 l 626 696 l 626 0 m 532 907 l 532 900 q 485 790 532 836 q 375 743 439 743 q 265 790 311 743 q 218 900 218 836 l 218 907 l 247 907 l 247 900 q 282 813 247 854 q 374 771 317 771 q 467 813 431 771 q 503 900 503 856 l 503 907 l 532 907 z "},"Ů":{"ha":786,"x_min":103,"x_max":688,"o":"m 505 959 q 482 936 505 959 q 394 913 458 913 q 284 959 331 913 q 238 1069 238 1006 q 284 1180 238 1133 q 394 1226 331 1226 q 505 1180 458 1226 q 551 1069 551 1133 q 505 959 551 1006 m 304 979 q 323 960 304 979 q 394 942 342 942 q 484 979 447 942 q 521 1069 521 1017 q 484 1159 521 1122 q 394 1196 447 1196 q 304 1159 342 1196 q 267 1069 267 1122 q 304 979 267 1017 m 661 256 l 661 974 l 688 974 l 688 258 q 662 131 688 185 q 592 47 636 76 q 500 4 549 18 q 396 -10 451 -10 q 291 4 340 -10 q 198 47 242 18 q 128 131 154 76 q 103 258 103 185 l 103 974 l 129 974 l 129 256 q 154 140 129 189 q 221 66 179 92 q 307 28 263 40 q 399 17 351 17 q 489 28 446 17 q 572 66 532 40 q 637 141 613 92 q 661 256 661 190 z "},"ů":{"ha":681,"x_min":108,"x_max":626,"o":"m 485 706 q 462 683 485 706 q 375 660 439 660 q 265 706 311 660 q 218 817 218 753 q 265 927 218 881 q 375 974 311 974 q 485 927 439 974 q 532 817 532 881 q 485 706 532 753 m 285 726 q 303 708 285 726 q 375 689 322 689 q 465 726 428 689 q 501 817 501 764 q 465 906 501 869 q 375 943 428 943 q 285 906 322 943 q 247 817 247 869 q 285 726 247 764 m 626 0 l 600 0 l 600 108 q 369 -15 531 -15 q 108 244 108 -15 l 108 696 l 135 696 l 135 244 q 189 72 135 132 q 356 13 243 13 q 535 69 469 13 q 600 222 600 126 l 600 696 l 626 696 l 626 0 z "},"Ű":{"ha":786,"x_min":103,"x_max":688,"o":"m 306 1015 l 279 1015 l 356 1193 q 376 1211 363 1211 q 388 1208 382 1211 q 393 1172 410 1199 l 306 1015 m 461 1015 l 435 1015 l 511 1193 q 532 1211 518 1211 q 543 1208 538 1211 q 549 1172 565 1199 l 461 1015 m 661 256 l 661 974 l 688 974 l 688 258 q 662 131 688 185 q 592 47 636 76 q 500 4 549 18 q 396 -10 451 -10 q 291 4 340 -10 q 198 47 242 18 q 128 131 154 76 q 103 258 103 185 l 103 974 l 129 974 l 129 256 q 154 140 129 189 q 221 66 179 92 q 307 28 263 40 q 399 17 351 17 q 489 28 446 17 q 572 66 532 40 q 637 141 613 92 q 661 256 661 190 z "},"ű":{"ha":681,"x_min":108,"x_max":626,"o":"m 271 754 l 244 754 l 321 932 q 342 950 328 950 q 353 947 347 950 q 358 911 375 938 l 271 754 m 426 754 l 400 754 l 476 932 q 497 950 483 950 q 508 947 503 950 q 514 911 531 938 l 426 754 m 626 0 l 600 0 l 600 108 q 369 -15 531 -15 q 108 244 108 -15 l 108 696 l 135 696 l 135 244 q 189 72 135 132 q 356 13 243 13 q 535 69 469 13 q 600 222 600 126 l 600 696 l 626 696 l 626 0 z "},"Ų":{"ha":786,"x_min":103,"x_max":688,"o":"m 504 -204 l 526 -226 q 393 -296 482 -296 q 325 -281 358 -296 q 264 -173 264 -251 q 383 -10 264 -94 q 185 58 267 -6 q 103 258 103 122 l 103 974 l 129 974 l 129 256 q 154 140 129 189 q 221 66 179 92 q 307 28 263 40 q 399 17 351 17 q 489 28 446 17 q 572 66 532 40 q 637 141 613 92 q 661 256 661 190 l 661 974 l 688 974 l 688 258 q 646 106 688 167 q 547 20 604 44 q 418 -8 489 -4 q 292 -181 292 -99 q 322 -243 292 -218 q 393 -268 351 -268 q 504 -204 464 -268 z "},"ų":{"ha":671,"x_min":50,"x_max":667,"o":"m 644 -204 l 667 -226 q 533 -296 622 -296 q 465 -281 499 -296 q 404 -178 404 -251 q 538 0 404 -90 l 571 0 q 432 -181 432 -94 q 462 -243 432 -218 q 533 -268 492 -268 q 644 -204 604 -268 m 568 0 l 542 0 l 542 108 q 311 -15 472 -15 q 50 244 50 -15 l 50 696 l 76 696 l 76 244 q 131 72 76 132 q 298 13 185 13 q 476 69 411 13 q 542 222 542 126 l 542 696 l 568 696 l 568 0 z "},"Ÿ":{"ha":761,"x_min":83,"x_max":699,"o":"m 554 -10 l 546 15 q 570 22 558 15 q 594 35 582 29 q 614 48 607 42 q 631 65 621 54 q 648 90 642 76 q 661 119 654 103 q 672 211 672 153 l 672 475 q 551 371 631 401 q 401 340 472 340 q 169 413 254 340 q 83 629 83 486 l 83 972 l 110 972 l 110 636 q 182 437 110 507 q 401 367 254 367 q 586 423 513 367 q 672 563 660 479 l 672 972 l 699 972 l 699 203 q 554 -10 699 26 z "},"Ź":{"ha":764,"x_min":43,"x_max":719,"o":"m 422 1090 l 396 1090 l 472 1268 q 493 1286 479 1286 q 504 1283 499 1286 q 510 1247 526 1274 l 422 1090 m 719 0 l 43 0 l 43 26 l 678 946 l 63 946 l 61 972 l 711 972 l 711 946 l 76 26 l 719 26 l 719 0 z "},"ź":{"ha":672,"x_min":108,"x_max":618,"o":"m 338 747 l 311 747 l 388 925 q 408 943 394 943 q 419 940 414 943 q 425 904 442 931 l 338 747 m 618 0 l 108 0 l 108 26 l 557 669 l 121 669 l 121 696 l 589 696 l 589 669 l 140 26 l 618 26 l 618 0 z "},"Ż":{"ha":764,"x_min":43,"x_max":719,"o":"m 418 1083 q 418 1073 418 1083 q 399 1064 418 1064 q 381 1083 381 1064 q 399 1101 381 1101 q 418 1083 418 1101 m 719 0 l 43 0 l 43 26 l 678 946 l 63 946 l 61 972 l 711 972 l 711 946 l 76 26 l 719 26 l 719 0 z "},"ż":{"ha":672,"x_min":108,"x_max":618,"o":"m 381 817 q 381 808 381 817 q 362 799 381 799 q 343 817 343 799 q 362 836 343 836 q 381 817 381 836 m 618 0 l 108 0 l 108 26 l 557 669 l 121 669 l 121 696 l 589 696 l 589 669 l 140 26 l 618 26 l 618 0 z "},"Ž":{"ha":764,"x_min":43,"x_max":719,"o":"m 617 1285 l 419 1089 l 214 1285 l 235 1306 l 418 1131 l 596 1306 l 617 1285 m 719 0 l 43 0 l 43 26 l 678 946 l 63 946 l 61 972 l 711 972 l 711 946 l 76 26 l 719 26 l 719 0 z "},"ž":{"ha":672,"x_min":108,"x_max":618,"o":"m 568 1017 l 371 821 l 165 1017 l 186 1038 l 369 863 l 547 1038 l 568 1017 m 618 0 l 108 0 l 108 26 l 557 669 l 121 669 l 121 696 l 589 696 l 589 669 l 140 26 l 618 26 l 618 0 z "},"Ș":{"ha":779,"x_min":51,"x_max":711,"o":"m 333 -256 l 311 -240 q 367 -196 346 -221 q 393 -156 389 -171 l 397 -140 l 394 -140 q 376 -117 376 -136 q 397 -99 376 -99 q 418 -119 418 -99 q 333 -256 418 -186 m 51 247 l 82 247 q 159 85 82 161 q 375 10 236 10 q 598 69 514 10 q 682 260 682 129 q 637 377 682 328 q 525 451 592 426 q 379 504 458 476 q 233 557 300 532 q 122 631 167 582 q 76 747 76 679 q 157 915 76 844 q 389 986 238 986 q 592 944 504 986 l 581 917 q 383 960 497 960 q 188 903 269 960 q 106 743 106 846 q 168 626 106 674 q 319 551 231 579 q 497 492 408 524 q 649 403 586 461 q 711 260 711 346 q 631 59 711 133 q 389 -15 550 -15 q 141 65 228 -15 q 51 247 54 144 z "},"ș":{"ha":599,"x_min":50,"x_max":550,"o":"m 251 -256 l 229 -240 q 285 -196 264 -221 q 311 -156 307 -171 l 315 -140 l 313 -140 q 294 -117 294 -136 q 315 -99 294 -99 q 336 -119 336 -99 q 251 -256 336 -186 m 447 647 q 299 685 381 685 q 158 645 217 685 q 100 535 100 606 q 151 441 100 472 q 267 391 201 410 q 397 350 332 372 q 506 284 461 328 q 550 166 550 240 q 488 35 550 92 q 308 -21 426 -21 q 121 36 189 -21 q 50 176 53 93 l 76 176 q 140 56 82 106 q 301 6 199 6 q 464 53 404 6 q 524 165 524 100 q 480 269 524 231 q 373 328 436 308 q 244 368 310 349 q 75 507 88 415 q 74 532 74 519 q 126 653 74 594 q 304 713 178 713 q 386 702 347 713 q 442 681 425 692 l 460 671 l 447 647 z "},"ˆ":{"ha":590,"x_min":64,"x_max":467,"o":"m 467 875 l 443 853 l 268 1029 l 86 853 l 64 875 l 269 1071 l 467 875 z "},"ˇ":{"ha":551,"x_min":64,"x_max":467,"o":"m 467 1017 l 269 821 l 64 1017 l 85 1038 l 268 863 l 446 1038 l 467 1017 z "},"˘":{"ha":501,"x_min":64,"x_max":378,"o":"m 378 972 l 378 965 q 332 854 378 900 q 221 808 286 808 q 110 854 156 808 q 64 965 64 900 l 64 972 l 93 972 l 93 965 q 128 878 93 919 q 219 836 163 836 q 313 878 276 836 q 349 965 349 921 l 349 972 l 378 972 z "},"˙":{"ha":83,"x_min":24,"x_max":61,"o":"m 61 967 q 61 958 61 967 q 42 949 61 949 q 24 967 24 949 q 42 986 24 986 q 61 967 61 986 z "},"˚":{"ha":636,"x_min":-3,"x_max":311,"o":"m 265 809 q 242 786 265 809 q 154 763 219 763 q 43 809 89 763 q -3 919 -3 856 q 43 1030 -3 983 q 154 1076 89 1076 q 265 1030 219 1076 q 311 919 311 983 q 265 809 311 856 m 64 829 q 83 810 64 829 q 154 792 101 792 q 244 829 207 792 q 281 919 281 867 q 244 1009 281 972 q 154 1046 207 1046 q 64 1009 101 1046 q 26 919 26 972 q 64 829 26 867 z "},"˛":{"ha":532,"x_min":106,"x_max":368,"o":"m 346 -200 l 368 -222 q 235 -292 324 -292 q 167 -276 200 -292 q 106 -174 106 -247 q 239 4 106 -86 l 272 4 q 133 -176 133 -90 q 163 -239 133 -214 q 235 -264 193 -264 q 346 -200 306 -264 z "},"˜":{"ha":608,"x_min":108,"x_max":554,"o":"m 246 975 q 374 931 283 975 q 453 914 408 914 q 540 958 497 914 l 554 935 q 440 886 501 886 q 369 902 404 886 q 302 932 335 918 q 240 946 269 946 q 124 885 176 946 l 108 907 q 246 975 174 975 z "},"˝":{"ha":599,"x_min":-3,"x_max":274,"o":"m 24 789 l -3 789 l 74 967 q 94 985 81 985 q 106 982 100 985 q 111 946 128 972 l 24 789 m 179 789 l 153 789 l 229 967 q 250 985 236 985 q 274 965 274 985 q 267 946 274 957 l 179 789 z "},"΅":{"ha":425,"x_min":108,"x_max":371,"o":"m 365 978 q 361 975 365 978 q 350 972 358 972 q 335 978 342 972 q 329 993 329 985 q 335 1008 329 1001 q 350 1014 342 1014 q 365 1008 358 1014 q 371 993 371 1001 q 365 978 371 985 m 144 977 q 141 974 144 977 q 129 971 138 971 q 115 977 121 971 q 108 992 108 983 q 115 1006 108 1000 q 129 1013 121 1013 q 144 1006 138 1013 q 150 992 150 1000 q 144 977 150 983 m 233 1015 l 207 1015 l 283 1193 q 304 1211 290 1211 q 328 1192 328 1211 q 321 1172 328 1183 l 233 1015 z "},"Ά":{"ha":864,"x_min":108,"x_max":810,"o":"m 185 789 l 158 789 l 235 967 q 256 985 242 985 q 267 982 261 985 q 272 946 289 972 l 185 789 m 635 417 l 458 917 l 282 417 l 635 417 m 810 0 l 781 0 l 644 390 l 272 390 l 135 0 l 108 0 l 449 972 l 468 972 l 810 0 z "},"Έ":{"ha":858,"x_min":108,"x_max":804,"o":"m 801 0 l 340 0 l 340 972 l 804 972 l 804 946 l 367 946 l 367 574 l 683 574 l 674 547 l 367 547 l 367 26 l 801 26 l 801 0 m 135 789 l 108 789 l 185 967 q 206 985 192 985 q 229 965 229 985 q 222 946 229 957 l 135 789 z "},"Ή":{"ha":994,"x_min":108,"x_max":940,"o":"m 940 0 l 914 0 l 914 547 l 369 547 l 369 0 l 343 0 l 343 972 l 369 972 l 369 574 l 914 574 l 914 972 l 940 972 l 940 0 m 135 789 l 108 789 l 185 967 q 206 985 192 985 q 229 965 229 985 q 222 946 229 957 l 135 789 z "},"Ί":{"ha":525,"x_min":108,"x_max":471,"o":"m 135 789 l 108 789 l 185 967 q 206 985 192 985 q 217 982 211 985 q 222 946 239 972 l 135 789 m 471 0 l 444 0 l 444 943 l 325 946 l 325 972 l 471 972 l 471 0 z "},"Ό":{"ha":908,"x_min":108,"x_max":854,"o":"m 135 789 l 108 789 l 185 967 q 217 981 194 990 q 222 946 239 972 l 135 789 m 828 256 l 828 708 q 761 897 828 828 q 563 965 694 965 q 364 895 431 965 q 297 706 297 825 l 297 256 q 375 73 297 135 q 564 11 453 11 q 751 69 675 11 q 828 256 828 128 m 854 703 l 854 257 q 769 51 854 117 q 564 -15 683 -15 q 358 51 444 -15 q 271 257 271 117 l 271 704 q 349 921 271 847 q 565 994 428 994 q 778 917 703 994 q 854 703 854 839 z "},"Ύ":{"ha":1015,"x_min":108,"x_max":961,"o":"m 817 -10 l 808 15 q 832 22 819 15 q 857 35 844 29 q 876 48 869 42 q 894 65 883 54 q 910 90 904 76 q 922 119 917 103 q 935 211 935 153 l 935 475 q 814 371 893 401 q 664 340 735 340 q 431 413 517 340 q 346 629 346 486 l 346 972 l 372 972 l 372 636 q 444 437 372 507 q 664 367 517 367 q 849 423 775 367 q 935 563 922 479 l 935 972 l 961 972 l 961 203 q 817 -10 961 26 m 135 789 l 108 789 l 185 967 q 206 985 192 985 q 229 965 229 985 q 222 946 229 957 l 135 789 z "},"Ώ":{"ha":1007,"x_min":108,"x_max":953,"o":"m 135 789 l 108 789 l 185 967 q 206 985 192 985 q 217 982 211 985 q 222 946 239 972 l 135 789 m 953 0 l 636 0 l 636 28 q 821 93 729 28 q 913 272 913 158 l 913 697 q 847 892 913 829 q 674 956 782 956 l 518 956 q 346 892 410 956 q 282 699 282 828 l 282 272 q 372 92 282 157 q 556 28 463 28 l 556 0 l 239 0 l 249 28 l 429 28 q 295 133 333 74 q 257 272 257 192 l 257 699 q 322 904 257 826 q 518 982 388 982 l 674 982 q 869 904 804 982 q 935 699 935 826 l 935 272 q 896 131 935 186 q 763 28 857 76 l 940 28 l 953 0 z "},"ΐ":{"ha":274,"x_min":11,"x_max":274,"o":"m 267 812 q 264 809 267 812 q 253 806 261 806 q 238 812 244 806 q 232 826 232 818 q 238 841 232 835 q 253 847 244 847 q 267 841 261 847 q 274 826 274 835 q 267 812 274 818 m 47 810 q 43 807 47 810 q 32 804 40 804 q 17 810 24 804 q 11 825 11 817 q 17 840 11 833 q 32 846 24 846 q 47 840 40 846 q 53 825 53 833 q 47 810 53 817 m 149 849 l 122 849 l 199 1026 q 219 1044 206 1044 q 243 1025 243 1044 q 236 1006 243 1017 l 149 849 m 153 0 l 126 0 l 126 696 l 153 696 l 153 0 z "},"Α":{"ha":749,"x_min":17,"x_max":718,"o":"m 543 417 l 367 917 l 190 417 l 543 417 m 718 0 l 689 0 l 553 390 l 181 390 l 43 0 l 17 0 l 357 972 l 376 972 l 718 0 z "},"Β":{"ha":764,"x_min":108,"x_max":710,"o":"m 135 26 l 425 26 q 617 96 550 26 q 683 285 683 165 q 616 476 683 404 q 429 547 549 547 l 135 547 l 135 26 m 135 574 l 465 574 q 578 619 528 574 q 633 754 633 668 q 578 893 633 840 q 404 946 522 946 l 135 946 l 135 574 m 428 0 l 108 0 l 108 972 l 415 972 q 594 915 529 972 q 660 750 660 857 q 626 635 660 689 q 539 561 593 582 q 538 558 538 560 l 538 557 q 710 290 710 489 q 653 97 710 179 q 566 26 624 53 q 428 0 508 0 z "},"Γ":{"ha":626,"x_min":108,"x_max":572,"o":"m 135 0 l 108 0 l 108 972 l 572 972 l 572 944 l 135 944 l 135 0 z "},"Δ":{"ha":733,"x_min":17,"x_max":718,"o":"m 681 26 l 364 936 l 54 26 l 681 26 m 718 0 l 17 0 l 350 972 l 376 972 l 718 0 z "},"Ε":{"ha":626,"x_min":108,"x_max":572,"o":"m 569 0 l 108 0 l 108 972 l 572 972 l 572 946 l 135 946 l 135 574 l 451 574 l 442 547 l 135 547 l 135 26 l 569 26 l 569 0 z "},"Ζ":{"ha":839,"x_min":108,"x_max":785,"o":"m 785 0 l 108 0 l 108 26 l 743 946 l 128 946 l 126 972 l 776 972 l 776 946 l 142 26 l 785 26 l 785 0 z "},"Η":{"ha":797,"x_min":111,"x_max":708,"o":"m 708 0 l 682 0 l 682 547 l 138 547 l 138 0 l 111 0 l 111 972 l 138 972 l 138 574 l 682 574 l 682 972 l 708 972 l 708 0 z "},"Θ":{"ha":746,"x_min":108,"x_max":692,"o":"m 692 703 l 692 257 q 606 51 692 117 q 401 -15 521 -15 q 195 51 282 -15 q 108 257 108 117 l 108 704 q 187 921 108 847 q 403 994 265 994 q 616 917 540 994 q 692 703 692 839 m 665 500 l 665 708 q 599 897 665 828 q 400 965 532 965 q 201 895 268 965 q 135 706 135 825 l 135 500 l 665 500 m 665 256 l 665 474 l 135 474 l 135 256 q 213 73 135 135 q 401 11 290 11 q 589 69 513 11 q 665 256 665 128 z "},"Ι":{"ha":417,"x_min":111,"x_max":257,"o":"m 257 0 l 231 0 l 231 943 l 111 946 l 111 972 l 257 972 l 257 0 z "},"Κ":{"ha":714,"x_min":108,"x_max":660,"o":"m 660 0 l 631 0 l 269 560 l 135 389 l 135 0 l 108 0 l 108 974 l 135 974 l 135 428 l 557 974 l 588 974 l 286 581 l 660 0 z "},"Λ":{"ha":740,"x_min":17,"x_max":718,"o":"m 718 0 l 690 0 l 364 931 l 43 0 l 17 0 l 351 972 l 378 972 l 718 0 z "},"Μ":{"ha":974,"x_min":111,"x_max":856,"o":"m 856 0 l 831 0 l 831 900 l 494 0 l 469 0 l 136 900 l 136 0 l 111 0 l 111 972 l 136 972 l 483 42 l 831 972 l 856 972 l 856 0 z "},"Ν":{"ha":892,"x_min":111,"x_max":794,"o":"m 794 0 l 771 0 l 136 931 l 136 0 l 111 0 l 111 972 l 136 972 l 771 44 l 771 972 l 794 972 l 794 0 z "},"Ξ":{"ha":869,"x_min":108,"x_max":815,"o":"m 789 157 l 815 147 q 744 35 793 69 q 614 0 696 0 l 163 0 l 174 26 l 614 26 q 733 60 697 26 q 789 157 768 94 m 749 944 l 310 944 q 190 911 226 944 q 133 817 154 878 l 108 826 q 179 938 131 904 q 310 972 228 972 l 761 972 l 749 944 m 651 547 l 285 547 l 285 574 l 651 574 l 651 547 z "},"Ο":{"ha":721,"x_min":86,"x_max":669,"o":"m 643 256 l 643 708 q 576 897 643 828 q 378 965 510 965 q 179 895 246 965 q 113 706 113 825 l 113 256 q 190 73 113 135 q 379 11 268 11 q 567 69 490 11 q 643 256 643 128 m 669 703 l 669 257 q 584 51 669 117 q 379 -15 499 -15 q 173 51 260 -15 q 86 257 86 117 l 86 704 q 165 921 86 847 q 381 994 243 994 q 594 917 518 994 q 669 703 669 839 z "},"Π":{"ha":819,"x_min":111,"x_max":708,"o":"m 708 0 l 682 0 l 682 944 l 138 944 l 138 0 l 111 0 l 111 972 l 708 972 l 708 0 z "},"Ρ":{"ha":765,"x_min":108,"x_max":711,"o":"m 135 0 l 108 0 l 108 972 l 450 972 q 647 892 582 972 q 711 675 711 811 q 432 390 711 390 l 135 390 l 135 0 m 135 417 l 429 417 q 685 675 685 417 q 628 872 685 799 q 451 944 572 944 l 135 944 l 135 417 z "},"Σ":{"ha":813,"x_min":108,"x_max":758,"o":"m 731 157 l 758 147 q 688 35 736 69 q 557 0 639 0 l 108 0 l 422 533 l 131 972 l 725 972 l 714 942 l 183 942 l 454 533 l 156 28 l 535 28 q 663 53 617 28 q 731 157 708 79 z "},"Τ":{"ha":721,"x_min":108,"x_max":667,"o":"m 397 0 l 372 0 l 371 944 l 108 944 l 108 972 l 667 972 l 667 944 l 397 944 l 397 0 z "},"Υ":{"ha":769,"x_min":83,"x_max":699,"o":"m 554 -10 l 546 15 q 570 22 558 15 q 594 35 582 29 q 614 48 607 42 q 631 65 621 54 q 648 90 642 76 q 661 119 654 103 q 672 211 672 153 l 672 475 q 551 371 631 401 q 401 340 472 340 q 169 413 254 340 q 83 629 83 486 l 83 972 l 110 972 l 110 636 q 182 437 110 507 q 401 367 254 367 q 586 423 513 367 q 672 563 660 479 l 672 972 l 699 972 l 699 203 q 554 -10 699 26 z "},"Φ":{"ha":894,"x_min":108,"x_max":840,"o":"m 814 299 l 814 724 q 792 838 814 788 q 663 953 753 922 q 614 964 631 964 q 514 931 543 964 q 485 828 485 897 l 485 67 l 588 67 q 756 130 697 67 q 814 299 814 193 m 579 42 l 485 42 l 485 -42 l 458 -36 l 458 42 l 369 42 q 173 114 238 42 q 108 313 108 186 l 108 718 q 269 981 108 929 l 281 960 q 135 718 135 911 l 135 299 q 197 125 135 183 q 369 67 258 67 l 458 67 l 458 840 q 494 949 458 910 q 594 988 531 988 q 772 911 704 988 q 840 710 840 835 l 840 313 q 776 114 840 186 q 579 42 711 42 z "},"Χ":{"ha":867,"x_min":108,"x_max":813,"o":"m 813 4 l 782 0 l 461 481 l 143 0 l 108 0 l 446 506 l 135 972 l 165 972 l 461 531 l 757 972 l 790 972 l 479 506 l 813 4 z "},"Ψ":{"ha":871,"x_min":61,"x_max":793,"o":"m 436 0 l 410 0 l 410 294 l 322 294 q 126 366 190 294 q 61 564 61 438 l 61 972 l 88 972 l 88 564 q 151 379 88 438 q 322 321 215 321 l 410 321 l 410 972 l 436 972 l 436 321 l 532 321 q 708 384 649 321 q 767 564 767 447 l 767 783 q 736 933 767 894 q 708 960 722 949 q 692 975 694 972 l 715 985 q 771 920 753 961 q 791 850 789 879 q 793 763 793 821 l 793 564 q 728 366 793 438 q 532 294 664 294 l 436 294 l 436 0 z "},"Ϊ":{"ha":317,"x_min":78,"x_max":346,"o":"m 340 1072 q 336 1068 340 1072 q 325 1065 333 1065 q 310 1072 317 1065 q 304 1086 304 1078 q 310 1101 304 1094 q 325 1107 317 1107 q 340 1101 333 1107 q 346 1086 346 1094 q 340 1072 346 1078 m 119 1070 q 116 1067 119 1070 q 104 1064 113 1064 q 90 1070 96 1064 q 83 1085 83 1076 q 90 1099 83 1093 q 104 1106 96 1106 q 119 1099 113 1106 q 125 1085 125 1093 q 119 1070 125 1076 m 224 0 l 197 0 l 197 943 l 78 946 l 78 972 l 224 972 l 224 0 z "},"Ϋ":{"ha":701,"x_min":-8,"x_max":647,"o":"m 437 1069 q 434 1066 437 1069 q 422 1063 431 1063 q 408 1069 414 1063 q 401 1083 401 1075 q 408 1098 401 1092 q 422 1104 414 1104 q 437 1098 431 1104 q 443 1083 443 1092 q 437 1069 443 1075 m 216 1067 q 213 1064 216 1067 q 201 1061 210 1061 q 187 1067 193 1061 q 181 1082 181 1074 q 187 1097 181 1090 q 201 1103 193 1103 q 216 1097 210 1103 q 222 1082 222 1090 q 216 1067 222 1074 m 331 0 l 306 0 l 306 475 l -8 972 l 24 972 l 318 503 l 615 972 l 647 972 l 331 475 l 331 0 z "},"ά":{"ha":697,"x_min":108,"x_max":643,"o":"m 356 747 l 329 747 l 406 925 q 426 943 413 943 q 438 940 432 943 q 443 904 460 931 l 356 747 m 589 603 q 318 679 449 679 q 181 628 226 679 q 135 488 135 578 l 135 225 q 193 74 135 124 q 353 19 251 24 q 426 19 372 19 q 589 31 481 19 l 589 603 m 325 706 q 590 631 451 706 l 601 685 l 625 675 q 615 588 615 632 l 615 31 q 643 18 625 28 l 635 1 q 615 7 629 7 q 569 3 601 7 q 419 -7 465 -7 q 353 -6 372 -7 q 293 1 333 -4 q 231 19 253 7 q 181 49 208 31 q 142 92 154 67 q 108 235 108 156 l 108 492 q 140 621 108 571 q 220 688 172 671 q 325 706 268 706 z "},"έ":{"ha":642,"x_min":108,"x_max":588,"o":"m 490 660 q 380 685 433 685 q 284 676 326 685 q 206 633 242 668 q 164 544 164 596 q 192 456 164 493 q 285 418 219 418 l 489 418 l 481 392 l 333 392 q 196 346 257 392 q 135 208 135 300 q 197 64 135 115 q 356 13 260 13 q 466 24 410 13 q 550 47 522 36 l 579 60 l 588 32 q 362 -15 479 -15 q 181 42 244 -15 q 108 210 108 106 q 242 399 108 357 q 164 448 192 404 q 136 536 136 492 q 211 672 136 626 q 340 710 268 710 q 490 689 413 710 l 490 660 m 339 747 l 313 747 l 389 925 q 410 943 396 943 q 433 924 433 943 q 426 904 433 915 l 339 747 z "},"ή":{"ha":675,"x_min":108,"x_max":621,"o":"m 135 660 q 338 708 229 708 q 503 679 446 708 q 621 481 621 625 l 621 -294 l 594 -282 l 594 482 q 544 615 594 565 q 356 682 479 682 q 135 631 232 682 l 135 0 l 108 0 l 108 696 l 135 696 l 135 660 m 372 747 l 346 747 l 422 925 q 443 943 429 943 q 467 924 467 943 q 460 904 467 915 l 372 747 z "},"ί":{"ha":283,"x_min":108,"x_max":229,"o":"m 147 0 l 121 0 l 121 696 l 147 696 l 147 0 m 135 747 l 108 747 l 185 925 q 206 943 192 943 q 229 924 229 943 q 222 904 229 915 l 135 747 z "},"ΰ":{"ha":690,"x_min":108,"x_max":636,"o":"m 503 812 q 500 809 503 812 q 489 806 497 806 q 474 812 481 806 q 468 826 468 818 q 474 841 468 835 q 489 847 481 847 q 503 841 497 847 q 510 826 510 835 q 503 812 510 818 m 283 810 q 280 807 283 810 q 268 804 276 804 q 253 810 260 804 q 247 825 247 817 q 253 840 247 833 q 268 846 260 846 q 283 840 276 846 q 289 825 289 833 q 283 810 289 817 m 385 849 l 358 849 l 435 1026 q 456 1044 442 1044 q 467 1042 461 1044 q 472 1006 489 1032 l 385 849 m 610 229 l 610 696 l 636 696 l 636 239 q 372 -14 636 -14 q 108 239 108 -14 l 108 696 l 135 696 l 135 229 q 372 13 135 13 q 610 229 610 13 z "},"α":{"ha":697,"x_min":108,"x_max":643,"o":"m 589 603 q 318 679 449 679 q 181 628 226 679 q 135 488 135 578 l 135 225 q 193 74 135 124 q 353 19 251 24 q 426 19 372 19 q 589 31 481 19 l 589 603 m 325 706 q 590 631 451 706 l 601 685 l 625 675 q 615 588 615 632 l 615 31 q 643 18 625 28 l 635 1 q 615 7 629 7 q 569 3 601 7 q 419 -7 465 -7 q 353 -6 372 -7 q 293 1 333 -4 q 231 19 253 7 q 181 49 208 31 q 142 92 154 67 q 108 235 108 156 l 108 492 q 140 621 108 571 q 220 688 172 671 q 325 706 268 706 z "},"β":{"ha":676,"x_min":108,"x_max":622,"o":"m 135 738 l 135 643 q 256 682 175 664 q 342 701 338 700 q 403 739 379 711 q 432 810 432 774 q 423 874 432 846 q 382 925 414 903 q 303 947 350 947 q 135 738 135 947 m 135 17 q 297 -1 215 -1 l 428 11 q 549 76 501 26 q 596 207 596 126 l 596 454 q 559 585 596 535 q 469 650 522 635 q 357 665 417 665 q 135 615 232 665 l 135 17 m 588 83 q 571 59 588 83 q 503 12 554 35 q 394 -19 453 -11 q 280 -26 336 -26 q 135 -12 224 -26 l 135 -224 l 108 -224 l 108 746 q 156 913 108 853 q 303 974 204 972 q 406 939 364 974 q 463 825 463 893 q 447 756 463 796 q 385 692 432 717 q 557 623 492 689 q 622 458 622 557 l 622 203 q 588 83 622 132 z "},"γ":{"ha":714,"x_min":29,"x_max":669,"o":"m 367 -250 l 346 -274 q 315 -192 315 -236 q 329 -108 315 -149 l 360 -7 q 295 10 324 -3 q 232 65 267 22 q 179 179 197 108 l 29 696 l 56 696 l 203 194 q 367 22 253 22 q 371 22 369 22 l 528 539 q 574 644 549 606 q 646 708 599 683 l 669 686 q 603 635 628 668 q 550 522 578 603 l 376 -58 q 346 -186 346 -149 q 367 -250 346 -224 z "},"δ":{"ha":681,"x_min":108,"x_max":626,"o":"m 600 256 l 600 418 q 540 558 600 496 q 356 682 479 619 q 200 605 265 674 q 135 431 135 536 l 135 256 q 214 61 135 115 q 369 13 282 13 q 524 58 457 13 q 600 256 600 111 m 321 703 q 244 836 244 754 q 286 934 244 889 q 411 979 328 979 l 469 979 l 456 953 l 410 953 q 297 908 335 953 q 271 851 271 878 q 351 717 271 761 q 469 649 431 674 q 550 586 507 624 q 626 396 626 515 l 626 256 q 369 -14 626 -14 q 173 58 238 -14 q 108 256 108 129 l 108 431 q 167 611 108 539 q 321 703 225 683 z "},"ε":{"ha":642,"x_min":108,"x_max":588,"o":"m 490 660 q 380 685 433 685 q 284 676 326 685 q 206 633 242 668 q 164 544 164 596 q 192 456 164 493 q 285 418 219 418 l 489 418 l 481 392 l 333 392 q 196 346 257 392 q 135 208 135 300 q 197 64 135 115 q 356 13 260 13 q 466 24 410 13 q 550 47 522 36 l 579 60 l 588 32 q 362 -15 479 -15 q 181 42 244 -15 q 108 210 108 106 q 242 399 108 357 q 164 448 192 404 q 136 536 136 492 q 211 672 136 626 q 340 710 268 710 q 490 689 413 710 l 490 660 z "},"ζ":{"ha":644,"x_min":108,"x_max":590,"o":"m 565 -278 l 539 -290 l 539 18 q 378 -1 454 -1 q 240 28 301 -1 q 108 247 108 94 q 158 467 108 363 q 540 944 258 674 l 203 944 l 203 972 l 582 972 l 590 944 q 386 746 504 878 q 136 261 136 467 q 199 87 136 149 q 382 25 263 25 q 565 54 463 25 l 565 -278 z "},"η":{"ha":675,"x_min":108,"x_max":621,"o":"m 135 660 q 338 708 229 708 q 503 679 446 708 q 621 481 621 625 l 621 -294 l 594 -282 l 594 482 q 544 615 594 565 q 356 682 479 682 q 135 631 232 682 l 135 0 l 108 0 l 108 696 l 135 696 l 135 660 z "},"θ":{"ha":665,"x_min":86,"x_max":614,"o":"m 188 621 q 526 704 306 704 q 588 701 558 704 q 525 893 588 825 q 347 961 463 961 q 158 860 208 961 q 140 763 140 821 q 188 621 140 706 m 588 257 l 588 676 q 531 679 563 679 q 442 674 499 679 q 304 647 386 668 q 167 573 222 626 q 113 442 113 519 l 113 271 q 174 85 113 154 q 348 17 235 17 q 524 86 461 17 q 588 257 588 156 m 614 701 l 614 265 q 545 67 614 142 q 349 -8 476 -8 q 154 67 222 -7 q 86 265 86 142 l 86 440 q 164 606 89 544 q 115 784 115 699 q 179 928 115 869 q 347 986 243 986 q 547 908 479 983 q 614 701 614 833 z "},"ι":{"ha":189,"x_min":92,"x_max":118,"o":"m 118 0 l 92 0 l 92 696 l 118 696 l 118 0 z "},"κ":{"ha":675,"x_min":108,"x_max":621,"o":"m 621 26 l 621 -1 q 444 136 543 -1 l 265 386 l 135 249 l 135 0 l 108 0 l 108 711 l 135 704 l 135 285 l 513 696 l 550 696 l 283 406 l 460 157 q 621 26 557 26 z "},"λ":{"ha":807,"x_min":108,"x_max":753,"o":"m 753 4 l 731 -15 q 651 54 676 14 q 606 160 625 94 l 450 675 q 335 597 369 635 q 283 501 300 558 l 136 0 l 108 0 l 258 517 q 298 594 272 560 q 342 642 324 628 q 395 678 361 657 q 439 707 429 700 l 408 806 q 324 928 378 904 q 228 944 283 944 l 228 972 q 235 972 231 972 q 359 939 314 972 q 432 824 404 906 l 631 168 q 683 60 653 94 q 753 4 713 25 z "},"μ":{"ha":725,"x_min":108,"x_max":671,"o":"m 671 18 l 653 -3 q 636 7 646 -3 q 618 38 626 17 q 610 83 610 60 q 396 -15 543 -15 q 135 90 249 -15 l 135 -282 l 108 -279 l 108 696 l 135 696 l 135 126 q 193 72 149 106 q 379 8 281 8 q 544 50 478 8 q 610 189 610 92 l 610 703 l 636 708 l 636 88 q 671 18 636 28 z "},"ν":{"ha":697,"x_min":108,"x_max":643,"o":"m 385 0 l 367 0 l 108 696 l 135 696 l 375 51 l 617 696 l 643 696 l 385 0 z "},"ξ":{"ha":582,"x_min":108,"x_max":528,"o":"m 369 24 q 528 44 443 24 l 528 -287 l 501 -303 l 501 10 q 368 -4 428 -4 q 108 228 108 -4 l 108 483 q 172 647 108 583 q 325 714 236 711 q 254 843 254 763 q 294 938 254 892 q 421 983 335 983 l 479 983 l 464 957 l 415 957 q 318 923 353 957 q 283 846 283 889 q 312 763 283 803 q 387 715 340 724 q 497 686 433 707 l 488 660 q 370 688 431 688 q 259 673 310 688 q 172 608 208 658 q 135 479 135 557 l 135 222 q 369 24 135 24 z "},"ο":{"ha":681,"x_min":108,"x_max":626,"o":"m 600 256 l 600 444 q 534 624 600 564 q 368 685 468 685 q 201 624 268 685 q 135 444 135 564 l 135 256 q 192 83 135 154 q 367 11 249 11 q 543 81 486 11 q 600 256 600 151 m 626 439 l 626 256 q 563 63 626 139 q 369 -14 499 -14 q 174 63 240 -14 q 108 256 108 140 l 108 439 q 176 641 108 571 q 367 711 243 711 q 558 638 490 711 q 626 439 626 565 z "},"π":{"ha":736,"x_min":92,"x_max":651,"o":"m 651 29 l 633 7 q 592 110 592 38 l 593 669 l 118 669 l 118 0 l 92 0 l 92 696 l 618 696 l 618 107 q 651 29 618 54 z "},"ρ":{"ha":681,"x_min":108,"x_max":626,"o":"m 600 239 l 600 422 q 583 540 600 490 q 541 616 565 590 q 481 656 517 642 q 354 678 425 678 q 195 618 257 678 q 133 436 133 558 l 133 233 q 199 68 133 125 q 358 11 265 11 q 600 239 600 11 m 135 -286 l 108 -293 l 108 438 q 174 633 108 561 q 356 704 240 704 q 626 422 626 704 l 626 239 q 358 -14 626 -14 q 133 114 207 -14 l 135 -286 z "},"ς":{"ha":569,"x_min":108,"x_max":514,"o":"m 496 -204 l 472 -189 q 488 -150 488 -171 q 426 -35 488 -71 q 367 1 408 -24 q 308 37 326 25 q 256 72 289 49 q 206 111 222 96 q 167 151 190 126 q 133 200 144 176 q 108 315 108 256 l 108 510 q 166 642 108 583 q 347 701 224 701 q 431 692 392 701 q 486 674 469 683 l 503 664 l 492 640 q 350 675 442 675 q 253 662 297 675 q 172 607 208 649 q 135 500 135 565 l 135 315 q 199 155 135 219 q 432 -8 264 90 q 514 -133 514 -57 q 496 -204 514 -167 z "},"σ":{"ha":713,"x_min":108,"x_max":658,"o":"m 603 242 l 603 431 q 590 528 603 494 q 565 579 576 561 q 543 609 554 597 q 519 632 532 621 q 474 663 503 647 q 358 681 414 681 q 251 665 301 681 q 167 604 200 650 q 135 488 135 558 l 135 242 q 197 59 135 118 q 369 0 258 0 q 603 242 603 0 m 626 431 l 626 243 q 369 -26 626 -26 q 173 45 238 -26 q 108 243 108 117 l 108 492 q 134 605 108 558 q 201 672 160 651 q 344 707 269 707 l 397 701 q 476 694 443 694 q 532 699 508 694 q 636 754 586 708 l 658 743 q 593 692 639 713 q 508 671 547 671 q 626 431 626 601 z "},"τ":{"ha":581,"x_min":108,"x_max":526,"o":"m 431 6 l 422 -18 q 325 49 349 4 q 301 183 301 94 l 301 667 l 108 667 l 108 694 l 526 694 l 526 667 l 328 667 l 328 183 q 342 78 328 115 q 373 31 356 42 q 431 6 390 19 z "},"υ":{"ha":713,"x_min":92,"x_max":619,"o":"m 593 229 l 593 696 l 619 696 l 619 239 q 356 -14 619 -14 q 92 239 92 -14 l 92 696 l 118 696 l 118 229 q 356 13 118 13 q 593 229 593 13 z "},"φ":{"ha":894,"x_min":108,"x_max":840,"o":"m 815 257 l 815 440 q 791 560 815 510 q 729 633 767 610 q 597 681 657 681 q 482 553 482 681 l 482 15 l 579 15 q 756 79 697 15 q 815 257 815 143 m 482 -294 l 457 -285 l 457 -7 l 369 -7 q 173 65 238 -7 q 108 263 108 136 l 108 436 q 269 699 108 647 l 282 676 q 176 601 218 660 q 133 439 133 543 l 133 249 q 199 75 133 133 q 369 17 265 17 l 457 17 l 457 560 q 489 662 457 619 q 588 704 521 704 q 772 628 703 704 q 840 426 840 553 l 840 263 q 776 65 840 136 q 579 -7 711 -7 l 482 -7 l 482 -294 z "},"χ":{"ha":760,"x_min":108,"x_max":706,"o":"m 706 -272 l 690 -294 q 601 -258 635 -294 q 531 -149 567 -221 l 368 182 l 132 -276 l 108 -265 l 354 207 l 110 696 l 138 696 l 367 233 l 608 696 l 636 696 l 382 207 l 557 -149 q 624 -242 589 -214 q 706 -272 658 -269 z "},"ψ":{"ha":896,"x_min":108,"x_max":840,"o":"m 483 -303 l 457 -296 l 457 -7 l 369 -7 q 173 65 238 -7 q 108 263 108 136 l 108 694 l 135 694 l 135 264 q 202 74 135 128 q 369 19 269 19 l 457 19 l 457 694 l 483 694 l 483 19 l 579 19 q 814 268 814 19 l 814 501 q 797 625 814 586 q 740 692 781 664 l 763 703 q 818 638 800 679 q 838 568 836 597 q 840 481 840 539 l 840 263 q 776 65 840 136 q 579 -7 711 -7 l 483 -7 l 483 -303 z "},"ω":{"ha":939,"x_min":92,"x_max":831,"o":"m 804 251 l 804 440 q 765 595 804 533 q 663 668 725 657 l 682 694 q 831 440 831 639 l 831 261 q 607 -17 831 -17 q 522 6 564 -17 q 461 71 479 29 q 401 6 443 29 q 315 -17 358 -17 q 92 261 92 -17 l 92 440 q 240 694 92 639 l 256 669 q 157 594 196 657 q 118 440 118 531 l 118 250 q 138 125 118 176 q 189 50 157 74 q 311 10 246 10 q 449 154 444 10 l 449 415 l 475 415 l 475 154 q 611 10 476 10 q 804 251 804 10 z "},"ϊ":{"ha":179,"x_min":-31,"x_max":232,"o":"m 226 805 q 223 802 226 805 q 211 799 219 799 q 197 805 203 799 q 190 819 190 811 q 197 834 190 828 q 211 840 203 840 q 226 834 219 840 q 232 819 232 828 q 226 805 232 811 m 5 803 q 2 800 5 803 q -10 797 -1 797 q -24 803 -18 797 q -31 818 -31 810 q -24 833 -31 826 q -10 839 -18 839 q 5 833 -1 839 q 11 818 11 826 q 5 803 11 810 m 114 0 l 88 0 l 88 696 l 114 696 l 114 0 z "},"ϋ":{"ha":690,"x_min":108,"x_max":636,"o":"m 506 805 q 503 802 506 805 q 492 799 500 799 q 477 805 483 799 q 471 819 471 811 q 477 834 471 828 q 492 840 483 840 q 506 834 500 840 q 513 819 513 828 q 506 805 513 811 m 285 803 q 282 800 285 803 q 271 797 279 797 q 256 803 263 797 q 250 818 250 810 q 256 833 250 826 q 271 839 263 839 q 285 833 279 839 q 292 818 292 826 q 285 803 292 810 m 610 229 l 610 696 l 636 696 l 636 239 q 372 -14 636 -14 q 108 239 108 -14 l 108 696 l 135 696 l 135 229 q 372 13 135 13 q 610 229 610 13 z "},"ό":{"ha":681,"x_min":108,"x_max":626,"o":"m 600 256 l 600 444 q 534 624 600 564 q 368 685 468 685 q 201 624 268 685 q 135 444 135 564 l 135 256 q 192 83 135 154 q 367 11 249 11 q 543 81 486 11 q 600 256 600 151 m 626 439 l 626 256 q 563 63 626 139 q 369 -14 499 -14 q 174 63 240 -14 q 108 256 108 140 l 108 439 q 176 641 108 571 q 367 711 243 711 q 558 638 490 711 q 626 439 626 565 m 358 747 l 332 747 l 408 925 q 429 943 415 943 q 453 924 453 943 q 446 904 453 915 l 358 747 z "},"ύ":{"ha":690,"x_min":108,"x_max":636,"o":"m 610 229 l 610 696 l 636 696 l 636 239 q 372 -14 636 -14 q 108 239 108 -14 l 108 696 l 135 696 l 135 229 q 372 13 135 13 q 610 229 610 13 m 372 747 l 346 747 l 422 925 q 443 943 429 943 q 467 924 467 943 q 460 904 467 915 l 372 747 z "},"ώ":{"ha":901,"x_min":108,"x_max":847,"o":"m 821 251 l 821 440 q 781 595 821 533 q 679 668 742 657 l 699 694 q 847 440 847 639 l 847 261 q 624 -17 847 -17 q 538 6 581 -17 q 478 71 496 29 q 417 6 460 29 q 332 -17 375 -17 q 108 261 108 -17 l 108 440 q 257 694 108 639 l 272 669 q 174 594 213 657 q 135 440 135 531 l 135 250 q 154 125 135 176 q 206 50 174 74 q 328 10 263 10 q 465 154 461 10 l 465 415 l 492 415 l 492 154 q 628 10 493 10 q 821 251 821 10 m 475 747 l 449 747 l 525 925 q 546 943 532 943 q 569 924 569 943 q 563 904 569 915 l 475 747 z "},"‘":{"ha":429,"x_min":-3,"x_max":104,"o":"m 18 874 l 21 874 q 39 851 39 869 q 18 832 39 832 q -3 853 -3 832 q 82 989 -3 919 l 104 974 q 48 929 69 954 q 22 889 26 904 l 18 874 z "},"’":{"ha":429,"x_min":-3,"x_max":104,"o":"m 19 778 l -3 793 q 53 838 32 813 q 79 878 75 863 l 83 893 l 81 893 q 63 916 63 897 q 83 935 63 935 q 104 914 104 935 q 19 778 104 847 z "},"‚":{"ha":247,"x_min":42,"x_max":149,"o":"m 64 -117 l 42 -101 q 98 -57 76 -82 q 124 -17 119 -32 l 128 -1 l 125 -1 q 107 22 107 3 q 128 40 107 40 q 149 19 149 40 q 64 -117 149 -47 z "},"“":{"ha":639,"x_min":-3,"x_max":314,"o":"m 228 879 l 231 879 q 249 856 249 875 q 228 838 249 838 q 207 858 207 838 q 292 994 207 925 l 314 979 q 258 935 279 960 q 232 894 236 910 l 228 879 m 18 879 l 21 879 q 39 856 39 875 q 18 838 39 838 q -3 858 -3 838 q 82 994 -3 925 l 104 979 q 48 935 69 960 q 22 894 26 910 l 18 879 z "},"”":{"ha":639,"x_min":-3,"x_max":314,"o":"m 229 778 l 207 793 q 263 838 242 813 q 289 878 285 863 l 293 893 l 290 893 q 272 916 272 897 q 293 935 272 935 q 314 914 314 935 q 229 778 314 847 m 19 778 l -3 793 q 53 838 32 813 q 79 878 75 863 l 83 893 l 81 893 q 63 916 63 897 q 83 935 63 935 q 104 914 104 935 q 19 778 104 847 z "},"„":{"ha":457,"x_min":42,"x_max":358,"o":"m 274 -114 l 251 -99 q 308 -54 286 -79 q 333 -14 329 -29 l 338 1 l 335 1 q 317 24 317 6 q 338 43 317 43 q 358 22 358 43 q 274 -114 358 -44 m 64 -114 l 42 -99 q 98 -54 76 -79 q 124 -14 119 -29 l 128 1 l 125 1 q 107 24 107 6 q 128 43 107 43 q 149 22 149 43 q 64 -114 149 -44 z "},"•":{"ha":658,"x_min":108,"x_max":604,"o":"m 531 292 q 495 256 531 292 q 356 219 458 219 q 181 292 253 219 q 108 468 108 365 q 181 643 108 571 q 356 715 253 715 q 531 643 458 715 q 604 468 604 571 q 531 292 604 365 z "},"…":{"ha":678,"x_min":42,"x_max":579,"o":"m 573 6 q 570 3 573 6 q 558 0 567 0 q 544 6 550 0 q 538 21 538 13 q 544 35 538 29 q 558 42 550 42 q 573 35 567 42 q 579 21 579 29 q 573 6 579 13 m 323 6 q 320 3 323 6 q 308 0 317 0 q 294 6 300 0 q 288 21 288 13 q 294 35 288 29 q 308 42 300 42 q 323 35 317 42 q 329 21 329 29 q 323 6 329 13 m 77 6 q 74 3 77 6 q 63 0 71 0 q 48 6 54 0 q 42 21 42 13 q 48 35 42 29 q 63 42 54 42 q 77 35 71 42 q 83 21 83 29 q 77 6 83 13 z "},"‰":{"ha":1454,"x_min":108,"x_max":1400,"o":"m 433 690 q 457 716 433 690 q 481 810 481 742 q 433 930 481 878 q 308 982 386 982 q 183 930 231 982 q 136 810 136 878 q 183 690 136 742 q 308 638 231 638 q 433 690 386 638 m 450 668 q 421 639 450 668 q 308 610 392 610 q 167 668 225 610 q 108 810 108 726 q 167 951 108 893 q 308 1010 225 1010 q 450 951 392 1010 q 508 810 508 893 q 450 668 508 726 m 740 11 q 779 11 740 11 q 866 63 818 11 q 914 184 914 115 q 866 306 914 253 q 740 358 818 358 q 615 306 663 358 q 567 184 567 253 q 615 63 567 115 q 740 11 663 11 m 882 43 q 853 14 882 43 q 740 -15 824 -15 q 599 43 657 -15 q 540 185 540 101 q 599 326 540 268 q 740 385 657 385 q 882 326 824 385 q 940 185 940 268 q 882 43 940 101 m 149 1 l 131 24 l 888 1028 l 908 1010 l 149 1 m 1200 11 q 1239 11 1200 11 q 1326 63 1278 11 q 1374 184 1374 115 q 1326 306 1374 253 q 1200 358 1278 358 q 1074 306 1122 358 q 1026 184 1026 253 q 1074 63 1026 115 q 1200 11 1122 11 m 1342 43 q 1313 14 1342 43 q 1200 -15 1283 -15 q 1058 43 1117 -15 q 1000 185 1000 101 q 1058 326 1000 268 q 1200 385 1117 385 q 1342 326 1283 385 q 1400 185 1400 268 q 1342 43 1400 101 z "},"‹":{"ha":424,"x_min":58,"x_max":340,"o":"m 318 111 l 58 371 l 58 372 l 318 632 l 340 613 l 99 371 l 339 133 l 318 111 z "},"›":{"ha":418,"x_min":29,"x_max":311,"o":"m 311 371 l 51 111 l 31 133 l 271 371 l 29 613 l 51 632 l 311 372 l 311 371 z "},"⁄":{"ha":639,"x_min":108,"x_max":585,"o":"m 136 -158 l 108 -158 l 558 1135 l 585 1135 l 136 -158 z "},"€":{"ha":740,"x_min":108,"x_max":686,"o":"m 454 10 q 678 57 556 10 l 686 32 q 461 -14 568 -14 q 394 -10 439 -14 q 298 22 349 -6 q 216 108 247 49 q 185 254 185 167 l 185 401 l 108 401 l 108 428 l 185 428 l 185 547 l 108 547 l 108 574 l 185 574 l 185 700 q 215 860 185 806 q 306 951 244 914 q 454 986 367 986 q 651 940 567 986 l 640 917 q 458 960 543 960 q 349 941 396 960 q 275 897 301 922 q 230 824 249 871 q 211 713 211 776 l 211 574 l 553 574 l 553 547 l 211 547 l 211 428 l 553 428 l 553 401 l 211 401 l 211 257 q 248 108 211 167 q 340 29 285 49 q 454 10 396 10 z "},"™":{"ha":903,"x_min":192,"x_max":708,"o":"m 708 711 l 682 711 l 682 944 l 582 711 l 553 711 l 451 944 l 451 711 l 424 711 l 424 946 l 326 946 l 326 711 l 300 711 l 300 946 l 192 946 l 192 972 l 468 972 l 567 740 l 667 972 l 708 972 l 708 711 z "},"Ω":{"ha":876,"x_min":108,"x_max":822,"o":"m 822 0 l 506 0 l 506 28 q 690 93 599 28 q 782 272 782 158 l 782 697 q 717 892 782 829 q 543 956 651 956 l 388 956 q 215 892 279 956 q 151 699 151 828 l 151 272 q 242 92 151 157 q 425 28 332 28 l 425 0 l 108 0 l 118 28 l 299 28 q 165 133 203 74 q 126 272 126 192 l 126 699 q 192 904 126 826 q 388 982 257 982 l 543 982 q 739 904 674 982 q 804 699 804 826 l 804 272 q 765 131 804 186 q 632 28 726 76 l 810 28 l 822 0 z "},"∆":{"ha":864,"x_min":108,"x_max":810,"o":"m 772 26 l 456 936 l 146 26 l 772 26 m 810 0 l 108 0 l 442 972 l 468 972 l 810 0 z "},"ﬀ":{"ha":765,"x_min":108,"x_max":711,"o":"m 488 922 q 625 972 543 972 q 711 949 678 972 l 701 928 q 619 944 660 944 q 536 925 578 944 q 460 778 460 885 l 460 696 l 668 696 l 656 669 l 460 669 l 460 0 l 432 0 l 432 779 q 469 904 432 854 q 326 956 403 956 q 192 910 249 956 q 136 775 136 865 l 136 696 l 344 696 l 332 669 l 136 669 l 136 0 l 108 0 l 108 779 q 144 897 108 847 q 304 981 203 981 q 488 922 406 981 z "},"ﬁ":{"ha":535,"x_min":108,"x_max":481,"o":"m 458 899 q 315 960 392 960 q 186 910 239 960 q 133 772 133 860 l 133 696 l 344 696 l 333 669 l 133 669 l 133 0 l 108 0 l 108 779 q 168 929 108 874 q 310 985 228 985 q 476 917 403 985 l 458 899 m 481 0 l 456 0 l 456 696 l 481 696 l 481 0 z "},"ﬂ":{"ha":531,"x_min":108,"x_max":476,"o":"m 108 779 q 169 928 108 876 q 317 981 229 981 q 476 913 404 981 l 476 0 l 453 0 l 453 900 q 315 956 390 956 q 186 910 239 956 q 133 785 133 864 l 133 696 l 344 696 l 333 669 l 133 669 l 133 0 l 108 0 l 108 779 z "},"ﬄ":{"ha":850,"x_min":108,"x_max":796,"o":"m 485 924 q 632 979 540 979 q 796 913 724 979 l 796 0 l 772 0 l 772 900 q 634 956 710 956 q 506 910 558 956 q 453 785 453 864 l 453 696 l 664 696 l 653 669 l 453 669 l 453 0 l 428 0 l 428 779 q 468 904 428 853 q 325 954 401 954 q 192 910 249 954 q 136 775 136 865 l 136 696 l 344 696 l 332 669 l 136 669 l 136 0 l 108 0 l 108 779 q 167 925 108 869 q 308 981 225 981 q 485 924 392 981 z "}," ":{"ha":386,"x_min":0,"x_max":0,"o":""}}}
